<?xml version="1.0" encoding="utf-8"?><!DOCTYPE svg PUBLIC "-//W3C//DTD SVG 1.1//EN" "http://www.w3.org/Graphics/SVG/1.1/DTD/svg11.dtd"><svg version="1.1" xmlns="http://www.w3.org/2000/svg" xmlns:xlink="http://www.w3.org/1999/xlink" width="32" height="32" viewBox="0 0 32 32" data-tags="document-bookmark"><g fill="#444" transform="scale(0.03125 0.03125)"><path d="M512 128h96v159.811c0 35.82 28.624 64.189 63.933 64.189h128.067v544.211c0 17.55-14.326 31.789-31.999 31.789h-480.003c-17.448 0-31.999-14.262-31.999-31.855v-736.291c0-17.286 14.264-31.855 31.858-31.855h32.142v352l96-96 96 96v-352zM624 96h-335.912c-35.395 0-64.088 28.747-64.088 64.235v735.531c0 35.476 28.51 64.235 63.918 64.235h480.165c35.301 0 63.918-28.743 63.918-63.705v-576.295l-192-224h-16zM640 144l150.398 176h-118.503c-17.475 0-31.896-14.453-31.896-32.281v-143.719zM352 128h128v275.199l-64-64-64 64v-275.199z" /></g></svg>