<?xml version="1.0" encoding="utf-8"?><!DOCTYPE svg PUBLIC "-//W3C//DTD SVG 1.1//EN" "http://www.w3.org/Graphics/SVG/1.1/DTD/svg11.dtd"><svg version="1.1" xmlns="http://www.w3.org/2000/svg" xmlns:xlink="http://www.w3.org/1999/xlink" width="32" height="32" viewBox="0 0 32 32" data-tags="document-bookmark"><g fill="#444" transform="scale(0.03125 0.03125)"><path d="M512 96h96v192.061c0 35.565 28.739 63.939 64.189 63.939h159.811v544.082c0 35.408-28.617 63.918-63.918 63.918h-480.165c-35.408 0-63.918-28.759-63.918-64.235v-735.531c0-35.488 28.776-64.235 64.273-64.235h31.727v384l96-96 96 96v-384zM352 96v307.199l64-64 64 64v-307.199h-128zM640 96v191.906c0 17.725 14.431 32.094 31.705 32.094h160.295l-192-224z" /></g></svg>