<?xml version="1.0" encoding="utf-8"?><!DOCTYPE svg PUBLIC "-//W3C//DTD SVG 1.1//EN" "http://www.w3.org/Graphics/SVG/1.1/DTD/svg11.dtd"><svg version="1.1" xmlns="http://www.w3.org/2000/svg" xmlns:xlink="http://www.w3.org/1999/xlink" width="32" height="32" viewBox="0 0 32 32" data-tags="cog,gear,settings,generate,make,options"><g fill="#444" transform="scale(0.03125 0.03125)"><path d="M863.68 595.68c68.992 51.424 128.128 98.496 128.128 98.496l-84.192 147.648-152.16-67.168-140.992 82.464c-9.536 86.944-18.272 166.88-18.272 166.88h-168.384l-18.688-167.392-138.944-82.656-153.824 67.904-84.16-147.648c0 0 58.144-46.848 126.976-98.112v-168.288l-126.976-97.92 84.16-147.68 150.144 66.816 149.056-80.864 12.256-168.16h168.384l12.192 167.456 147.008 82.496 152.256-67.776 84.192 147.68-128.128 98.272v167.552zM512 384c-70.688 0-128 57.312-128 128s57.312 128 128 128 128-57.312 128-128-57.312-128-128-128z" /></g></svg>