<?xml version="1.0" encoding="utf-8"?><!DOCTYPE svg PUBLIC "-//W3C//DTD SVG 1.1//EN" "http://www.w3.org/Graphics/SVG/1.1/DTD/svg11.dtd"><svg version="1.1" xmlns="http://www.w3.org/2000/svg" xmlns:xlink="http://www.w3.org/1999/xlink" width="24" height="24" viewBox="0 0 24 24" data-tags="pending_actions"><g fill="#444" transform="scale(0.0234375 0.0234375)"><path d="M726 512q-60 0-108 29t-77 77-29 108q0 58 29 107t77 77 108 28q58 0 107-28t77-77 28-107q0-60-28-108t-77-77-107-29zM796 826l-92-92v-136h42v118l80 80zM768 128h-136q-14-38-46-62t-74-24-74 24-46 62h-136q-36 0-61 25t-25 61v640q0 34 25 59t61 25h260q-38-36-60-84h-200v-640h86v128h340v-128h86v216q44 6 86 26v-242q0-36-25-61t-61-25zM512 214q-18 0-30-13t-12-31q0-16 12-29t30-13 30 13 12 29q0 18-12 31t-30 13z" /></g></svg>