<?xml version="1.0" encoding="utf-8"?><!DOCTYPE svg PUBLIC "-//W3C//DTD SVG 1.1//EN" "http://www.w3.org/Graphics/SVG/1.1/DTD/svg11.dtd"><svg version="1.1" xmlns="http://www.w3.org/2000/svg" xmlns:xlink="http://www.w3.org/1999/xlink" width="45" height="32" viewBox="0 0 45 32" data-tags="3d glasses,glasses"><g fill="#444" transform="scale(0.03125 0.03125)"><path d="M429.696 257.6c54.88 0 68.608 27.424 105.152 22.848 36.576-4.576 4.576-68.576-27.424-114.272s-105.12-22.848-160 9.152c-54.848 32-346.272 209.152-346.272 209.152h254.848c0-0.032 118.848-126.88 173.696-126.88zM0 417.568v416c0 35.328 28.64 64 64 64 0 0 246.72 0 514.656 0 48.064 0 92-149.344 141.344-149.344 42.848 0 75.072 149.344 117.312 149.344 284.576 0 538.656 0 538.656 0 35.36 0 64.032-28.672 64.032-64v-416h-1440zM576 705.6c0 52.992-43.008 96-96 96h-288c-53.024 0-96-43.008-96-96v-96c0-53.024 42.976-96 96-96h288c52.992 0 96 42.976 96 96v96zM1344 705.6c0 52.992-43.008 96-96 96h-288c-53.024 0-96-43.008-96-96v-96c0-53.024 42.976-96 96-96h288c52.992 0 96 42.976 96 96v96zM905.12 280.448c36.576 4.576 50.272-22.848 105.152-22.848 54.848 0 173.728 126.848 173.728 126.848h254.848c0 0-291.424-177.152-346.272-209.152-54.88-32-128-54.848-160-9.152s-64 109.728-27.456 114.304z" /></g></svg>