<?xml version="1.0" encoding="utf-8"?><!DOCTYPE svg PUBLIC "-//W3C//DTD SVG 1.1//EN" "http://www.w3.org/Graphics/SVG/1.1/DTD/svg11.dtd"><svg version="1.1" xmlns="http://www.w3.org/2000/svg" xmlns:xlink="http://www.w3.org/1999/xlink" width="20" height="20" viewBox="0 0 20 20" data-tags="cup"><g fill="#444" transform="scale(0.01953125 0.01953125)"><path d="M512 51.2c-219.085 0-355.328 72.192-347.904 130.816l73.83 689.51c2.97 23.552 113.715 101.171 274.074 101.274 160.307-0.102 271.104-77.722 273.971-101.325l73.83-689.51c7.424-58.573-128.717-130.765-347.802-130.765zM512 270.899c-160.358-0.102-274.074-57.19-274.074-78.592-0.051-21.197 113.766-78.387 274.074-78.285 160.307-0.102 274.125 57.088 273.971 78.285 0 21.402-113.664 78.49-273.971 78.592z" /></g></svg>