<?xml version="1.0" encoding="utf-8"?><!DOCTYPE svg PUBLIC "-//W3C//DTD SVG 1.1//EN" "http://www.w3.org/Graphics/SVG/1.1/DTD/svg11.dtd"><svg version="1.1" xmlns="http://www.w3.org/2000/svg" xmlns:xlink="http://www.w3.org/1999/xlink" width="20" height="20" viewBox="0 0 20 20" data-tags="hour-glass"><g fill="#444" transform="scale(0.01953125 0.01953125)"><path d="M153.6 921.6c-0-0.083-0-0.181-0-0.279 0-142.127 82.729-264.931 202.66-322.885l2.141-0.933v-171.008c-122.071-58.886-204.8-181.69-204.8-323.817 0-0.098 0-0.196 0-0.294l-0 0.015h-102.4v-102.4h921.6v102.4h-102.4c0 0.083 0 0.181 0 0.279 0 142.127-82.729 264.931-202.66 322.885l-2.141 0.933v171.008c122.071 58.886 204.8 181.69 204.8 323.817 0 0.098-0 0.196-0 0.294l0-0.015h102.4v102.4h-921.6v-102.4h102.4zM256 102.4c-0 0.015-0 0.034-0 0.052 0 123.261 87.114 226.175 203.133 250.535l1.667 0.293v158.72h102.4v-158.72c117.686-24.652 204.8-127.567 204.8-250.828 0-0.018-0-0.037-0-0.055l0 0.003h-512z" /></g></svg>