<?xml version="1.0" encoding="utf-8"?><!DOCTYPE svg PUBLIC "-//W3C//DTD SVG 1.1//EN" "http://www.w3.org/Graphics/SVG/1.1/DTD/svg11.dtd"><svg version="1.1" xmlns="http://www.w3.org/2000/svg" xmlns:xlink="http://www.w3.org/1999/xlink" width="32" height="32" viewBox="0 0 32 32" data-tags="document-star"><g fill="#444" transform="scale(0.03125 0.03125)"><path d="M624 96h16l192 224v576.295c0 34.963-28.617 63.705-63.918 63.705h-480.165c-35.408 0-63.918-28.759-63.918-64.235v-735.531c0-35.488 28.693-64.235 64.088-64.235h335.912zM608 128h-320.142c-17.595 0-31.858 14.568-31.858 31.855v736.291c0 17.593 14.551 31.855 31.999 31.855h480.003c17.672 0 31.999-14.238 31.999-31.789v-544.211h-128.067c-35.309 0-63.933-28.37-63.933-64.189v-159.811zM640 144v143.719c0 17.828 14.421 32.281 31.896 32.281h118.503l-150.398-176zM528 736l-128 96 48-160-128-96h160l48-160 48 160h160l-128 96 48 160-128-96z" /></g></svg>