<?xml version="1.0" encoding="utf-8"?><!DOCTYPE svg PUBLIC "-//W3C//DTD SVG 1.1//EN" "http://www.w3.org/Graphics/SVG/1.1/DTD/svg11.dtd"><svg version="1.1" xmlns="http://www.w3.org/2000/svg" xmlns:xlink="http://www.w3.org/1999/xlink" width="32" height="32" viewBox="0 0 32 32" data-tags="document-star"><g fill="#444" transform="scale(0.03125 0.03125)"><path d="M608 96h-319.727c-35.497 0-64.273 28.747-64.273 64.235v735.531c0 35.476 28.51 64.235 63.918 64.235h480.165c35.301 0 63.918-28.51 63.918-63.918v-544.082h-159.811c-35.451 0-64.189-28.375-64.189-63.939v-192.061zM640 96v191.906c0 17.725 14.431 32.094 31.705 32.094h160.295l-192-224zM528 736l-128 96 48-160-128-96h160l48-160 48 160h160l-128 96 48 160-128-96z" /></g></svg>