<?xml version="1.0" encoding="utf-8"?><!DOCTYPE svg PUBLIC "-//W3C//DTD SVG 1.1//EN" "http://www.w3.org/Graphics/SVG/1.1/DTD/svg11.dtd"><svg version="1.1" xmlns="http://www.w3.org/2000/svg" xmlns:xlink="http://www.w3.org/1999/xlink" width="32" height="32" viewBox="0 0 32 32" data-tags="david star"><g fill="#444" transform="scale(0.03125 0.03125)"><path d="M512 222.72l59.936 97.28h-119.84l59.904-97.28zM793.568 680.448h-119.2l59.296-96.576 59.904 96.576zM230.464 680.448l59.904-96.576 59.296 96.576h-119.2zM383.808 736l128.192 208 128.224-208h255.776l-128.192-207.68 128.192-208.32h-255.776l-128.224-208-128.192 208h-255.808l128.224 208.32-128.224 207.68h255.808zM793.568 375.552l-59.904 97.12-59.296-97.12h119.2zM512 833.248l-59.904-97.248h119.84l-59.936 97.248zM324.512 528.32l93.44-152.768h188.128l93.472 152.768-94.048 152.128h-187.52l-93.472-152.128zM230.464 375.552h119.2l-59.296 97.12-59.904-97.12z" /></g></svg>