<?xml version="1.0" encoding="utf-8"?><!DOCTYPE svg PUBLIC "-//W3C//DTD SVG 1.1//EN" "http://www.w3.org/Graphics/SVG/1.1/DTD/svg11.dtd"><svg version="1.1" xmlns="http://www.w3.org/2000/svg" xmlns:xlink="http://www.w3.org/1999/xlink" width="32" height="32" viewBox="0 0 32 32" data-tags="moon and star"><g fill="#444" transform="scale(0.03125 0.03125)"><path d="M613.824 842.496c-180.32 0-328.32-148.992-328.32-330.496 0-182.88 145.248-330.496 331.936-330.496 64 0 128 25.792 128 25.792-72.864-51.2-148.64-76.768-227.328-76.768-106.944 0-197.76 37.024-272.512 111.104s-112.096 164.192-112.096 270.368c0 105.504 37.216 195.456 111.616 269.888s164.352 111.616 269.888 111.616c136.384 0 219.904-70.432 230.432-77.312 0 0-67.616 26.304-131.616 26.304zM689.696 533.12l-34.048 105.728 89.824-64.96 89.312 64.96-34.048-105.728 89.824-64.64h-111.040l-34.080-105.536-34.56 105.536h-111.008l89.824 64.64z" /></g></svg>