<?xml version="1.0" encoding="utf-8"?><!DOCTYPE svg PUBLIC "-//W3C//DTD SVG 1.1//EN" "http://www.w3.org/Graphics/SVG/1.1/DTD/svg11.dtd"><svg version="1.1" xmlns="http://www.w3.org/2000/svg" xmlns:xlink="http://www.w3.org/1999/xlink" width="32" height="32" viewBox="0 0 32 32" data-tags="star,favorite,rate"><g fill="#444" transform="scale(0.03125 0.03125)"><path d="M724.032 638.112l-0.32-0.192-2.112 1.696 3.008 0.448c0 0 129.664 326.528 102.496 373.856-53.408 40.48-282.944-179.040-312.768-208.032l0.192 1.12c0 0-257.888 257.536-317.6 211.488-35.776-25.984 94.304-384.96 94.304-384.96l0.608-0.096c-47.776-27.296-310.176-212.672-290.784-279.392 0.576-40.16 365.248-37.376 376.864-35.808 1.408-8.16 63.904-318.24 134.112-318.24 70.56 0 131.2 317.376 131.936 321.792h0.192l0.064 0.32 0.8-1.696c0 0 377.376-5.792 377.952 33.632 21.376 73.376-298.944 284.064-298.944 284.064z" /></g></svg>