<?xml version="1.0" encoding="utf-8"?><!DOCTYPE svg PUBLIC "-//W3C//DTD SVG 1.1//EN" "http://www.w3.org/Graphics/SVG/1.1/DTD/svg11.dtd"><svg version="1.1" xmlns="http://www.w3.org/2000/svg" xmlns:xlink="http://www.w3.org/1999/xlink" width="20" height="20" viewBox="0 0 20 20" data-tags="hour-glass"><g fill="#444" transform="scale(0.01953125 0.01953125)"><path d="M798.72 234.291c0-109.517 0-120.218 0-120.218 0-40.397-128.41-114.074-286.72-114.074-158.362 0-286.72 73.677-286.72 114.074 0 0 0 10.701 0 120.218 0 109.619 198.502 200.090 198.502 277.709 0 77.517-198.502 167.987-198.502 277.606s0 120.32 0 120.32c0 40.346 128.358 114.074 286.72 114.074 158.31 0 286.72-73.728 286.72-114.125 0 0 0-10.701 0-120.32s-198.502-200.090-198.502-277.606c0-77.568 198.502-168.038 198.502-277.658zM304.179 119.194c35.635-22.477 102.4-55.398 210.637-55.398 108.186 0 205.107 55.398 205.107 55.398 7.27 4.403 35.738 19.61 16.23 31.181-42.906 25.446-126.874 52.224-224.154 52.224s-178.381-29.491-221.389-54.989c-19.507-11.52 13.568-28.416 13.568-28.416zM537.651 512c0 61.082 50.995 100.403 105.011 152.883 39.475 38.298 93.491 90.778 93.491 124.672v67.994c-49.664-24.73-198.246-48.896-198.246-128.205 0-40.090-51.866-40.090-51.866 0 0 79.309-148.582 103.475-198.246 128.205v-67.994c0-33.894 54.067-86.426 93.491-124.672 54.016-52.48 105.011-91.802 105.011-152.883s-50.995-100.403-105.011-152.883c-39.475-38.4-93.491-90.88-93.491-124.826l-2.355-51.098c52.531 28.314 135.782 55.194 226.56 55.194 90.726 0 174.387-26.88 226.97-55.194l-2.816 51.098c0 33.894-54.067 86.426-93.491 124.826-53.965 52.48-105.011 91.802-105.011 152.883z" /></g></svg>