<?xml version="1.0" encoding="utf-8"?><!DOCTYPE svg PUBLIC "-//W3C//DTD SVG 1.1//EN" "http://www.w3.org/Graphics/SVG/1.1/DTD/svg11.dtd"><svg version="1.1" xmlns="http://www.w3.org/2000/svg" xmlns:xlink="http://www.w3.org/1999/xlink" width="32" height="32" viewBox="0 0 32 32" data-tags="cog,gear,settings,options,generate"><g fill="#444" transform="scale(0.03125 0.03125)"><path d="M1024 575.008v-128l-152.992-63.744c-4.256-12-8.736-23.616-14.24-35.008l61.76-153.76-90.528-90.496-152.384 62.752c-11.616-5.632-23.488-10.368-35.744-14.752l-64.864-152h-128l-63.264 151.488c-12.736 4.512-24.992 9.248-37.12 15.008l-152.128-61.12-90.496 90.496 62.016 150.752c-6.016 12.384-10.88 24.992-15.52 38.016l-150.496 64.352v128l150.624 62.752c4.64 12.992 9.632 25.632 15.616 38.016l-60.864 151.744 90.496 90.496 151.136-62.24c12.128 5.76 24.512 10.368 37.248 14.752l64.736 151.488h128l63.36-152.256c12.128-4.512 24.128-9.248 35.616-14.752l153.504 61.504 90.496-90.496-63.008-152.736c5.376-11.488 9.76-23.136 14.016-35.008l153.024-65.248zM511.008 704c-105.984 0-192-86.016-192-192s86.016-192 192-192 192 86.016 192 192-86.016 192-192 192z" /></g></svg>