<?xml version="1.0" encoding="utf-8"?><!DOCTYPE svg PUBLIC "-//W3C//DTD SVG 1.1//EN" "http://www.w3.org/Graphics/SVG/1.1/DTD/svg11.dtd"><svg version="1.1" xmlns="http://www.w3.org/2000/svg" xmlns:xlink="http://www.w3.org/1999/xlink" width="16" height="16" viewBox="0 0 16 16" data-tags="spinner,loading,busy,wheel"><g fill="#444" transform="scale(0.015625 0.015625)"><path d="M960 576h-128c-35.376 0-64-28.624-64-64s28.624-64 64-64h128c35.376 0 64 28.624 64 64s-28.624 64-64 64zM783.5 331c-25 25-65.5 25-90.5 0s-25-65.5 0-90.5l90.5-90.5c25-25 65.5-25 90.5 0s25 65.5 0 90.5l-90.5 90.5zM512 1024c-35.376 0-64-28.624-64-64v-128c0-35.376 28.624-64 64-64s64 28.624 64 64v128c0 35.376-28.624 64-64 64zM512 256c-35.376 0-64-28.624-64-64v-128c0-35.376 28.624-64 64-64s64 28.624 64 64v128c0 35.376-28.624 64-64 64zM240.5 874c-25 25-65.5 25-90.5 0-25-24.938-25-65.5 0-90.5l90.5-90.5c25-25 65.5-25 90.5 0s25 65.5 0 90.5l-90.5 90.5zM240.5 331l-90.5-90.5c-25-25-25-65.5 0-90.5s65.5-25 90.5 0l90.5 90.5c25 25 25 65.5 0 90.5s-65.5 25-90.5 0zM256 512c0 35.376-28.624 64-64 64h-128c-35.376 0-64-28.624-64-64s28.624-64 64-64h128c35.376 0 64 28.624 64 64zM783.5 693l90.5 90.5c25 25 25 65.562 0 90.5-25 25-65.5 25-90.5 0l-90.5-90.5c-25-25-25-65.5 0-90.5s65.5-25 90.5 0z" /></g></svg>