<?xml version="1.0" encoding="utf-8"?><!DOCTYPE svg PUBLIC "-//W3C//DTD SVG 1.1//EN" "http://www.w3.org/Graphics/SVG/1.1/DTD/svg11.dtd"><svg version="1.1" xmlns="http://www.w3.org/2000/svg" xmlns:xlink="http://www.w3.org/1999/xlink" width="32" height="32" viewBox="0 0 32 32" data-tags="folder-bookmark"><g fill="#444" transform="scale(0.03125 0.03125)"><path d="M768 448h192v351.972c0 17.8-14.226 32.028-31.775 32.028h-800.45c-17.499 0-31.775-14.209-31.775-31.738v-352.262h480v288l96-96 96 96v-288zM96 416v-192.262c0-17.168 14.208-31.738 31.736-31.738h333.065l62.719 128h404.385c17.573 0 32.095 14.339 32.095 32.028v63.972h-864zM544 288l-64-128h-351.912c-35.395 0-64.088 28.47-64.088 63.717v576.566c0 35.19 28.791 63.717 63.785 63.717h800.43c35.228 0 63.785-28.564 63.785-63.843v-448.314c0-35.259-28.706-63.843-64.187-63.843h-383.813zM608 448h128v211.199l-64-64-64 64v-211.199z" /></g></svg>