<?xml version="1.0" encoding="utf-8"?><!DOCTYPE svg PUBLIC "-//W3C//DTD SVG 1.1//EN" "http://www.w3.org/Graphics/SVG/1.1/DTD/svg11.dtd"><svg version="1.1" xmlns="http://www.w3.org/2000/svg" xmlns:xlink="http://www.w3.org/1999/xlink" width="24" height="24" viewBox="0 0 24 24" data-tags="bookmark"><g fill="#444" transform="scale(0.0234375 0.0234375)"><path d="M725.333 85.333h-341.333c-70.571 0-128 57.429-128 128v597.333c0 21.931 4.437 40.363 13.141 54.827 24.064 39.893 77.44 43.008 120.021 0.341l135.339-135.339c16-15.957 44.331-15.957 60.331 0l135.339 135.339c20.949 20.949 42.752 31.573 64.853 31.573 34.005 0 68.309-26.837 68.309-86.741v-597.333c0-70.571-57.429-128-128-128zM384 170.667h341.333c23.509 0 42.667 19.157 42.667 42.667v422.613l-104.576-95.872c-59.989-54.997-157.568-54.955-217.557 0l-104.533 95.872v-422.613c0-23.509 19.157-42.667 42.667-42.667zM645.163 670.165c-24.107-24.107-56.235-37.376-90.496-37.376s-66.389 13.312-90.496 37.376l-122.837 122.837v-99.157l133.376-122.283c44.075-40.405 115.797-40.405 159.872 0l133.419 122.283v99.157l-122.837-122.837z" /></g></svg>