<?xml version="1.0" encoding="utf-8"?><!DOCTYPE svg PUBLIC "-//W3C//DTD SVG 1.1//EN" "http://www.w3.org/Graphics/SVG/1.1/DTD/svg11.dtd"><svg version="1.1" xmlns="http://www.w3.org/2000/svg" xmlns:xlink="http://www.w3.org/1999/xlink" width="32" height="32" viewBox="0 0 32 32" data-tags="cup,drink"><g fill="#444" transform="scale(0.03125 0.03125)"><path d="M899.552 160.704l-38.88-116.96c-8.672-26.144-33.12-43.744-60.672-43.744h-576c-27.584 0-52 17.6-60.736 43.744l-39.2 117.024c-33.408 2.144-60.064 29.28-60.064 63.232v96c0 35.328 28.672 64 64 64h33.088c0 2.4-0.96 4.672-0.672 7.072l64 576c3.584 32.352 30.944 56.928 63.584 56.928h448c32.64 0 60-24.576 63.552-56.928l64-576c0.32-2.4-0.672-4.672-0.672-7.072h33.12c35.328 0 64-28.672 64-64v-96c0-34.080-26.88-61.344-60.448-63.296zM224 64h576l32 96h-640l32-96zM288 960l-10.656-96h469.312l-10.656 96h-448zM750.176 832h-476.416l-35.552-320h547.552l-35.584 320zM789.312 480h-554.656l-10.656-96h576l-10.688 96zM896 320h-768v-96h768v96z" /></g></svg>