<?xml version="1.0" encoding="utf-8"?><!DOCTYPE svg PUBLIC "-//W3C//DTD SVG 1.1//EN" "http://www.w3.org/Graphics/SVG/1.1/DTD/svg11.dtd"><svg version="1.1" xmlns="http://www.w3.org/2000/svg" xmlns:xlink="http://www.w3.org/1999/xlink" width="24" height="24" viewBox="0 0 24 24" data-tags="star"><g fill="#444" transform="scale(0.0234375 0.0234375)"><path d="M550.272 66.432c-3.925-8.064-10.581-15.019-19.371-19.371-21.12-10.411-46.72-1.749-57.131 19.371l-121.941 246.997-272.683 39.893c-8.875 1.237-17.536 5.419-24.363 12.416-16.469 16.896-16.085 43.904 0.768 60.331l197.248 192.128-46.549 271.445c-1.536 8.832-0.256 18.389 4.309 27.051 10.965 20.864 36.779 28.885 57.643 17.92l243.797-128.213 243.84 128.213c7.936 4.224 17.408 5.931 27.051 4.309 23.211-3.968 38.827-26.027 34.859-49.28l-46.549-271.445 197.248-192.128c6.443-6.229 11.051-14.677 12.459-24.405 3.413-23.296-12.715-44.971-36.053-48.384l-272.64-39.851zM512 181.717l93.568 189.611c6.443 13.013 18.603 21.291 32.085 23.339l209.323 30.592-151.424 147.499c-10.411 10.155-14.549 24.277-12.288 37.76l35.712 208.341-187.136-98.432c-12.843-6.741-27.605-6.315-39.723 0l-187.136 98.432 35.712-208.341c2.475-14.336-2.517-28.203-12.288-37.76l-151.424-147.499 209.365-30.635c14.336-2.091 25.984-11.093 32.085-23.296z" /></g></svg>