<?xml version="1.0" encoding="utf-8"?><!DOCTYPE svg PUBLIC "-//W3C//DTD SVG 1.1//EN" "http://www.w3.org/Graphics/SVG/1.1/DTD/svg11.dtd"><svg version="1.1" xmlns="http://www.w3.org/2000/svg" xmlns:xlink="http://www.w3.org/1999/xlink" width="24" height="24" viewBox="0 0 24 24" data-tags="starburst"><g fill="#444" transform="scale(0.0234375 0.0234375)"><path d="M813.397 431.317l50.304-101.845c3.157-6.357 2.901-13.952-0.64-20.096-3.541-6.187-9.984-10.155-17.109-10.624l-113.323-7.339-7.339-113.323c-0.469-7.125-4.437-13.525-10.624-17.109-6.187-3.584-13.739-3.84-20.139-0.64l-101.76 50.347-63.019-94.507c-7.936-11.861-27.563-11.861-35.499 0l-63.019 94.507-101.76-50.347c-6.443-3.2-13.952-2.944-20.139 0.64-6.187 3.541-10.155 9.984-10.624 17.109l-7.296 113.323-113.365 7.296c-7.125 0.469-13.568 4.437-17.109 10.624-3.584 6.187-3.797 13.739-0.64 20.139l50.304 101.803-94.464 63.019c-5.931 3.968-9.515 10.624-9.515 17.749s3.541 13.781 9.515 17.749l94.507 63.019-50.347 101.803c-3.157 6.4-2.901 13.952 0.64 20.139 3.541 6.144 9.984 10.155 17.109 10.581l113.323 7.296 7.296 113.365c0.469 7.125 4.437 13.525 10.624 17.109 6.144 3.541 13.653 3.755 20.139 0.64l101.803-50.304 63.019 94.464c3.968 5.931 10.624 9.515 17.749 9.515s13.781-3.541 17.749-9.515l63.019-94.464 101.803 50.304c6.4 3.115 13.952 2.901 20.139-0.64s10.155-9.984 10.624-17.109l7.296-113.323 113.323-7.339c7.125-0.469 13.525-4.437 17.109-10.624 3.541-6.187 3.797-13.739 0.64-20.139l-50.304-101.76 94.464-63.061c5.931-3.968 9.515-10.624 9.515-17.749s-3.541-13.781-9.515-17.749l-94.464-62.933z" /></g></svg>