<?xml version="1.0" encoding="utf-8"?><!DOCTYPE svg PUBLIC "-//W3C//DTD SVG 1.1//EN" "http://www.w3.org/Graphics/SVG/1.1/DTD/svg11.dtd"><svg version="1.1" xmlns="http://www.w3.org/2000/svg" xmlns:xlink="http://www.w3.org/1999/xlink" width="24" height="24" viewBox="0 0 24 24" data-tags="starburst-outline"><g fill="#444" transform="scale(0.0234375 0.0234375)"><path d="M919.723 476.544l-78.891-52.565 41.984-85.035c6.315-12.8 5.845-27.904-1.28-40.235-7.168-12.373-19.968-20.352-34.219-21.248l-94.635-6.101-6.144-94.635c-0.853-14.251-8.875-27.093-21.205-34.219-12.373-7.125-27.52-7.68-40.235-1.28l-84.949 42.027-52.608-78.891c-15.829-23.765-55.168-23.765-70.997 0l-52.651 78.848-84.992-41.984c-12.757-6.4-27.904-5.845-40.235 1.28-12.373 7.125-20.352 19.968-21.248 34.219l-6.101 94.592-94.635 6.101c-14.251 0.939-27.093 8.917-34.219 21.248s-7.637 27.477-1.28 40.235l41.984 85.035-78.891 52.608c-11.861 7.936-18.987 21.248-18.987 35.499s7.125 27.563 18.987 35.499l78.933 52.608-42.027 84.992c-6.315 12.8-5.845 27.904 1.28 40.235s19.968 20.352 34.219 21.248l94.635 6.101 6.101 94.635c0.896 14.208 8.875 27.051 21.248 34.176s27.392 7.637 40.235 1.323l84.992-42.027 52.608 78.891c7.936 11.861 21.248 18.987 35.499 18.987s27.563-7.125 35.499-18.987l52.608-78.891 84.949 42.027c12.757 6.315 27.861 5.803 40.235-1.28 12.373-7.125 20.352-19.968 21.248-34.219l6.101-94.592 94.677-6.144c14.251-0.896 27.093-8.875 34.219-21.248s7.637-27.477 1.28-40.235l-41.984-84.992 78.891-52.608c11.861-7.936 18.987-21.248 18.987-35.499-0-14.251-7.125-27.605-18.987-35.499zM747.691 604.416l30.293 61.227-68.267 4.437c-21.419 1.408-38.443 18.432-39.851 39.851l-4.395 68.181-61.227-30.251c-19.2-9.557-42.496-3.285-54.4 14.592l-37.845 56.747-37.931-56.875c-8.149-12.245-21.675-18.987-35.541-18.987-6.357 0-12.8 1.408-18.859 4.437l-61.269 30.251-4.395-68.181c-1.365-21.376-18.432-38.443-39.851-39.851l-68.096-4.395 30.293-61.227c9.515-19.243 3.243-42.539-14.592-54.4l-56.875-37.931 56.832-37.888c17.835-11.904 24.064-35.2 14.592-54.4l-30.293-61.269 68.267-4.395c21.419-1.408 38.443-18.432 39.851-39.851l4.395-68.181 61.227 30.251c19.115 9.429 42.496 3.243 54.4-14.592l37.845-56.789 37.931 56.875c11.904 17.835 35.243 24.021 54.4 14.592l61.269-30.293 4.437 68.224c1.408 21.376 18.475 38.4 39.851 39.808l68.181 4.395-30.251 61.312c-9.515 19.243-3.243 42.496 14.592 54.4l56.832 37.888-56.875 37.931c-17.92 11.819-24.149 35.115-14.677 54.357z" /></g></svg>