<?xml version="1.0" encoding="utf-8"?><!DOCTYPE svg PUBLIC "-//W3C//DTD SVG 1.1//EN" "http://www.w3.org/Graphics/SVG/1.1/DTD/svg11.dtd"><svg version="1.1" xmlns="http://www.w3.org/2000/svg" xmlns:xlink="http://www.w3.org/1999/xlink" width="48" height="48" viewBox="0 0 48 48" data-tags="hardware,cpu"><g fill="#444" transform="scale(0.046875 0.046875)"><path d="M128 810.666c0 47.146 38.186 85.334 85.334 85.334h21.334v74.666c0 29.44 23.894 53.334 53.334 53.334s53.334-23.894 53.334-53.334l-0.002-74.666h106.666v74.666c0 29.44 23.894 53.334 53.334 53.334s53.334-23.894 53.334-53.334l-0.002-74.666h106.666v74.666c0 29.44 23.894 53.334 53.334 53.334s53.334-23.894 53.334-53.334l-0-74.666h21.334c47.146 0 85.334-38.186 85.334-85.334v-21.334h74.666c29.44 0 53.334-23.894 53.334-53.334s-23.894-53.332-53.334-53.332h-74.668v-106.666h74.666c29.44 0 53.334-23.894 53.334-53.334s-23.892-53.332-53.332-53.332h-74.668v-106.666h74.666c29.44 0 53.334-23.894 53.334-53.334s-23.892-53.334-53.332-53.334h-74.668v-21.334c0-47.146-38.186-85.334-85.334-85.334h-21.334l0.002-74.666c0-29.44-23.894-53.332-53.334-53.332s-53.332 23.892-53.332 53.332v74.668h-106.666l-0.002-74.668c0-29.44-23.892-53.332-53.332-53.332s-53.334 23.892-53.334 53.332v74.668h-106.666v-74.668c0-29.44-23.894-53.332-53.334-53.332s-53.334 23.892-53.334 53.332v74.668h-21.334c-47.146 0-85.334 38.186-85.334 85.334v21.334l-74.664-0.002c-29.44 0-53.334 23.894-53.334 53.334s23.894 53.332 53.334 53.332h74.666v106.666l-74.666 0.002c-29.44 0-53.334 23.892-53.334 53.332s23.894 53.334 53.334 53.334h74.666v106.666h-74.666c-29.44 0-53.334 23.894-53.334 53.334s23.894 53.334 53.334 53.334h74.666v21.332zM661.334 409.6v226.134c0 26.026-20.906 46.934-46.934 46.934l-226.134-0.002c-26.026 0-46.934-20.906-46.934-46.934l0.002-226.132c0-26.026 20.906-46.934 46.934-46.934h226.134c26.024 0 46.932 20.908 46.932 46.934z" /></g></svg>