<?xml version="1.0" encoding="utf-8"?><!DOCTYPE svg PUBLIC "-//W3C//DTD SVG 1.1//EN" "http://www.w3.org/Graphics/SVG/1.1/DTD/svg11.dtd"><svg version="1.1" xmlns="http://www.w3.org/2000/svg" xmlns:xlink="http://www.w3.org/1999/xlink" width="32" height="32" viewBox="0 0 32 32" data-tags="hourglass,timer,loading"><g fill="#444" transform="scale(0.03125 0.03125)"><path d="M784 896c8.8 0 16 7.168 16 16s0 48 0 48h-608c0 0 0-39.168 0-48s7.168-16 16-16h53.44c2.656-213.056 141.824-281.728 141.824-367.84 0-86.56-141.728-92.32-143.072-368.16h-52.192c-8.832 0-16-7.168-16-16s0-48 0-48h608c0 0 0 39.168 0 48s-7.2 16-16 16h-48.96c-1.344 275.84-143.072 281.6-143.072 368.16 0 86.112 139.2 154.784 141.856 367.84h50.176zM547.552 528.16c0-86.912 141.76-92.32 143.072-368.16h-386.016c1.312 275.84 143.072 281.248 143.072 368.16 0 83.552-139.232 153.984-141.856 367.84h24.256c5.696-18.976 24.608-41.792 57.28-58.688l42.464-21.664c26.688-13.792 42.688-23.104 48-27.904s11.328-15.552 18.048-32.256c7.072 16.672 13.12 27.424 18.24 32.256s20.928 14.112 47.488 27.904l42.24 21.664c32.48 16.896 51.328 39.712 56.928 58.688h28.608c-2.624-213.856-141.824-284.288-141.824-367.84zM514.24 481.184c-3.84 7.552-7.072 21.92-9.632 43.104-0.64 6.4-2.048 16.032-4.32 28.864-2.24-12.832-3.68-22.464-4.32-28.864-2.592-21.184-5.824-35.52-9.696-43.104-3.872-7.52-14.784-21.056-32.8-40.672l-40.032-43.776c-27.36-29.504-44.896-50.688-52.608-63.488 47.488 30.24 93.856 45.376 139.104 45.376s91.776-15.136 139.584-45.376c-8 12.8-25.6 33.984-52.768 63.488l-39.872 43.776c-17.92 19.616-28.832 33.152-32.64 40.672z" /></g></svg>