<?xml version="1.0" encoding="utf-8"?><!DOCTYPE svg PUBLIC "-//W3C//DTD SVG 1.1//EN" "http://www.w3.org/Graphics/SVG/1.1/DTD/svg11.dtd"><svg version="1.1" xmlns="http://www.w3.org/2000/svg" xmlns:xlink="http://www.w3.org/1999/xlink" width="32" height="32" viewBox="0 0 32 32" data-tags="heart-stroke,love,like,favorite"><g fill="#444" transform="scale(0.03125 0.03125)"><path d="M739.616 192c78.624 0 143.744 58.24 154.752 134.016l-382.24 438.976-382.496-438.976c11.008-75.776 76.128-134.016 154.752-134.016 64.512 0 123.36 69.248 123.36 69.248l104.256 110.752 104.256-110.752c0 0 58.88-69.248 123.36-69.248M739.616 64c-95.488 0-176 50.496-227.616 123.008-51.616-72.512-132.128-123.008-227.616-123.008-156.896 0-284.384 127.744-284.384 284.512v23.488l512.256 588 511.744-588v-23.488c0-156.768-127.488-284.512-284.384-284.512v0z" /></g></svg>