<?xml version="1.0" encoding="utf-8"?><!DOCTYPE svg PUBLIC "-//W3C//DTD SVG 1.1//EN" "http://www.w3.org/Graphics/SVG/1.1/DTD/svg11.dtd"><svg version="1.1" xmlns="http://www.w3.org/2000/svg" xmlns:xlink="http://www.w3.org/1999/xlink" width="24" height="24" viewBox="0 0 24 24" data-tags="award"><g fill="#444" transform="scale(0.0234375 0.0234375)"><path d="M639.403 658.091l32 241.152-137.429-82.475c-13.269-7.851-29.995-8.363-43.904 0l-137.429 82.475 32.043-241.109c39.296 15.829 82.304 24.533 127.317 24.533s88.021-8.747 127.403-24.576zM654.165 554.283c-2.475 1.28-4.821 2.773-6.955 4.48-39.253 24.448-85.547 38.571-135.211 38.571-70.699 0-134.656-28.587-181.035-74.965s-74.965-110.336-74.965-181.035 28.587-134.656 74.965-181.035 110.336-74.965 181.035-74.965 134.656 28.587 181.035 74.965 74.965 110.336 74.965 181.035-28.587 134.656-74.965 181.035c-11.861 11.861-24.875 22.571-38.869 31.915zM304.64 612.48l-48.256 363.221c-3.115 23.339 13.312 44.8 36.693 47.915 9.984 1.323 19.669-0.939 27.563-5.717l191.36-114.816 191.403 114.816c20.224 12.117 46.421 5.589 58.539-14.635 5.205-8.661 6.955-18.389 5.717-27.563l-48.213-363.307c11.947-9.173 23.296-19.115 33.92-29.739 61.696-61.696 99.968-147.072 99.968-241.323s-38.272-179.627-99.968-241.365-147.115-99.968-241.365-99.968-179.627 38.272-241.365 99.968-99.968 147.115-99.968 241.365 38.272 179.627 99.968 241.365c10.667 10.667 22.016 20.608 33.963 29.781z" /></g></svg>