<?xml version="1.0" encoding="utf-8"?><!DOCTYPE svg PUBLIC "-//W3C//DTD SVG 1.1//EN" "http://www.w3.org/Graphics/SVG/1.1/DTD/svg11.dtd"><svg version="1.1" xmlns="http://www.w3.org/2000/svg" xmlns:xlink="http://www.w3.org/1999/xlink" width="24" height="24" viewBox="0 0 24 24" data-tags="star"><g fill="#444" transform="scale(0.0234375 0.0234375)"><path d="M399.445 390.741c0 0-134.827 14.933-224.768 24.917-8.107 0.981-15.275 6.4-17.963 14.635s0 16.811 5.973 22.229c66.816 60.971 167.211 152.277 167.211 152.277-0.085 0-27.563 132.821-45.824 221.44-1.536 8.021 1.365 16.512 8.363 21.589 6.955 5.077 15.915 5.163 22.955 1.195 78.677-44.715 196.523-111.957 196.523-111.957s117.888 67.243 196.437 112c7.168 3.925 16.128 3.84 23.083-1.237 6.997-5.077 9.899-13.568 8.32-21.547-18.261-88.661-45.696-221.483-45.696-221.483s100.395-91.307 167.211-152.149c5.973-5.589 8.619-14.165 5.973-22.357s-9.813-13.611-17.92-14.549c-89.941-10.069-224.811-25.003-224.811-25.003s-55.893-123.648-93.141-206.080c-3.499-7.381-10.837-12.544-19.456-12.544s-16 5.205-19.328 12.544c-37.291 82.432-93.141 206.080-93.141 206.080z" /></g></svg>