<?xml version="1.0" encoding="utf-8"?><!DOCTYPE svg PUBLIC "-//W3C//DTD SVG 1.1//EN" "http://www.w3.org/Graphics/SVG/1.1/DTD/svg11.dtd"><svg version="1.1" xmlns="http://www.w3.org/2000/svg" xmlns:xlink="http://www.w3.org/1999/xlink" width="25.999999999999996" height="28" viewBox="0 0 25.999999999999996 28" data-code="61731" data-tags="star-half-empty,star-half-full,star-half-o"><g fill="#444" transform="scale(0.02734375 0.02734375)"><path d="M677.714 546.857l146.857-142.857-241.143-35.429-17.143-34.286-90.857-184v550.286l33.714 17.714 181.714 96-34.286-202.857-6.857-37.714zM936 397.143l-207.429 202.286 49.143 285.714c4 25.143-5.143 40-22.857 40-6.286 0-14.286-2.286-22.857-6.857l-256.571-134.857-256.571 134.857c-8.571 4.571-16.571 6.857-22.857 6.857-17.714 0-26.857-14.857-22.857-40l49.143-285.714-208-202.286c-24.571-24.571-16.571-48.571 17.714-53.714l286.857-41.714 128.571-260c7.429-15.429 17.714-23.429 28-23.429v0c10.286 0 20 8 28 23.429l128.571 260 286.857 41.714c34.286 5.143 42.286 29.143 17.143 53.714z" /></g></svg>