<?xml version="1.0" encoding="utf-8"?><!DOCTYPE svg PUBLIC "-//W3C//DTD SVG 1.1//EN" "http://www.w3.org/Graphics/SVG/1.1/DTD/svg11.dtd"><svg version="1.1" xmlns="http://www.w3.org/2000/svg" xmlns:xlink="http://www.w3.org/1999/xlink" width="20" height="20" viewBox="0 0 20 20" data-tags="trophy"><g fill="#444" transform="scale(0.01953125 0.01953125)"><path d="M768 460.8c84.831 0 153.6-68.769 153.6-153.6v0h102.4c0 0.015 0 0.033 0 0.051 0 141.385-114.615 256-256 256-1.8 0-3.596-0.019-5.388-0.056l0.268 0.004c-21.059 100.662-99.018 178.62-198.013 199.387l-1.667 0.293v107.52l256 102.4v51.2h-614.4v-51.2l256-102.4v-107.52c-100.662-21.059-178.62-99.018-199.387-198.013l-0.293-1.667h-5.12c-141.385 0-256-114.615-256-256v0h102.4c0 84.831 68.769 153.6 153.6 153.6v0-256h-153.6v102.4h-102.4v-204.8h256v-102.4h512v102.4h256v204.8h-102.4v-102.4h-153.6v256z" /></g></svg>