<?xml version="1.0" encoding="utf-8"?><!DOCTYPE svg PUBLIC "-//W3C//DTD SVG 1.1//EN" "http://www.w3.org/Graphics/SVG/1.1/DTD/svg11.dtd"><svg version="1.1" xmlns="http://www.w3.org/2000/svg" xmlns:xlink="http://www.w3.org/1999/xlink" width="32" height="32" viewBox="0 0 32 32" data-tags="bookmark,favorite,ribbon"><g fill="#444" transform="scale(0.03125 0.03125)"><path d="M800 928h-512v-704h224v292l113.312-86.016 110.688 86.016v-292h128v640c0 35.328-28.672 64-64 64zM625.312 388l-81.312 64v-260h160v260l-78.688-64zM192 160v32c0 17.664 14.336 32 32 32h32v704h-32c-35.328 0-64-28.672-64-64v-704c0-35.328 28.672-64 64-64h576c23.616 0 44.032 12.928 55.136 32h-631.136c-17.664 0-32 14.304-32 32z" /></g></svg>