<?xml version="1.0" encoding="utf-8"?><!DOCTYPE svg PUBLIC "-//W3C//DTD SVG 1.1//EN" "http://www.w3.org/Graphics/SVG/1.1/DTD/svg11.dtd"><svg version="1.1" xmlns="http://www.w3.org/2000/svg" xmlns:xlink="http://www.w3.org/1999/xlink" width="32" height="32" viewBox="0 0 32 32" data-tags="search,zoom,magnifier,magnifying glass"><g fill="#444" transform="scale(0.03125 0.03125)"><path d="M1014.88 926.496c12.192 12.192 12.192 31.968 0 44.192l-44.192 44.192c-12.224 12.192-32 12.192-44.192 0l-309.376-309.376c-3.36-3.36-5.6-7.328-7.104-11.552-63.456 46.368-141.376 74.048-226.016 74.048-212.064 0-384-171.936-384-384 0-212.064 171.936-384 384-384 212.064 0 384 171.936 384 384 0 84.64-27.68 162.56-74.048 226.016 4.224 1.504 8.192 3.712 11.552 7.104l309.376 309.376zM384 128c-141.376 0-256 114.624-256 256s114.624 256 256 256 256-114.624 256-256c0-141.376-114.624-256-256-256z" /></g></svg>