<?xml version="1.0" encoding="utf-8"?><!DOCTYPE svg PUBLIC "-//W3C//DTD SVG 1.1//EN" "http://www.w3.org/Graphics/SVG/1.1/DTD/svg11.dtd"><svg version="1.1" xmlns="http://www.w3.org/2000/svg" xmlns:xlink="http://www.w3.org/1999/xlink" width="32" height="32" viewBox="0 0 32 32" data-tags="glassdoor"><g fill="#444" transform="scale(0.03125 0.03125)"><path fill="rgb(12, 170, 65)" d="M731.477 877.739h-585.131c0 80.768 65.408 146.261 146.176 146.261h438.869c80.768 0 146.261-65.493 146.261-146.261v-600.747c0-2.987-2.304-5.333-5.291-5.333h-135.68c-2.859 0-5.248 2.389-5.248 5.376zM731.477 0c80.725 0 146.219 65.493 146.219 146.347h-585.088v600.661c0 2.901-2.389 5.333-5.333 5.333h-135.637c-2.987 0-5.333-2.432-5.333-5.333v-600.747c0.043-80.725 65.451-146.261 146.219-146.261h438.912z" /></g></svg>