<?xml version="1.0" encoding="utf-8"?><!DOCTYPE svg PUBLIC "-//W3C//DTD SVG 1.1//EN" "http://www.w3.org/Graphics/SVG/1.1/DTD/svg11.dtd"><svg version="1.1" xmlns="http://www.w3.org/2000/svg" xmlns:xlink="http://www.w3.org/1999/xlink" width="28" height="32" viewBox="0 0 28 32" data-code="57374" data-tags="ribbon,bookmark"><g fill="#444" transform="scale(0.03125 0.03125)"><path d="M48 288c-8.832 0-16 7.168-16 16v670.272c0 21.28 10.112 33.248 18.624 39.52 10.176 7.552 22.144 10.208 32.832 10.208 6.432 0 12.384-0.96 17.216-2.464 93.728-28.64 299.040-239.424 351.136-294.080 50.784 54.976 249.76 265.44 343.488 294.080 12.928 3.968 33.76 4.32 50.048-7.776 8.544-6.272 18.656-18.208 18.656-39.488v-670.272c0-8.832-7.168-16-16-16s-16 7.168-16 16v670.272c0 8.64-3.232 12-5.664 13.792-5.696 4.224-15.488 4.8-21.664 2.912-97.28-29.728-338.4-295.040-340.8-297.696-3.008-3.328-7.264-5.248-11.744-5.28-4.064-0.032-8.736 1.792-11.808 5.088-2.496 2.656-251.584 268.096-348.992 297.888-6.144 1.888-15.968 1.312-21.664-2.912-2.432-1.792-5.664-5.184-5.664-13.792v-670.272c0-8.832-7.168-16-16-16zM896 208v-160c0-26.464-21.536-48-48-48h-800c-26.464 0-48 21.536-48 48v160c0 8.832 7.168 16 16 16h864c8.832 0 16-7.168 16-16zM864 192h-832v-144c0-8.832 7.168-16 16-16h800c8.832 0 16 7.168 16 16v144z" /></g></svg>