<?xml version="1.0" encoding="utf-8"?><!DOCTYPE svg PUBLIC "-//W3C//DTD SVG 1.1//EN" "http://www.w3.org/Graphics/SVG/1.1/DTD/svg11.dtd"><svg version="1.1" xmlns="http://www.w3.org/2000/svg" xmlns:xlink="http://www.w3.org/1999/xlink" width="20" height="20" viewBox="0 0 20 20" data-tags="trophy"><g fill="#444" transform="scale(0.01953125 0.01953125)"><path d="M572.416 735.027c0-74.291 56.32-115.405 148.173-176.23 112.333-74.547 252.211-167.168 252.211-387.072 0-19.814-16.23-35.789-36.301-35.789h-175.616c-24.781-45.875-98.765-94.976-248.883-94.976-150.221 0-224.102 49.101-248.934 94.976h-175.667c-20.019 0-36.198 16.026-36.198 35.789 0 219.904 139.776 312.525 252.211 387.021 91.853 60.826 148.173 101.939 148.173 176.23v67.123c-96.461 10.701-167.373 46.387-167.373 88.883 0 50.893 101.99 92.109 227.789 92.109s227.789-41.216 227.789-92.109c0-42.496-70.912-78.182-167.373-88.883v-67.072zM714.598 476.16c28.979-61.389 52.019-144.691 55.706-268.595h128.512c-12.288 138.291-95.334 208.077-184.218 268.595zM512 103.731c139.878-0.102 194.509 57.088 194.458 78.285 0 21.402-54.579 78.49-194.458 78.592-139.878-0.051-194.509-57.139-194.509-78.541-0.051-21.197 54.63-78.438 194.509-78.336zM125.184 207.565h128.461c3.738 123.904 26.675 207.206 55.757 268.595-88.883-60.518-171.981-130.304-184.218-268.595z" /></g></svg>