<?xml version="1.0" encoding="utf-8"?><!DOCTYPE svg PUBLIC "-//W3C//DTD SVG 1.1//EN" "http://www.w3.org/Graphics/SVG/1.1/DTD/svg11.dtd"><svg version="1.1" xmlns="http://www.w3.org/2000/svg" xmlns:xlink="http://www.w3.org/1999/xlink" width="32" height="32" viewBox="0 0 32 32" data-tags="trophy"><g fill="#444" transform="scale(0.03125 0.03125)"><path d="M512 832h-128v32h288v-32h-128v-160c106.054-0.092 192-85.871 192-191.778v-0.222 0c112-48 128-288 128-288h-672c0 0 16 240 128 288v0.222c0 105.86 86.103 191.686 192 191.778v160zM320 224v220.8c-75.066-53.739-92.8-220.8-92.8-220.8h92.8zM735.438 224h92.812c0 0-17.746 166.431-92.812 220.17v-220.17z" /></g></svg>