<?xml version="1.0" encoding="utf-8"?><!DOCTYPE svg PUBLIC "-//W3C//DTD SVG 1.1//EN" "http://www.w3.org/Graphics/SVG/1.1/DTD/svg11.dtd"><svg version="1.1" xmlns="http://www.w3.org/2000/svg" xmlns:xlink="http://www.w3.org/1999/xlink" width="32" height="32" viewBox="0 0 32 32" data-tags="trophy"><g fill="#444" transform="scale(0.03125 0.03125)"><path d="M672 800h96v128h-480v-128h96v-96h128v-128c-105.897-0.092-192-85.918-192-191.778v-0.222c-112-48-128-288-128-288h672c0 0-16 240-128 288v0.222c0 105.907-85.946 191.687-192 191.778v128h128v96zM352 128v255.759c0 88.499 71.657 160.241 160.035 160.241h31.93c88.385 0 160.035-71.513 160.035-160.241v-255.759h-352zM320 128h-92.8c0 0 17.733 167.061 92.8 220.8v-220.8zM735.438 128v220.17c75.066-53.739 92.812-220.17 92.812-220.17h-92.812zM416 736v64h224v-64h-224zM320 832v64h416v-64h-416z" /></g></svg>