<?xml version="1.0" encoding="utf-8"?><!DOCTYPE svg PUBLIC "-//W3C//DTD SVG 1.1//EN" "http://www.w3.org/Graphics/SVG/1.1/DTD/svg11.dtd"><svg version="1.1" xmlns="http://www.w3.org/2000/svg" xmlns:xlink="http://www.w3.org/1999/xlink" width="32" height="32" viewBox="0 0 32 32" data-tags="trophy"><g fill="#444" transform="scale(0.03125 0.03125)"><path d="M672 800v-96h-128v-128c106.054-0.092 192-85.871 192-191.778v-0.222c112-48 128-288 128-288h-672c0 0 16 240 128 288v0.222c0 105.86 86.103 191.686 192 191.778v128h-128v96h-96v128h480v-128h-96zM320 128v220.8c-75.066-53.739-92.8-220.8-92.8-220.8h92.8zM735.438 128h92.812c0 0-17.746 166.431-92.812 220.17v-220.17z" /></g></svg>