<?xml version="1.0" encoding="utf-8"?><!DOCTYPE svg PUBLIC "-//W3C//DTD SVG 1.1//EN" "http://www.w3.org/Graphics/SVG/1.1/DTD/svg11.dtd"><svg version="1.1" xmlns="http://www.w3.org/2000/svg" xmlns:xlink="http://www.w3.org/1999/xlink" width="32" height="32" viewBox="0 0 32 32" data-tags="hatenabookmark"><g fill="#444" transform="scale(0.03125 0.03125)"><path fill="rgb(0, 164, 222)" d="M873.387 0c83.2 0 150.613 67.413 150.613 150.613v722.773c0 83.2-67.413 150.613-150.613 150.613h-722.773c-83.2 0-150.613-67.413-150.613-150.613v-722.773c0-83.2 67.413-150.613 150.613-150.613zM715.307 617.387c-33.28 0-60.16 26.88-60.16 60.16s26.88 60.331 60.16 60.331 60.16-27.52 60.16-60.8-26.88-60.16-60.16-59.691zM367.36 735.872c51.2 0 87.723-1.792 110.080-5.12 22.443-3.584 41.643-9.472 56.32-17.579 19.2-9.899 33.28-24.064 43.52-42.24s15.36-39.040 15.36-63.147c0-33.28-8.96-59.861-26.88-79.787-17.92-20.48-42.24-31.317-74.24-33.877 28.16-7.68 49.323-19.2 62.123-34.56 13.44-14.677 19.84-35.157 19.84-60.757 0-20.48-4.395-37.76-12.8-53.76-8.96-15.36-21.035-27.52-37.675-37.12-14.72-8.32-31.36-13.44-51.84-17.28-19.797-3.157-55.040-5.12-105.557-5.12h-124.373v447.403h126.123zM398.763 557.312c30.080 0 50.56 3.755 61.44 11.179 11.52 7.68 16.64 21.12 16.64 39.68 0 17.28-5.76 29.44-17.92 36.48-11.52 7.68-32.64 10.837-61.44 10.837h-42.923v-98.005zM768.085 587.435v-301.227h-104.96v301.227zM380.8 387.413c30.293 0 50.56 3.413 61.099 10.24 10.453 6.827 15.659 18.56 15.659 35.413 0 16.213-5.547 27.563-16.64 34.304-11.307 6.571-31.872 9.899-61.952 9.899h-24.32v-89.856z" /></g></svg>