<?xml version="1.0" encoding="utf-8"?><!DOCTYPE svg PUBLIC "-//W3C//DTD SVG 1.1//EN" "http://www.w3.org/Graphics/SVG/1.1/DTD/svg11.dtd"><svg version="1.1" xmlns="http://www.w3.org/2000/svg" xmlns:xlink="http://www.w3.org/1999/xlink" width="24" height="24" viewBox="0 0 24 24" data-tags="bookmark"><g fill="#444" transform="scale(0.0234375 0.0234375)"><path d="M785.877 930.731c6.869 4.949 15.488 7.936 24.789 7.936 23.552 0 42.667-19.115 42.667-42.667v-682.667c0-35.328-14.379-67.413-37.504-90.496s-55.168-37.504-90.496-37.504h-426.667c-35.328 0-67.413 14.379-90.496 37.504s-37.504 55.168-37.504 90.496v682.667c-0.043 8.491 2.56 17.237 7.936 24.789 13.696 19.157 40.363 23.637 59.52 9.899l273.877-195.584zM768 813.099l-231.211-165.163c-15.147-10.837-34.944-10.325-49.579 0l-231.211 165.163v-599.765c0-11.776 4.736-22.4 12.501-30.165s18.389-12.501 30.165-12.501h426.667c11.776 0 22.4 4.736 30.165 12.501s12.501 18.389 12.501 30.165z" /></g></svg>