<?xml version="1.0" encoding="utf-8"?><!DOCTYPE svg PUBLIC "-//W3C//DTD SVG 1.1//EN" "http://www.w3.org/Graphics/SVG/1.1/DTD/svg11.dtd"><svg version="1.1" xmlns="http://www.w3.org/2000/svg" xmlns:xlink="http://www.w3.org/1999/xlink" width="18" height="18" viewBox="0 0 18 18" data-tags="trophy"><g fill="#444" transform="scale(0.017578125 0.017578125)"><path d="M967.111 170.667h-170.667v-56.889c0-31.417-25.472-56.889-56.889-56.889h-455.111c-31.417 0-56.889 25.472-56.889 56.889v56.889h-170.667c-31.417 0-56.889 25.472-56.889 56.889v113.778c0 91.445 60.612 227.556 227.556 227.556h23.833c36.555 83.636 112.114 146.334 203.723 164.958v119.486h-56.889c-62.834 0-113.778 50.944-113.778 113.778h455.111c0-62.834-50.944-113.778-113.778-113.778h-56.889v-119.486c91.607-18.624 167.166-81.323 203.723-164.958h23.833c166.944 0 227.556-136.11 227.556-227.556v-113.778c0-31.417-25.472-56.889-56.889-56.889zM227.556 455.111c-103.89 0-113.333-87.388-113.778-113.778v-56.889h113.778v170.667zM682.667 490.612l-14.306 32.695c-27.221 62.249-88.583 102.471-156.361 102.471s-129.166-40.222-156.361-102.473l-14.306-32.693v-319.945h341.333v319.945zM910.222 341.333c0 19.001-5.5 113.778-113.778 113.778v-170.667h113.778v56.889z" /><path d="M797.723 570.139c0.86 0 0.972-0.306-1.278-1.25v1.111c0.473 0.084 0.944 0.139 1.278 0.139z" /><path d="M226.277 570.139c0.334 0 0.805-0.055 1.278-0.139v-1.111c-2.251 0.944-2.139 1.25-1.278 1.25z" /></g></svg>