<?xml version="1.0" encoding="utf-8"?><!DOCTYPE svg PUBLIC "-//W3C//DTD SVG 1.1//EN" "http://www.w3.org/Graphics/SVG/1.1/DTD/svg11.dtd"><svg version="1.1" xmlns="http://www.w3.org/2000/svg" xmlns:xlink="http://www.w3.org/1999/xlink" width="32" height="32" viewBox="0 0 32 32" data-tags="award"><g fill="#444" transform="scale(0.03125 0.03125)"><path d="M320 534.666v0 0c-58.92-52.735-96-129.37-96-214.666 0-159.058 128.942-288 288-288s288 128.942 288 288c0 85.296-37.080 161.931-96 214.666v457.334l-192-192-192 192v-457.334zM352 559.502v355.697l160-160 160 160v-355.697c-45.763 30.633-100.795 48.498-160 48.498s-114.237-17.865-160-48.498v0 0zM512 576c141.385 0 256-114.615 256-256s-114.615-256-256-256c-141.385 0-256 114.615-256 256s114.615 256 256 256v0zM512 406.154l-112 73.846 48-128-96-64h112l48-128 48 128h112l-96 64 48 128-112-73.846z" /></g></svg>