<?xml version="1.0" encoding="utf-8"?><!DOCTYPE svg PUBLIC "-//W3C//DTD SVG 1.1//EN" "http://www.w3.org/Graphics/SVG/1.1/DTD/svg11.dtd"><svg version="1.1" xmlns="http://www.w3.org/2000/svg" xmlns:xlink="http://www.w3.org/1999/xlink" width="32" height="32" viewBox="0 0 32 32" data-tags="award"><g fill="#444" transform="scale(0.03125 0.03125)"><path d="M320 576.023v415.977l192-192 192 192v-415.977c-53.482 40.172-119.961 63.977-192 63.977s-138.518-23.804-192-63.977v0 0zM512 608c159.058 0 288-128.942 288-288s-128.942-288-288-288c-159.058 0-288 128.942-288 288s128.942 288 288 288v0zM512 406.154l-112 73.846 48-128-96-64h112l48-128 48 128h112l-96 64 48 128-112-73.846z" /></g></svg>