<?xml version="1.0" encoding="utf-8"?><!DOCTYPE svg PUBLIC "-//W3C//DTD SVG 1.1//EN" "http://www.w3.org/Graphics/SVG/1.1/DTD/svg11.dtd"><svg version="1.1" xmlns="http://www.w3.org/2000/svg" xmlns:xlink="http://www.w3.org/1999/xlink" width="32" height="32" viewBox="0 0 32 32" data-tags="award"><g fill="#444" transform="scale(0.03125 0.03125)"><path d="M500.044 671.749l-128.796 335.525-55.22-124.027-124.027 55.22 127.293-331.609c50.579 38.469 112.955 62.225 180.751 64.89l-0-0zM706.375 606.859l127.293 331.609-124.027-55.22-55.22 124.027-128.796-335.525c67.795-2.665 130.172-26.421 180.751-64.89v0 0zM512.834 640v0c-159.058 0-288-128.942-288-288s128.942-288 288-288c159.058 0 288 128.942 288 288s-128.942 288-288 288zM512.834 544c106.039 0 192-85.961 192-192s-85.961-192-192-192c-106.039 0-192 85.961-192 192s85.961 192 192 192v0zM512.834 512c88.366 0 160-71.634 160-160s-71.634-160-160-160c-88.366 0-160 71.634-160 160s71.634 160 160 160v0z" /></g></svg>