<?xml version="1.0" encoding="utf-8"?><!DOCTYPE svg PUBLIC "-//W3C//DTD SVG 1.1//EN" "http://www.w3.org/Graphics/SVG/1.1/DTD/svg11.dtd"><svg version="1.1" xmlns="http://www.w3.org/2000/svg" xmlns:xlink="http://www.w3.org/1999/xlink" width="32" height="32" viewBox="0 0 32 32" data-tags="award"><g fill="#444" transform="scale(0.03125 0.03125)"><path d="M512.231 639.999l-140.984 367.275-55.22-124.027-124.027 55.22 139.295-362.876c-64.959-52.806-106.462-133.352-106.462-223.591 0-159.058 128.942-288 288-288s288 128.942 288 288c0 90.239-41.503 170.785-106.462 223.591l139.295 362.876-124.027-55.22-55.22 124.027-140.984-367.275c-0.201 0-0.402 0.001-0.603 0.001s-0.402-0-0.603-0.001v0 0zM478.722 638.001v0 0c-43.999-5.192-84.96-20.303-120.587-43.034l-108.737 283.27 82.685-36.814 36.814 82.685 109.826-286.107zM667.533 594.967v0 0c-35.627 22.731-76.589 37.842-120.587 43.034l109.826 286.107 36.814-82.685 82.685 36.814-108.737-283.27zM512.834 608c141.385 0 256-114.615 256-256s-114.615-256-256-256c-141.385 0-256 114.615-256 256s114.615 256 256 256v0zM512.834 438.154l-112 73.846 48-128-96-64h112l48-128 48 128h112l-96 64 48 128-112-73.846z" /></g></svg>