<?xml version="1.0" encoding="utf-8"?><!DOCTYPE svg PUBLIC "-//W3C//DTD SVG 1.1//EN" "http://www.w3.org/Graphics/SVG/1.1/DTD/svg11.dtd"><svg version="1.1" xmlns="http://www.w3.org/2000/svg" xmlns:xlink="http://www.w3.org/1999/xlink" width="32" height="32" viewBox="0 0 32 32" data-tags="award"><g fill="#444" transform="scale(0.03125 0.03125)"><path d="M500.044 671.749l-128.796 335.525-55.22-124.027-124.027 55.22 127.293-331.609c50.579 38.469 112.955 62.225 180.751 64.89l-0-0zM706.375 606.859l127.293 331.609-124.027-55.22-55.22 124.027-128.796-335.525c67.795-2.665 130.172-26.421 180.751-64.89v0 0zM512.834 640c159.058 0 288-128.942 288-288s-128.942-288-288-288c-159.058 0-288 128.942-288 288s128.942 288 288 288v0zM512.834 438.154l-112 73.846 48-128-96-64h112l48-128 48 128h112l-96 64 48 128-112-73.846z" /></g></svg>