<?xml version="1.0" encoding="utf-8"?><!DOCTYPE svg PUBLIC "-//W3C//DTD SVG 1.1//EN" "http://www.w3.org/Graphics/SVG/1.1/DTD/svg11.dtd"><svg version="1.1" xmlns="http://www.w3.org/2000/svg" xmlns:xlink="http://www.w3.org/1999/xlink" width="32" height="32" viewBox="0 0 32 32" data-tags="bookmark-add"><g fill="#444" transform="scale(0.03125 0.03125)"><path d="M608 416v-96h32v96h96v32h-96v96h-32v-96h-96v-32h96zM640 639.394v256.606l-192-192-192 192v-672.285c0-52.778 42.94-95.715 95.909-95.715h192.182c52.977 0 95.909 42.853 95.909 95.715v0.891c-5.281-0.402-10.616-0.606-16-0.606-114.875 0-208 93.125-208 208s93.125 208 208 208c5.384 0 10.719-0.205 16-0.606v0 0zM624 608c97.202 0 176-78.798 176-176s-78.798-176-176-176c-97.202 0-176 78.798-176 176s78.798 176 176 176v0z" /></g></svg>