<?xml version="1.0" encoding="utf-8"?><!DOCTYPE svg PUBLIC "-//W3C//DTD SVG 1.1//EN" "http://www.w3.org/Graphics/SVG/1.1/DTD/svg11.dtd"><svg version="1.1" xmlns="http://www.w3.org/2000/svg" xmlns:xlink="http://www.w3.org/1999/xlink" width="32" height="32" viewBox="0 0 32 32" data-tags="bookmark-remove"><g fill="#444" transform="scale(0.03125 0.03125)"><path d="M640 607.283v0 0c89.704-8.084 160-83.474 160-175.283s-70.296-167.199-160-175.283v-33.003c0-52.862-42.932-95.715-95.909-95.715h-192.182c-52.969 0-95.909 42.937-95.909 95.715v672.285l192-192 192 192v-288.717zM608 607.283v211.917l-160-160-160 160v-595.393c0-35.057 28.648-63.806 63.988-63.806h192.025c35.59 0 63.988 28.567 63.988 63.806v32.912c-89.704 8.084-160 83.474-160 175.283s70.296 167.199 160 175.283v0 0zM624 576v0 0c-79.529 0-144-64.471-144-144s64.471-144 144-144c79.529 0 144 64.471 144 144s-64.471 144-144 144zM512 416v32h224v-32h-224z" /></g></svg>