<?xml version="1.0" encoding="utf-8"?><!DOCTYPE svg PUBLIC "-//W3C//DTD SVG 1.1//EN" "http://www.w3.org/Graphics/SVG/1.1/DTD/svg11.dtd"><svg version="1.1" xmlns="http://www.w3.org/2000/svg" xmlns:xlink="http://www.w3.org/1999/xlink" width="28" height="28" viewBox="0 0 28 28" data-code="61440" data-tags="glass"><g fill="#444" transform="scale(0.02734375 0.02734375)"><path d="M970.857 106.286c0 16.571-13.143 33.143-24.571 44.571l-361.143 361.143v438.857h182.857c20 0 36.571 16.571 36.571 36.571s-16.571 36.571-36.571 36.571h-512c-20 0-36.571-16.571-36.571-36.571s16.571-36.571 36.571-36.571h182.857v-438.857l-361.143-361.143c-11.429-11.429-24.571-28-24.571-44.571 0-28 35.429-33.143 56.571-33.143h804.571c21.143 0 56.571 5.143 56.571 33.143z" /></g></svg>