<?xml version="1.0" encoding="utf-8"?><!DOCTYPE svg PUBLIC "-//W3C//DTD SVG 1.1//EN" "http://www.w3.org/Graphics/SVG/1.1/DTD/svg11.dtd"><svg version="1.1" xmlns="http://www.w3.org/2000/svg" xmlns:xlink="http://www.w3.org/1999/xlink" width="32" height="32" viewBox="0 0 32 32" data-tags="decorate,celebrate,party,hang"><g fill="#444" transform="scale(0.03125 0.03125)"><path d="M256 320l-128-128h256l-128 128zM768 832l128-128h-256l128 128zM640 192h-256l128 128 128-128zM896 192h-256l128 128 128-128zM512 832l128-128h-256l128 128zM256 576l128-128h-256l128 128zM512 576l128-128h-256l128 128zM768 576l128-128h-256l128 128zM256 832l128-128h-256l128 128z" /></g></svg>