<?xml version="1.0" encoding="utf-8"?><!DOCTYPE svg PUBLIC "-//W3C//DTD SVG 1.1//EN" "http://www.w3.org/Graphics/SVG/1.1/DTD/svg11.dtd"><svg version="1.1" xmlns="http://www.w3.org/2000/svg" xmlns:xlink="http://www.w3.org/1999/xlink" width="18" height="18" viewBox="0 0 18 18" data-tags="bookmark"><g fill="#444" transform="scale(0.017578125 0.017578125)"><path d="M796.444 56.889h-568.889c-31.417 0-56.889 25.472-56.889 56.889v796.361c0 33.445 27.472 56.972 57.056 56.972 10.556 0 21.444-3.001 31.388-9.639l234.332-201.916c10.667-9.195 26.444-9.195 37.111 0l234.334 201.916c9.945 6.638 20.805 9.639 31.388 9.639 29.584 0 57.056-23.527 57.056-56.972v-796.361c0-31.417-25.472-56.889-56.889-56.889zM739.556 785.444l-208.999-180.082c-10.667-9.195-26.444-9.195-37.111 0l-209.001 180.082v-586.332c0-15.723 12.722-28.444 28.444-28.444h398.222c15.723 0 28.444 12.722 28.444 28.444v586.332z" /></g></svg>