<?xml version="1.0" encoding="utf-8"?><!DOCTYPE svg PUBLIC "-//W3C//DTD SVG 1.1//EN" "http://www.w3.org/Graphics/SVG/1.1/DTD/svg11.dtd"><svg version="1.1" xmlns="http://www.w3.org/2000/svg" xmlns:xlink="http://www.w3.org/1999/xlink" width="16" height="32" viewBox="0 0 16 32" data-tags="award-stroke,medal"><g fill="#444" transform="scale(0.03125 0.03125)"><path d="M256 640c-45.12 0-87.744-9.248-128-23.488v407.488l128-128 128 128v-407.488c-40.256 14.24-82.88 23.488-128 23.488zM256 0c-141.376 0-256 114.624-256 256s114.624 256 256 256 256-114.624 256-256-114.624-256-256-256zM256 384c-70.752 0-128-57.312-128-128s57.248-128 128-128 128 57.312 128 128-57.248 128-128 128z" /></g></svg>