<?xml version="1.0" encoding="utf-8"?><!DOCTYPE svg PUBLIC "-//W3C//DTD SVG 1.1//EN" "http://www.w3.org/Graphics/SVG/1.1/DTD/svg11.dtd"><svg version="1.1" xmlns="http://www.w3.org/2000/svg" xmlns:xlink="http://www.w3.org/1999/xlink" width="32" height="32" viewBox="0 0 32 32" data-tags="heart,love,favorite,like"><g fill="#444" transform="scale(0.03125 0.03125)"><path d="M736 64c-76.928 0-138.592 27.616-192.96 82.016-0.032 0.032-0.064 0.064-0.096 0.096h-0.032l-30.912 38.944-30.912-36.576c-0.032-0.032-0.064-0.064-0.096-0.096h-0.032c-54.4-54.432-116.032-84.384-192.96-84.384s-149.248 29.952-203.648 84.352c-54.368 54.4-84.352 126.72-84.352 203.648 0 76.864 29.92 149.184 84.256 203.552l382.304 385.504c12 12.128 28.384 18.944 45.44 18.944s33.44-6.816 45.44-18.944l382.272-385.504c54.336-54.368 84.288-126.656 84.288-203.552 0-76.928-29.984-149.248-84.352-203.648-54.4-54.4-126.72-84.352-203.648-84.352v0z" /></g></svg>