<?xml version="1.0" encoding="utf-8"?><!DOCTYPE svg PUBLIC "-//W3C//DTD SVG 1.1//EN" "http://www.w3.org/Graphics/SVG/1.1/DTD/svg11.dtd"><svg version="1.1" xmlns="http://www.w3.org/2000/svg" xmlns:xlink="http://www.w3.org/1999/xlink" width="32" height="32" viewBox="0 0 32 32" data-tags="drink,straw,glass"><g fill="#444" transform="scale(0.03125 0.03125)"><path d="M737.76 284.992c17.824 0 32.256 14.432 32.256 32.256l-58.464 642.976c0 17.824-14.432 32.256-32.256 32.256l-334.624 0c-17.824 0-32.256-14.432-32.256-32.256l-58.4-642.976c0-17.824 14.432-32.256 32.256-32.256h288.32l34.112-173.952 154.848-79.52-11.136 41.536-114.944 57.632-30.016 154.304h130.304zM560.448 510.752h128.928l-36.288 417.216h-282.176l-36.288-417.216h192.928l40.288-193.504h-281.6l58.432 642.976h334.592l58.464-642.976h-137.024l-40.256 193.504z" /></g></svg>