<?xml version="1.0" encoding="utf-8"?><!DOCTYPE svg PUBLIC "-//W3C//DTD SVG 1.1//EN" "http://www.w3.org/Graphics/SVG/1.1/DTD/svg11.dtd"><svg version="1.1" xmlns="http://www.w3.org/2000/svg" xmlns:xlink="http://www.w3.org/1999/xlink" width="20" height="20" viewBox="0 0 20 20" data-tags="controller-jump-to-start"><g fill="#444" transform="scale(0.01953125 0.01953125)"><path d="M765.901 234.035l-368.794 253.389c0 0-14.285 10.291-14.285 24.627s14.285 24.525 14.285 24.525l368.794 253.491c29.286 19.456 53.299 5.069 53.299-32.051v-491.981c0-37.222-24.013-51.61-53.299-32zM307.2 204.8h-51.2c-28.314 0-51.2 2.458-51.2 30.72v552.96c0 28.262 22.886 30.72 51.2 30.72h51.2c28.314 0 51.2-2.458 51.2-30.72v-552.96c0-28.262-22.886-30.72-51.2-30.72z" /></g></svg>