<?xml version="1.0" encoding="utf-8"?><!DOCTYPE svg PUBLIC "-//W3C//DTD SVG 1.1//EN" "http://www.w3.org/Graphics/SVG/1.1/DTD/svg11.dtd"><svg version="1.1" xmlns="http://www.w3.org/2000/svg" xmlns:xlink="http://www.w3.org/1999/xlink" width="32" height="32" viewBox="0 0 32 32" data-tags="coffee,cup,drink,break"><g fill="#444" transform="scale(0.03125 0.03125)"><path d="M959.488 497.536c-12.096-116.448-130.016-115.776-191.264-113.696 0.288-17.696 0.48-31.968 0.48-31.968l-704.864-0.224c0 0 0 96.448 0 98.848 0 136.992 78.24 255.488 192.352 313.888v34.176h320.608v-34.176c32-16.384 60.704-37.888 86.112-62.752 157.28-37.632 322.24-91.936 296.576-204.096zM712 642.112c35.936-55.2 57.152-120.8 57.152-191.616 0 0.544 0.032-0.928 0.064-3.712 57.12-1.888 120.16-7.584 134.432 49.28 14.336 62.56-90.144 113.504-191.648 146.048zM282.56 223.68c0 32-52.48 66.080-52.48 66.080s102.848-18.368 102.848-66.368-101.984-16-101.984-52 50.464-70.080 50.464-70.080-96.8 20.384-96.8 70.368 97.952 20 97.952 52zM442.56 255.68c0 32-52.48 66.080-52.48 66.080s102.848-18.368 102.848-66.368-101.984-16-101.984-52 50.464-70.080 50.464-70.080-96.832 20.384-96.832 70.368 97.984 20 97.984 52zM570.56 223.68c0 32-52.48 66.080-52.48 66.080s102.848-18.368 102.848-66.368-101.984-16-101.984-52 50.464-70.080 50.464-70.080-96.832 20.384-96.832 70.368 97.984 20 97.984 52zM61.856 829.696c0 44.192 157.6 80 352 80s352-35.808 352-80c0 0.928-704 0.928-704 0z" /></g></svg>