<?xml version="1.0" encoding="utf-8"?><!DOCTYPE svg PUBLIC "-//W3C//DTD SVG 1.1//EN" "http://www.w3.org/Graphics/SVG/1.1/DTD/svg11.dtd"><svg version="1.1" xmlns="http://www.w3.org/2000/svg" xmlns:xlink="http://www.w3.org/1999/xlink" width="24" height="28" viewBox="0 0 24 28" data-code="62033" data-tags="hourglass-1,hourglass-start"><g fill="#444" transform="scale(0.02734375 0.02734375)"><path d="M804.571 73.143c0 211.429-101.143 364.571-213.143 438.857 112 74.286 213.143 227.429 213.143 438.857h54.857c10.286 0 18.286 8 18.286 18.286v36.571c0 10.286-8 18.286-18.286 18.286h-841.143c-10.286 0-18.286-8-18.286-18.286v-36.571c0-10.286 8-18.286 18.286-18.286h54.857c0-211.429 101.143-364.571 213.143-438.857-112-74.286-213.143-227.429-213.143-438.857h-54.857c-10.286 0-18.286-8-18.286-18.286v-36.571c0-10.286 8-18.286 18.286-18.286h841.143c10.286 0 18.286 8 18.286 18.286v36.571c0 10.286-8 18.286-18.286 18.286h-54.857zM731.429 73.143h-585.143c0 25.143 1.714 49.714 5.143 73.143h574.857c3.429-23.429 5.143-48 5.143-73.143zM731.429 950.857c0-205.143-113.143-356.571-226.857-402.286h-131.429c-113.714 45.714-226.857 197.143-226.857 402.286h585.143z" /></g></svg>