<?xml version="1.0" encoding="utf-8"?><!DOCTYPE svg PUBLIC "-//W3C//DTD SVG 1.1//EN" "http://www.w3.org/Graphics/SVG/1.1/DTD/svg11.dtd"><svg version="1.1" xmlns="http://www.w3.org/2000/svg" xmlns:xlink="http://www.w3.org/1999/xlink" width="24" height="28" viewBox="0 0 24 28" data-code="62035" data-tags="hourglass-3,hourglass-end"><g fill="#444" transform="scale(0.02734375 0.02734375)"><path d="M804.571 73.143c0 211.429-101.143 364.571-213.143 438.857 112 74.286 213.143 227.429 213.143 438.857h54.857c10.286 0 18.286 8 18.286 18.286v36.571c0 10.286-8 18.286-18.286 18.286h-841.143c-10.286 0-18.286-8-18.286-18.286v-36.571c0-10.286 8-18.286 18.286-18.286h54.857c0-211.429 101.143-364.571 213.143-438.857-112-74.286-213.143-227.429-213.143-438.857h-54.857c-10.286 0-18.286-8-18.286-18.286v-36.571c0-10.286 8-18.286 18.286-18.286h841.143c10.286 0 18.286 8 18.286 18.286v36.571c0 10.286-8 18.286-18.286 18.286h-54.857zM499.429 477.714c115.429-43.429 232-196 232-404.571h-585.143c0 208.571 116.571 361.143 232 404.571 14.286 5.143 24 18.857 24 34.286s-9.714 29.143-24 34.286c-49.143 18.286-98.857 57.143-139.429 112h400c-40.571-54.857-90.286-93.714-139.429-112-14.286-5.143-24-18.857-24-34.286s9.714-29.143 24-34.286z" /></g></svg>