<?xml version="1.0" encoding="utf-8"?><!DOCTYPE svg PUBLIC "-//W3C//DTD SVG 1.1//EN" "http://www.w3.org/Graphics/SVG/1.1/DTD/svg11.dtd"><svg version="1.1" xmlns="http://www.w3.org/2000/svg" xmlns:xlink="http://www.w3.org/1999/xlink" width="24" height="28" viewBox="0 0 24 28" data-code="62036" data-tags="hourglass"><g fill="#444" transform="scale(0.02734375 0.02734375)"><path d="M859.429 914.286c10.286 0 18.286 8 18.286 18.286v73.143c0 10.286-8 18.286-18.286 18.286h-841.143c-10.286 0-18.286-8-18.286-18.286v-73.143c0-10.286 8-18.286 18.286-18.286h841.143zM74.286 877.714c10.857-192.571 168-296 273.143-365.714-105.143-69.714-262.286-173.143-273.143-365.714h729.143c-10.857 192.571-168 296-273.143 365.714 105.143 69.714 262.286 173.143 273.143 365.714h-729.143zM859.429 0c10.286 0 18.286 8 18.286 18.286v73.143c0 10.286-8 18.286-18.286 18.286h-841.143c-10.286 0-18.286-8-18.286-18.286v-73.143c0-10.286 8-18.286 18.286-18.286h841.143z" /></g></svg>