<?xml version="1.0" encoding="utf-8"?><!DOCTYPE svg PUBLIC "-//W3C//DTD SVG 1.1//EN" "http://www.w3.org/Graphics/SVG/1.1/DTD/svg11.dtd"><svg version="1.1" xmlns="http://www.w3.org/2000/svg" xmlns:xlink="http://www.w3.org/1999/xlink" width="32" height="32" viewBox="0 0 32 32" data-code="57399" data-tags="magnifying-glass,search,glass,magnifier,lookup"><g fill="#444" transform="scale(0.03125 0.03125)"><path d="M336 0c-185.28 0-336 150.72-336 336s150.72 336 336 336c87.2 0 166.496-33.664 226.272-88.32 0.704 1.248 1.344 2.56 2.432 3.648l68.832 68.832c-5.76 9.728-9.024 20.736-9.024 32.352 0 17.088 6.656 33.152 18.752 45.248l271.52 271.52c12.064 12.064 28.128 18.72 45.216 18.72s33.152-6.656 45.248-18.752 18.752-28.16 18.752-45.248-6.656-33.152-18.752-45.248l-271.52-271.52c-20.288-20.288-53.088-23.328-77.44-9.568l-68.96-68.96c-1.088-1.088-2.368-1.728-3.648-2.432 54.656-59.776 88.32-139.072 88.32-226.272 0-185.28-150.72-336-336-336zM711.104 665.856l271.52 271.52c6.048 6.048 9.376 14.080 9.376 22.624s-3.328 16.576-9.376 22.624c-12.128 12.064-33.12 12.064-45.248 0l-271.52-271.52c-6.016-6.048-9.376-14.080-9.376-22.624s3.328-16.576 9.376-22.624c6.048-6.016 14.080-9.376 22.624-9.376s16.544 3.328 22.624 9.376zM336 640c-167.616 0-304-136.384-304-304s136.384-304 304-304 304 136.384 304 304-136.384 304-304 304zM336 96c-132.352 0-240 107.648-240 240s107.648 240 240 240 240-107.648 240-240-107.648-240-240-240zM336 544c-114.688 0-208-93.312-208-208s93.312-208 208-208 208 93.312 208 208-93.312 208-208 208z" /></g></svg>