<?xml version="1.0" encoding="utf-8"?><!DOCTYPE svg PUBLIC "-//W3C//DTD SVG 1.1//EN" "http://www.w3.org/Graphics/SVG/1.1/DTD/svg11.dtd"><svg version="1.1" xmlns="http://www.w3.org/2000/svg" xmlns:xlink="http://www.w3.org/1999/xlink" width="32" height="32" viewBox="0 0 32 32" data-tags="flashed-face-glasses"><g fill="#444" transform="scale(0.03125 0.03125)"><path d="M297.515 374.279l-78.067-46.907c65.651-100.761 179.322-167.372 308.551-167.372s242.9 66.611 308.551 167.372l-78.067 46.907v0c-15.524-32.122-48.417-54.279-86.485-54.279-41.799 0-77.359 26.714-90.537 64h-106.925c-13.179-37.286-48.738-64-90.537-64-38.068 0-70.96 22.157-86.485 54.279zM288.495 406.191c-0.327 3.225-0.495 6.497-0.495 9.809 0 53.019 42.981 96 96 96s96-42.981 96-96v0h96c0 53.019 42.981 96 96 96s96-42.981 96-96c0-3.311-0.168-6.584-0.495-9.809l85.333-51.273c27.546 51.591 43.162 110.513 43.162 173.082 0 203.241-164.759 368-368 368s-368-164.759-368-368c0-62.569 15.615-121.492 43.162-173.082l85.333 51.273zM528 928c220.914 0 400-179.086 400-400s-179.086-400-400-400c-220.914 0-400 179.086-400 400s179.086 400 400 400v0zM384 480v0c-35.346 0-64-28.654-64-64s28.654-64 64-64c35.346 0 64 28.654 64 64s-28.654 64-64 64zM672 480v0c-35.346 0-64-28.654-64-64s28.654-64 64-64c35.346 0 64 28.654 64 64s-28.654 64-64 64zM384 448c17.673 0 32-14.327 32-32s-14.327-32-32-32c-17.673 0-32 14.327-32 32s14.327 32 32 32v0zM672 448c17.673 0 32-14.327 32-32s-14.327-32-32-32c-17.673 0-32 14.327-32 32s14.327 32 32 32v0zM528 768v0c-44.183 0-80-35.817-80-80s35.817-80 80-80c44.183 0 80 35.817 80 80s-35.817 80-80 80zM528 736c26.51 0 48-21.49 48-48s-21.49-48-48-48c-26.51 0-48 21.49-48 48s21.49 48 48 48v0z" /></g></svg>