<?xml version="1.0" encoding="utf-8"?><!DOCTYPE svg PUBLIC "-//W3C//DTD SVG 1.1//EN" "http://www.w3.org/Graphics/SVG/1.1/DTD/svg11.dtd"><svg version="1.1" xmlns="http://www.w3.org/2000/svg" xmlns:xlink="http://www.w3.org/1999/xlink" width="32" height="32" viewBox="0 0 32 32" data-tags="flashed-face-glasses"><g fill="#444" transform="scale(0.03125 0.03125)"><path d="M294.226 381.916c13.749-36.194 48.757-61.916 89.774-61.916 41.799 0 77.359 26.714 90.537 64h106.925c13.179-37.286 48.738-64 90.537-64 41.016 0 76.025 25.723 89.774 61.916v0l106.636-64.073c-70.49-113.937-196.585-189.843-340.409-189.843s-269.919 75.906-340.409 189.843l106.636 64.073zM288.001 415.508c-0.001 0.164-0.001 0.328-0.001 0.492 0 53.019 42.981 96 96 96s96-42.981 96-96v0h96c0 53.019 42.981 96 96 96s96-42.981 96-96c0-0.164-0-0.328-0.001-0.492l116.149-69.789c28.034 54.664 43.852 116.625 43.852 182.281 0 220.914-179.086 400-400 400s-400-179.086-400-400c0-65.656 15.819-127.618 43.852-182.281l116.149 69.789zM384 480c-35.346 0-64-28.654-64-64s28.654-64 64-64c35.346 0 64 28.654 64 64s-28.654 64-64 64zM672 480c-35.346 0-64-28.654-64-64s28.654-64 64-64c35.346 0 64 28.654 64 64s-28.654 64-64 64zM384 448c17.673 0 32-14.327 32-32s-14.327-32-32-32c-17.673 0-32 14.327-32 32s14.327 32 32 32zM672 448c17.673 0 32-14.327 32-32s-14.327-32-32-32c-17.673 0-32 14.327-32 32s14.327 32 32 32zM528 768c44.183 0 80-35.817 80-80s-35.817-80-80-80c-44.183 0-80 35.817-80 80s35.817 80 80 80z" /></g></svg>