<?xml version="1.0" encoding="utf-8"?><!DOCTYPE svg PUBLIC "-//W3C//DTD SVG 1.1//EN" "http://www.w3.org/Graphics/SVG/1.1/DTD/svg11.dtd"><svg version="1.1" xmlns="http://www.w3.org/2000/svg" xmlns:xlink="http://www.w3.org/1999/xlink" width="32" height="32" viewBox="0 0 32 32" data-tags="cake,cup cake"><g fill="#444" transform="scale(0.03125 0.03125)"><path d="M816 288c-9.44 0-18.56 1.184-27.424 3.104-3.936-58.272-51.968-104.448-111.232-104.448-13.28 0-25.856 2.72-37.664 6.976-36.8-58.496-101.504-97.632-175.68-97.632-112.704 0-203.936 89.824-207.36 201.696-15.008-6.176-31.392-9.696-48.64-9.696-70.688 0-128 57.312-128 128 0 68.864 54.496 124.608 122.656 127.424l51.328-51.328 51.904 51.904h24.256l51.872-51.904 51.872 51.904h24.256l51.872-51.904 51.872 51.904h24.256l51.872-51.904 51.872 51.904h24.256l51.872-51.904 51.712 51.712c69.856-0.928 126.272-57.696 126.272-127.808 0-70.688-57.312-128-128-128zM768 530.112l-45.888 45.888h-40.256l-43.872-43.872-43.872 43.872h-40.256l-43.872-43.872-43.872 43.872h-40.256l-43.872-43.872-43.872 43.872h-40.224l-43.872-43.872-43.904 43.872h-2.112l84.8 352h436l87.2-352h-2.112l-45.888-45.888zM368 896l-66.656-288h32l66.656 288h-32zM432 896l-33.984-288h32l33.984 288h-32zM528 896h-32v-288h32v288zM560 896l33.984-288h32l-33.984 288h-32zM656 896h-32l65.984-288h32l-65.984 288z" /></g></svg>