<?xml version="1.0" encoding="utf-8"?><!DOCTYPE svg PUBLIC "-//W3C//DTD SVG 1.1//EN" "http://www.w3.org/Graphics/SVG/1.1/DTD/svg11.dtd"><svg version="1.1" xmlns="http://www.w3.org/2000/svg" xmlns:xlink="http://www.w3.org/1999/xlink" width="16" height="16" viewBox="0 0 16 16" data-tags="heart,love,like,favorite"><g fill="#444" transform="scale(0.015625 0.015625)"><path d="M1024 384c0 283.938-512 640-512 640s-512-356.062-512-640c-0.562-28.312 2.376-60.062 0-96-10.562-158.688 128.938-288 288-288 91.062 0 171.25 62.062 224 128 52.75-65.938 132.938-128 224-128 159.062 0 298.562 129.312 288 288-2.376 35.938 0.562 67.688 0 96zM896 288c7.938-88-71.624-160-160-160-165.812 0-160 128-160 128 0 35.376-28.624 64-64 64s-64-28.624-64-64c0 0 5.812-128-160-128-88.376 0-167.938 72-160 160 3.25 36.124-2.062 69.25 0.876 96-0.062 0-0.75 0-0.876 0 4-0.938-22 188.562 383.25 478.438 0.312-0.188 0.5-0.376 0.75-0.562 0.25 0.188 0.438 0.376 0.75 0.562 405.25-289.876 379.25-479.376 383.25-478.438-0.124 0-0.812 0-0.876 0 2.938-26.75-2.374-59.876 0.876-96z" /></g></svg>