<?xml version="1.0" encoding="utf-8"?><!DOCTYPE svg PUBLIC "-//W3C//DTD SVG 1.1//EN" "http://www.w3.org/Graphics/SVG/1.1/DTD/svg11.dtd"><svg version="1.1" xmlns="http://www.w3.org/2000/svg" xmlns:xlink="http://www.w3.org/1999/xlink" width="32" height="32" viewBox="0 0 32 32" data-tags="star"><g fill="#444" transform="scale(0.03125 0.03125)"><path d="M406.752 830.88c-210.496 167.68-267.264 127.136-170.272-121.824-270.4 13.952-292.096-51.808-65.056-197.056-227.040-145.28-205.344-210.976 65.056-197.088-96.96-248.928-40.192-289.536 170.272-121.792 70.144-257.472 140.32-257.472 210.496 0 210.464-167.744 267.264-127.136 170.24 121.792 270.432-13.888 292.096 51.808 65.056 197.088 227.040 145.248 205.376 211.008-65.056 197.056 96.992 248.928 40.224 289.504-170.24 121.824-70.144 257.504-140.352 257.504-210.496 0z" /></g></svg>