<?xml version="1.0" encoding="utf-8"?><!DOCTYPE svg PUBLIC "-//W3C//DTD SVG 1.1//EN" "http://www.w3.org/Graphics/SVG/1.1/DTD/svg11.dtd"><svg version="1.1" xmlns="http://www.w3.org/2000/svg" xmlns:xlink="http://www.w3.org/1999/xlink" width="32" height="32" viewBox="0 0 32 32" data-tags="book-bookmark"><g fill="#444" transform="scale(0.03125 0.03125)"><path d="M480 256h-128v672h480v-672h-16.15c-26.427 0-47.85-21.306-47.85-48 0-26.51 21.667-48 47.85-48h16.15v-32h-560.238c-44.052 0-79.762 35.509-79.762 80v624.017c0 53.010 42.986 95.983 95.814 95.983h32.186v-672h-48.212c-26.436 0-47.788-21.49-47.788-48 0-26.694 21.395-48 47.788-48h480.212c0 0-16 23.572-16 47.154s16 48.846 16 48.846h-80v384l-96-96-96 96v-384zM512 256v307.199l64-64 64 64v-307.199h-128z" /></g></svg>