<?xml version="1.0" encoding="utf-8"?><!DOCTYPE svg PUBLIC "-//W3C//DTD SVG 1.1//EN" "http://www.w3.org/Graphics/SVG/1.1/DTD/svg11.dtd"><svg version="1.1" xmlns="http://www.w3.org/2000/svg" xmlns:xlink="http://www.w3.org/1999/xlink" width="24" height="24" viewBox="0 0 24 24" data-tags="event_busy"><g fill="#444" transform="scale(0.0234375 0.0234375)"><path d="M810 810v-468h-596v468h596zM810 128q34 0 60 26t26 60v596q0 34-26 60t-60 26h-596q-36 0-61-25t-25-61v-596q0-34 25-60t61-26h42v-86h86v86h340v-86h86v86h42zM398 726l-46-46 104-104-104-104 46-46 104 104 104-104 44 46-104 104 104 104-44 46-104-104z" /></g></svg>