<?xml version="1.0" encoding="utf-8"?><!DOCTYPE svg PUBLIC "-//W3C//DTD SVG 1.1//EN" "http://www.w3.org/Graphics/SVG/1.1/DTD/svg11.dtd"><svg version="1.1" xmlns="http://www.w3.org/2000/svg" xmlns:xlink="http://www.w3.org/1999/xlink" width="32" height="32" viewBox="0 0 32 32" data-tags="face-glasses"><g fill="#444" transform="scale(0.03125 0.03125)"><path d="M835.522 325.801v0 0c-78.137-8.787-207.455-7.843-301.44 15.703-2.053 0.427-4.070 0.8-6.082 1.113-2.013-0.313-4.029-0.686-6.082-1.113-93.985-23.545-223.303-24.49-301.44-15.703v0c65.806-99.882 178.966-165.801 307.522-165.801s241.716 65.92 307.522 165.801zM859.391 367.794c23.457 48.431 36.609 102.783 36.609 160.206 0 203.241-164.759 368-368 368s-368-164.759-368-368c0-57.423 13.152-111.775 36.609-160.206 0.479 0.444 1.005 0.727 1.581 0.821 14.692 5.402 20.961 18.881 20.961 18.881s4.387 11.961 17.127 60.603c12.74 48.642 43.113 54.475 43.113 54.475s37.175 8.363 80.059 8.363c42.884 0 68.537-1.773 96.001-14.261s39.468-47.269 39.468-47.269c0 0 13.837-29.97 23.364-58.249 1.446-4.291 5.23-7.209 9.718-9.077 4.488 1.868 8.272 4.785 9.718 9.077 9.526 28.279 23.364 58.249 23.364 58.249s12.004 34.781 39.468 47.269c27.464 12.488 53.117 14.261 96.001 14.261s80.059-8.363 80.059-8.363c0 0 30.373-5.833 43.113-54.475s17.127-60.603 17.127-60.603c0 0 6.268-13.479 20.961-18.881 0.576-0.095 1.102-0.377 1.581-0.821v0 0zM528 928c220.914 0 400-179.086 400-400s-179.086-400-400-400c-220.914 0-400 179.086-400 400s179.086 400 400 400v0zM527.402 704c-111.402 0-175.402-64-175.402-64v32c0 0 64 64 175.402 64s176.598-64 176.598-64v-32c0 0-65.195 64-176.598 64v0zM270.084 362.148v0c15.821-10.234 74.035-10.503 94.52-10.005s58.011 3.491 94.458 14.53c36.447 11.039 14.836 48.59 12.007 56.665-4.099 11.699-16.978 32.576-30.466 41.186s-43.12 15.476-80.364 15.476c-21.628 0-39.184-0.922-56.467-4.444s-25.886-6.653-36.047-26.563c-4.398-8.617-8.121-22.731-9.651-32.973s-7.547-41.222 12.009-53.872zM785.916 362.148c19.556 12.65 13.539 43.63 12.009 53.872s-5.254 24.356-9.651 32.973c-10.161 19.91-18.764 23.041-36.047 26.563s-34.839 4.444-56.467 4.444c-37.243 0-66.876-6.866-80.364-15.476s-26.367-29.487-30.466-41.186c-2.829-8.075-24.44-45.626 12.007-56.665s73.973-14.032 94.458-14.53c20.485-0.498 78.699-0.229 94.52 10.005v0zM384 448c17.673 0 32-14.327 32-32s-14.327-32-32-32c-17.673 0-32 14.327-32 32s14.327 32 32 32v0zM672 448c17.673 0 32-14.327 32-32s-14.327-32-32-32c-17.673 0-32 14.327-32 32s14.327 32 32 32v0z" /></g></svg>