<?xml version="1.0" encoding="utf-8"?><!DOCTYPE svg PUBLIC "-//W3C//DTD SVG 1.1//EN" "http://www.w3.org/Graphics/SVG/1.1/DTD/svg11.dtd"><svg version="1.1" xmlns="http://www.w3.org/2000/svg" xmlns:xlink="http://www.w3.org/1999/xlink" width="32" height="32" viewBox="0 0 32 32" data-tags="face-glasses"><g fill="#444" transform="scale(0.03125 0.03125)"><path d="M528 342.617v0c2.013-0.313 4.029-0.686 6.082-1.113 102.487-25.675 246.989-24.476 321.325-13.089 8.976 1.375 10.386 38.887 2.402 40.2-14.692 5.402-20.961 18.881-20.961 18.881s-4.387 11.961-17.127 60.603c-12.74 48.642-43.113 54.475-43.113 54.475s-37.175 8.363-80.059 8.363c-42.884 0-68.537-1.773-96.001-14.261s-39.468-47.269-39.468-47.269c0 0-13.837-29.97-23.364-58.249-1.446-4.291-5.23-7.209-9.718-9.077-4.488 1.868-8.272 4.785-9.718 9.077-9.526 28.279-23.364 58.249-23.364 58.249s-12.004 34.781-39.468 47.269c-27.464 12.488-53.117 14.261-96.001 14.261s-80.059-8.363-80.059-8.363c0 0-30.373-5.833-43.113-54.475s-17.127-60.603-17.127-60.603c0 0-6.268-13.479-20.961-18.881-7.983-1.312-6.574-38.825 2.402-40.2 74.336-11.387 218.838-12.587 321.325 13.089 2.053 0.427 4.070 0.8 6.082 1.113zM528 928c220.914 0 400-179.086 400-400s-179.086-400-400-400c-220.914 0-400 179.086-400 400s179.086 400 400 400zM527.402 704c111.402 0 176.598-64 176.598-64v32c0 0-65.195 64-176.598 64s-175.402-64-175.402-64v-32c0 0 64 64 175.402 64zM270.084 362.148c15.821-10.234 74.035-10.503 94.52-10.005s58.011 3.491 94.458 14.53c36.447 11.039 14.836 48.59 12.007 56.665-4.099 11.699-16.978 32.576-30.466 41.186s-43.12 15.476-80.364 15.476c-21.628 0-39.184-0.922-56.467-4.444s-25.886-6.653-36.047-26.563c-4.398-8.617-8.121-22.731-9.651-32.973s-7.547-41.222 12.009-53.872zM785.916 362.148c19.556 12.65 13.539 43.63 12.009 53.872s-5.254 24.356-9.651 32.973c-10.161 19.91-18.764 23.041-36.047 26.563s-34.839 4.444-56.467 4.444c-37.243 0-66.876-6.866-80.364-15.476s-26.367-29.487-30.466-41.186c-2.829-8.075-24.44-45.626 12.007-56.665s73.973-14.032 94.458-14.53c20.485-0.498 78.699-0.229 94.52 10.005zM384 448c17.673 0 32-14.327 32-32s-14.327-32-32-32c-17.673 0-32 14.327-32 32s14.327 32 32 32zM672 448c17.673 0 32-14.327 32-32s-14.327-32-32-32c-17.673 0-32 14.327-32 32s14.327 32 32 32z" /></g></svg>