<?xml version="1.0" encoding="utf-8"?><!DOCTYPE svg PUBLIC "-//W3C//DTD SVG 1.1//EN" "http://www.w3.org/Graphics/SVG/1.1/DTD/svg11.dtd"><svg version="1.1" xmlns="http://www.w3.org/2000/svg" xmlns:xlink="http://www.w3.org/1999/xlink" width="32" height="32" viewBox="0 0 32 32" data-tags="cogs,settings,gears,options,generate"><g fill="#444" transform="scale(0.03125 0.03125)"><path d="M680.576 705.248l22.688-22.688c25.056-25.056 25.056-65.696 0-90.752l-39.168-39.136c12.608-21.952 22.496-45.568 29.376-70.496h42.368c35.424 0 64.16-28.736 64.16-64.16v-32.064c0-35.424-28.704-64.16-64.16-64.16h-41.856c-6.656-24.672-16.096-48.16-28.384-69.952l37.664-37.632c25.056-25.056 25.056-65.696 0-90.752l-22.688-22.656c-25.056-25.056-65.696-25.056-90.752 0l-36.896 36.896c-22.56-13.152-46.944-23.392-72.704-30.432l-0-43.104c-0.032-35.456-28.768-64.16-64.192-64.16h-32.064c-35.424 0-64.192 28.704-64.192 64.16v43.104c-25.76 7.040-50.112 17.28-72.704 30.432l-36.928-36.928c-25.024-25.056-65.664-25.056-90.72 0l-22.688 22.656c-25.056 25.056-25.056 65.696 0 90.752l37.632 37.664c-12.256 21.792-21.76 45.28-28.384 69.984l-41.824-0c-35.456-0.032-64.16 28.704-64.16 64.16v32.064c0 35.424 28.704 64.16 64.16 64.16h42.336c6.912 24.928 16.768 48.544 29.408 70.496l-39.168 39.136c-25.056 25.056-25.056 65.696 0 90.752l22.688 22.688c25.056 25.056 65.696 25.056 90.72 0l39.392-39.392c21.888 12.448 45.408 22.144 70.208 28.896v41.088c0 35.392 28.736 64.16 64.192 64.16h32.064c35.424 0 64.16-28.736 64.16-64.16v-41.088c24.8-6.752 48.384-16.48 70.208-28.896l39.392 39.392c25.12 25.024 65.728 25.024 90.816-0.032zM400 579.424c-97.44 0-176.448-78.976-176.448-176.448 0-97.44 79.008-176.448 176.448-176.448s176.448 79.008 176.448 176.448c0 97.472-79.008 176.448-176.448 176.448zM400 320.8c-44.32 0-80.224 35.904-80.224 80.192s35.904 80.192 80.224 80.192c44.288 0 80.192-35.904 80.192-80.192s-35.904-80.192-80.192-80.192zM801.984 923.584c-21.504 0-38.912 17.408-38.912 38.912 0 21.472 17.408 38.88 38.912 38.88 21.472 0 38.912-17.408 38.912-38.88-0-21.504-17.44-38.912-38.912-38.912zM964.864 924.064h-20.288c-3.232-11.968-7.84-23.36-13.792-33.952l18.24-18.24c12.16-12.16 12.16-31.872 0-44l-11.008-11.008c-12.16-12.16-31.84-12.16-44 0l-17.92 17.888c-10.944-6.368-22.784-11.328-35.264-14.752v-20.864c0-17.184-13.952-31.136-31.136-31.136h-15.552c-17.184 0-31.136 13.952-31.136 31.136v20.864c-12.512 3.424-24.32 8.384-35.264 14.752l-17.92-17.888c-12.16-12.16-31.872-12.16-44 0l-11.008 11.008c-12.16 12.128-12.16 31.84 0 44l18.24 18.24c-5.984 10.56-10.56 21.984-13.792 33.952h-20.288c-17.184 0-31.136 13.952-31.136 31.136v15.552c0 17.184 13.952 31.136 31.136 31.136h20.544c3.328 12.064 8.128 23.52 14.24 34.176l-18.976 18.976c-12.16 12.16-12.16 31.84 0 44.032l11.008 11.008c12.128 12.128 31.84 12.128 44 0l19.104-19.136c10.624 6.016 22.016 10.752 34.048 14.016v19.936c0 17.184 13.952 31.136 31.136 31.136h15.552c17.184 0 31.136-13.952 31.136-31.136v-19.936c12.032-3.264 23.424-7.968 34.016-14.016l19.136 19.136c12.16 12.128 31.84 12.128 44 0l11.008-11.008c12.16-12.192 12.16-31.872 0-44.032l-18.976-18.976c6.080-10.656 10.912-22.112 14.24-34.176h20.544c17.184 0 31.136-13.952 31.136-31.136v-15.552c0.128-17.216-13.824-31.136-31.008-31.136zM801.984 1049.024c-47.264 0-85.568-38.304-85.568-85.6 0-47.264 38.304-85.568 85.568-85.568s85.568 38.304 85.568 85.568c0 47.296-38.304 85.6-85.568 85.6z" /></g></svg>