<?xml version="1.0" encoding="utf-8"?><!DOCTYPE svg PUBLIC "-//W3C//DTD SVG 1.1//EN" "http://www.w3.org/Graphics/SVG/1.1/DTD/svg11.dtd"><svg version="1.1" xmlns="http://www.w3.org/2000/svg" xmlns:xlink="http://www.w3.org/1999/xlink" width="37" height="32" viewBox="0 0 37 32" data-code="57418" data-tags="heart,love,like,favorite"><g fill="#444" transform="scale(0.03125 0.03125)"><path d="M864 0c-79.232 0-155.392 29.472-214.528 83.040-22.464 20.32-41.696 43.424-57.472 68.928-15.776-25.504-35.008-48.608-57.472-68.96-59.136-53.536-135.296-83.008-214.528-83.008-176.448 0-320 143.552-320 320 0 119.104 37.056 213.12 123.872 314.4 126.144 147.2 445.408 371.84 458.944 381.344 2.752 1.952 5.984 2.912 9.184 2.912s6.432-0.96 9.184-2.912c13.536-9.504 332.8-234.144 458.976-381.344 86.784-101.28 123.84-195.296 123.84-314.4 0-176.448-143.552-320-320-320zM1035.872 613.6c-111.84 130.432-389.76 330.912-443.872 369.44-54.112-38.528-332.032-239.008-443.84-369.44-81.44-95.008-116.16-182.816-116.16-293.6 0-158.816 129.216-288 288-288 71.264 0 139.84 26.528 193.024 74.72 26.816 24.32 48.576 52.992 64.64 85.248 5.44 10.88 23.232 10.88 28.672 0 16.064-32.256 37.824-60.928 64.64-85.216 53.184-48.224 121.76-74.752 193.024-74.752 158.784 0 288 129.184 288 288 0 110.784-34.72 198.592-116.128 293.6z" /></g></svg>