<?xml version="1.0" encoding="utf-8"?><!DOCTYPE svg PUBLIC "-//W3C//DTD SVG 1.1//EN" "http://www.w3.org/Graphics/SVG/1.1/DTD/svg11.dtd"><svg version="1.1" xmlns="http://www.w3.org/2000/svg" xmlns:xlink="http://www.w3.org/1999/xlink" width="24" height="24" viewBox="0 0 24 24" data-tags="cpu"><g fill="#444" transform="scale(0.0234375 0.0234375)"><path d="M256 213.333h512c11.776 0 22.4 4.736 30.165 12.501s12.501 18.389 12.501 30.165v512c0 11.776-4.736 22.4-12.501 30.165s-18.389 12.501-30.165 12.501h-512c-11.776 0-22.4-4.736-30.165-12.501s-12.501-18.389-12.501-30.165v-512c0-11.776 4.736-22.4 12.501-30.165s18.389-12.501 30.165-12.501zM384 341.333c-23.552 0-42.667 19.115-42.667 42.667v256c0 23.552 19.115 42.667 42.667 42.667h256c23.552 0 42.667-19.115 42.667-42.667v-256c0-23.552-19.115-42.667-42.667-42.667zM426.667 426.667h170.667v170.667h-170.667zM42.667 640h85.333v128c0 35.328 14.379 67.413 37.504 90.496s55.168 37.504 90.496 37.504h85.333v85.333c0 23.552 19.115 42.667 42.667 42.667s42.667-19.115 42.667-42.667v-85.333h170.667v85.333c0 23.552 19.115 42.667 42.667 42.667s42.667-19.115 42.667-42.667v-85.333h85.333c35.328 0 67.413-14.379 90.496-37.504s37.504-55.168 37.504-90.496v-128h85.333c23.552 0 42.667-19.115 42.667-42.667s-19.115-42.667-42.667-42.667h-85.333v-128h85.333c23.552 0 42.667-19.115 42.667-42.667s-19.115-42.667-42.667-42.667h-85.333v-85.333c0-35.328-14.379-67.413-37.504-90.496s-55.168-37.504-90.496-37.504h-85.333v-85.333c0-23.552-19.115-42.667-42.667-42.667s-42.667 19.115-42.667 42.667v85.333h-170.667v-85.333c0-23.552-19.115-42.667-42.667-42.667s-42.667 19.115-42.667 42.667v85.333h-85.333c-35.328 0-67.413 14.379-90.496 37.504s-37.504 55.168-37.504 90.496v85.333h-85.333c-23.552 0-42.667 19.115-42.667 42.667s19.115 42.667 42.667 42.667h85.333v128h-85.333c-23.552 0-42.667 19.115-42.667 42.667s19.115 42.667 42.667 42.667z" /></g></svg>