<?xml version="1.0" encoding="utf-8"?><!DOCTYPE svg PUBLIC "-//W3C//DTD SVG 1.1//EN" "http://www.w3.org/Graphics/SVG/1.1/DTD/svg11.dtd"><svg version="1.1" xmlns="http://www.w3.org/2000/svg" xmlns:xlink="http://www.w3.org/1999/xlink" width="32" height="32" viewBox="0 0 32 32" data-tags="trophy,cup,prize,tournament"><g fill="#444" transform="scale(0.03125 0.03125)"><path d="M784 0h-544c-132.576 0-240 107.424-240 240s107.424 240 240 240h43.648c51.072 52.032 119.68 86.72 196.352 94.336v321.664h-96l-128 128h512l-128-128h-96v-321.664c76.672-7.616 145.28-42.304 196.352-94.336h43.648c132.576 0 240-107.424 240-240s-107.424-240-240-240zM64 240c0-80.448 54.272-147.52 128-168.544v24.544 32 128c0 58.112 15.744 112.512 42.848 159.456-94.752-2.784-170.848-80.032-170.848-175.456zM789.152 415.456c27.104-46.944 42.848-101.344 42.848-159.456v-128-32-24.544c73.728 20.992 128 88.096 128 168.544 0 95.424-76.096 172.672-170.848 175.456z" /></g></svg>