<?xml version="1.0" encoding="utf-8"?><!DOCTYPE svg PUBLIC "-//W3C//DTD SVG 1.1//EN" "http://www.w3.org/Graphics/SVG/1.1/DTD/svg11.dtd"><svg version="1.1" xmlns="http://www.w3.org/2000/svg" xmlns:xlink="http://www.w3.org/1999/xlink" width="32" height="32" viewBox="0 0 32 32" data-tags="bookmark"><g fill="#444" transform="scale(0.03125 0.03125)"><path d="M768 1024l-256-352-256 352c-35.328 0-64-28.672-64-64v-896c0-35.328 28.672-64 64-64h512c35.328 0 64 28.672 64 64v896c0 35.328-28.672 64-64 64zM752 64h-480c-8.832 0-16 7.168-16 16s7.168 16 16 16h480c8.832 0 16-7.168 16-16s-7.168-16-16-16z" /></g></svg>