<?xml version="1.0" encoding="UTF-8"?>
<svg width="82px" height="82px" viewBox="0 0 82 82" version="1.1" xmlns="http://www.w3.org/2000/svg" xmlns:xlink="http://www.w3.org/1999/xlink">
    <title>favourite</title>
    <g id="Page-1" stroke="none" stroke-width="1" fill="none" fill-rule="evenodd">
        <g id="favourite" fill="#FFFFFF" fill-rule="nonzero" stroke="#FFFFFF">
            <path d="M50.81,21.478 C47.153,21.478 43.724,22.905 40.999,25.529 C38.274,22.904 34.845,21.478 31.187,21.478 C27.054,21.478 23.098,23.311 20.332,26.508 C17.204,30.123 15.916,35.106 16.706,40.537 C18.395,52.147 29.852,61.48 40.458,65.578 C40.632,65.645 40.815,65.679 40.999,65.679 C41.182,65.679 41.366,65.646 41.54,65.578 C52.144,61.479 63.599,52.147 65.289,40.537 C66.079,35.106 64.792,30.124 61.664,26.509 C58.897,23.311 54.942,21.478 50.81,21.478 Z M62.319,40.104 C60.832,50.325 50.633,58.682 40.999,62.565 C31.363,58.682 21.162,50.325 19.675,40.104 C19.013,35.548 20.052,31.416 22.601,28.47 C24.796,25.933 27.925,24.477 31.187,24.477 C34.48,24.477 37.558,25.973 39.854,28.688 C40.424,29.363 41.576,29.362 42.145,28.688 C44.44,25.972 47.517,24.477 50.81,24.477 C54.071,24.477 57.2,25.933 59.395,28.47 C61.943,31.417 62.982,35.549 62.319,40.104 Z M55.934,3.85 C51.187,1.94 46.162,0.971 40.999,0.971 C20.829,0.971 3.751,16.043 1.276,36.028 C1.073,37.662 0.97,39.336 0.97,41.002 C0.97,63.073 18.927,81.029 40.999,81.029 C63.072,81.029 81.03,63.073 81.03,41.002 C81.03,24.565 71.18,9.981 55.934,3.85 Z M40.999,78.029 C20.581,78.029 3.97,61.419 3.97,41.002 C3.97,39.459 4.065,37.91 4.254,36.398 C6.543,17.912 22.34,3.971 41,3.971 C45.777,3.971 50.425,4.867 54.815,6.633 C68.917,12.306 78.03,25.796 78.03,41.002 C78.03,61.419 61.418,78.029 40.999,78.029 Z" id="Shape"></path>
        </g>
    </g>
</svg>