<?xml version="1.0" encoding="UTF-8"?>
<svg width="94px" height="94px" viewBox="0 0 94 94" version="1.1" xmlns="http://www.w3.org/2000/svg" xmlns:xlink="http://www.w3.org/1999/xlink">
    <title>glass</title>
    <g id="Page-1" stroke="none" stroke-width="1" fill="none" fill-rule="evenodd">
        <g id="glass" transform="translate(2.000000, 2.000000)" fill="#FFFFFF" fill-rule="nonzero">
            <path d="M45,2 C68.7,2 88,21.3 88,45 C88,68.7 68.7,88 45,88 C21.3,88 2,68.7 2,45 C2,21.3 21.3,2 45,2 M45,0 C20.1,0 0,20.1 0,45 C0,69.9 20.1,90 45,90 C69.9,90 90,69.9 90,45 C90,20.1 69.9,0 45,0 L45,0 Z" id="Shape" stroke="#FFFFFF" stroke-width="3"></path>
            <path d="M53.7,37.5 L50,37.5 C49.3,37.5 48.8,36.9 48.8,36.3 L48.8,22.5 L41.3,22.5 L41.3,36.3 C41.3,37 40.7,37.5 40.1,37.5 L36.3,37.5 C35.6,37.5 35.1,38.1 35.1,38.7 L35.1,66.2 C35.1,66.9 35.7,67.5 36.4,67.5 L53.8,67.5 C54.5,67.5 55.1,66.9 55.1,66.2 L55.1,38.8 C55,38.1 54.4,37.5 53.7,37.5 Z M52.5,50 L37.5,50 L37.5,42.5 L52.5,42.5 L52.5,50 Z" id="Shape"></path>
        </g>
    </g>
</svg>