<?xml version="1.0" encoding="UTF-8"?>
<svg width="90px" height="90px" viewBox="0 0 90 90" version="1.1" xmlns="http://www.w3.org/2000/svg" xmlns:xlink="http://www.w3.org/1999/xlink">
    <title>star</title>
    <g id="Page-1" stroke="none" stroke-width="1" fill="none" fill-rule="evenodd">
        <g id="star" fill="#FFFFFF" fill-rule="nonzero">
            <path d="M45,0 C20.1471863,0 0,20.1471863 0,45 C0,69.8528137 20.1471863,90 45,90 C69.8528137,90 90,69.8528137 90,45 C89.9720209,20.1587848 69.8412152,0.0279790877 45,0 Z M45,86 C22.3563253,86 4,67.6436747 4,45 C4,22.3563253 22.3563253,4 45,4 C67.6436747,4 86,22.3563253 86,45 C85.9743689,67.6330495 67.6330495,85.9743689 45,86 Z" id="Shape"></path>
            <path d="M76.90234,34.24756 C76.6343528,33.4236075 75.866438,32.8658022 75,32.86572 L53.53516,32.86572 L46.90234,12.45117 C46.6344215,11.627168 45.8664639,11.0693327 45,11.0693327 C44.1335361,11.0693327 43.3655785,11.627168 43.09766,12.45117 L36.46484,32.86572 L15,32.86572 C14.1334668,32.8656148 13.3654297,33.4235309 13.0976221,34.2476419 C12.8298146,35.0717529 13.1231602,35.9745817 13.82422,36.48389 L31.18945,49.10059 L24.55664,69.51465 C24.2888216,70.3388188 24.5821759,71.2417067 25.2832678,71.7510701 C25.9843596,72.2604335 26.9337085,72.2604052 27.63477,71.751 L45,59.13428 L62.36523,71.751 C63.0662885,72.2603974 64.0156285,72.2604252 64.7167168,71.7510689 C65.4178052,71.2417126 65.7111649,70.3388358 65.44336,69.51467 L58.81055,49.10059 L76.17578,36.48389 C76.8768052,35.9745192 77.1701257,35.0716872 76.90234,34.24756 Z M55.2832,46.71826 C54.5821748,47.2276308 54.2888543,48.1304628 54.55664,48.95459 L59.7373,64.89648 L46.17578,55.044 C45.4745961,54.5348803 44.5254039,54.5348803 43.82422,55.044 L30.2627,64.89648 L35.44336,48.95459 C35.7111457,48.1304628 35.4178252,47.2276308 34.7168,46.71826 L21.15527,36.86572 L37.918,36.86572 C38.7844354,36.8656392 39.5523493,36.3078386 39.82034,35.48389 L45,19.5415 L50.17969,35.48389 C50.4476773,36.307828 51.2155757,36.8656263 52.082,36.86572 L68.8447,36.86572 L55.2832,46.71826 Z" id="Shape"></path>
        </g>
    </g>
</svg>