<?xml version="1.0" encoding="utf-8"?><!DOCTYPE svg PUBLIC "-//W3C//DTD SVG 1.1//EN" "http://www.w3.org/Graphics/SVG/1.1/DTD/svg11.dtd"><svg version="1.1" xmlns="http://www.w3.org/2000/svg" xmlns:xlink="http://www.w3.org/1999/xlink" width="24" height="24" viewBox="0 0 24 24" data-tags="arrow_circle_up"><g fill="#444" transform="scale(0.0234375 0.0234375)"><path d="M512 854q-70 0-132-27t-109-74-74-109-27-132 27-132 74-109 109-74 132-27 132 27 109 74 74 109 27 132-27 132-74 109-109 74-132 27zM512 938q88 0 165-33t136-92 92-136 33-165-33-165-92-136-136-92-165-33-165 33-136 92-92 136-33 165 33 165 92 136 136 92 165 33v0zM470 512v170h84v-170h128l-170-170-170 170h128z" /></g></svg>