<?xml version="1.0" encoding="utf-8"?><!DOCTYPE svg PUBLIC "-//W3C//DTD SVG 1.1//EN" "http://www.w3.org/Graphics/SVG/1.1/DTD/svg11.dtd"><svg version="1.1" xmlns="http://www.w3.org/2000/svg" xmlns:xlink="http://www.w3.org/1999/xlink" width="24" height="24" viewBox="0 0 24 24" data-tags="arrow-down"><g fill="#444" transform="scale(0.0234375 0.0234375)"><path d="M780.501 481.835l-225.835 225.835v-494.336c0-23.552-19.115-42.667-42.667-42.667s-42.667 19.115-42.667 42.667v494.336l-225.835-225.835c-16.683-16.683-43.691-16.683-60.331 0s-16.683 43.691 0 60.331l298.667 298.667c3.925 3.925 8.619 7.083 13.824 9.259 10.453 4.309 22.229 4.309 32.683 0 5.035-2.091 9.728-5.163 13.824-9.259l298.667-298.667c16.683-16.683 16.683-43.691 0-60.331s-43.691-16.683-60.331 0z" /></g></svg>