<?xml version="1.0" encoding="utf-8"?><!DOCTYPE svg PUBLIC "-//W3C//DTD SVG 1.1//EN" "http://www.w3.org/Graphics/SVG/1.1/DTD/svg11.dtd"><svg version="1.1" xmlns="http://www.w3.org/2000/svg" xmlns:xlink="http://www.w3.org/1999/xlink" width="28" height="28" viewBox="0 0 28 28" data-code="61566" data-tags="arrows-h"><g fill="#444" transform="scale(0.02734375 0.02734375)"><path d="M1024 512c0 9.714-4 18.857-10.857 25.714l-146.286 146.286c-6.857 6.857-16 10.857-25.714 10.857-20 0-36.571-16.571-36.571-36.571v-73.143h-585.143v73.143c0 20-16.571 36.571-36.571 36.571-9.714 0-18.857-4-25.714-10.857l-146.286-146.286c-6.857-6.857-10.857-16-10.857-25.714s4-18.857 10.857-25.714l146.286-146.286c6.857-6.857 16-10.857 25.714-10.857 20 0 36.571 16.571 36.571 36.571v73.143h585.143v-73.143c0-20 16.571-36.571 36.571-36.571 9.714 0 18.857 4 25.714 10.857l146.286 146.286c6.857 6.857 10.857 16 10.857 25.714z" /></g></svg>