<?xml version="1.0" encoding="utf-8"?><!DOCTYPE svg PUBLIC "-//W3C//DTD SVG 1.1//EN" "http://www.w3.org/Graphics/SVG/1.1/DTD/svg11.dtd"><svg version="1.1" xmlns="http://www.w3.org/2000/svg" xmlns:xlink="http://www.w3.org/1999/xlink" width="24" height="24" viewBox="0 0 24 24" data-tags="arrow-right-outline"><g fill="#444" transform="scale(0.0234375 0.0234375)"><path d="M512 896c-34.176 0-66.347-13.312-90.496-37.504s-37.547-56.363-37.504-90.581c0-31.829 11.563-42.581 32.597-85.248h-206.336c-70.571 0-128-57.472-128-128 0-70.571 57.429-128 128-128h206.336c-21.077-42.667-32.597-53.547-32.597-85.376 0.043-34.219 13.312-66.304 37.547-90.496 48.299-48.299 132.608-48.341 180.949 0.043l303.829 303.829-303.829 303.829c-24.149 24.192-56.32 37.504-90.496 37.504zM210.261 512c-23.552 0-42.667 19.157-42.667 42.667s19.115 42.667 42.667 42.667h412.075l-140.501 140.501c-8.064 8.064-12.501 18.731-12.501 30.123 0 11.477 4.437 22.144 12.501 30.208 16.171 16.128 44.16 16.128 60.331 0l243.499-243.499-243.499-243.499c-16.171-16.128-44.16-16.128-60.331 0-8.064 8.064-12.501 18.731-12.501 30.123 0 11.435 4.437 22.144 12.501 30.208l140.501 140.501h-412.075z" /></g></svg>