<?xml version="1.0" encoding="utf-8"?><!DOCTYPE svg PUBLIC "-//W3C//DTD SVG 1.1//EN" "http://www.w3.org/Graphics/SVG/1.1/DTD/svg11.dtd"><svg version="1.1" xmlns="http://www.w3.org/2000/svg" xmlns:xlink="http://www.w3.org/1999/xlink" width="24" height="24" viewBox="0 0 24 24" data-tags="arrow-left-outline"><g fill="#444" transform="scale(0.0234375 0.0234375)"><path d="M466.261 896c-34.176 0-66.347-13.312-90.496-37.504l-303.829-303.829 303.829-303.829c48.341-48.384 132.651-48.384 180.992 0 24.149 24.064 37.504 56.192 37.504 90.411 0 31.829-11.52 61.909-32.597 85.419h206.336c70.571 0 128 57.429 128 128s-57.429 128-128 128h-206.336c21.035 23.424 32.597 53.419 32.597 85.248 0.085 34.219-13.312 66.432-37.504 90.624-24.192 24.149-56.32 37.461-90.496 37.461zM192.597 554.667l243.499 243.499c16.171 16.128 44.16 16.128 60.331 0 8.064-8.064 12.501-18.816 12.501-30.208s-4.437-22.059-12.416-30.080l-140.587-140.544h412.075c23.552 0 42.667-19.157 42.667-42.667s-19.115-42.667-42.667-42.667h-412.075l140.501-140.501c8.064-8.064 12.501-18.816 12.501-30.208s-4.437-22.059-12.459-30.080c-16.256-16.213-44.203-16.171-60.373-0.043l-243.499 243.499z" /></g></svg>