<?xml version="1.0" encoding="utf-8"?><!DOCTYPE svg PUBLIC "-//W3C//DTD SVG 1.1//EN" "http://www.w3.org/Graphics/SVG/1.1/DTD/svg11.dtd"><svg version="1.1" xmlns="http://www.w3.org/2000/svg" xmlns:xlink="http://www.w3.org/1999/xlink" width="24" height="24" viewBox="0 0 24 24" data-tags="arrow-up-outline"><g fill="#444" transform="scale(0.0234375 0.0234375)"><path d="M512 896c-70.571 0-128-57.429-128-128v-203.264c-48.768 43.691-129.067 41.771-175.829-4.907-49.92-49.877-49.92-131.115 0-180.992l303.829-303.829 303.829 303.829c49.92 49.877 49.92 131.115 0 180.992-46.677 46.72-127.104 48.64-175.829 4.907v203.264c0 70.571-57.429 128-128 128zM469.333 358.997v409.003c0 23.509 19.115 42.667 42.667 42.667s42.667-19.157 42.667-42.667v-409.003l140.501 140.501c16.171 16.128 44.16 16.128 60.331 0 16.683-16.683 16.683-43.648 0-60.331l-243.499-243.499-243.499 243.499c-16.683 16.683-16.683 43.648 0 60.331 16.171 16.128 44.16 16.128 60.331 0l140.501-140.501z" /></g></svg>