<?xml version="1.0" encoding="utf-8"?><!DOCTYPE svg PUBLIC "-//W3C//DTD SVG 1.1//EN" "http://www.w3.org/Graphics/SVG/1.1/DTD/svg11.dtd"><svg version="1.1" xmlns="http://www.w3.org/2000/svg" xmlns:xlink="http://www.w3.org/1999/xlink" width="24" height="24" viewBox="0 0 24 24" data-tags="arrow-forward-outline"><g fill="#444" transform="scale(0.0234375 0.0234375)"><path d="M170.667 853.291c-4.096 0-8.149-0.64-12.203-1.792-18.091-5.376-30.464-22.016-30.464-40.875v-42.667c0-204.8 144.256-378.197 341.333-417.963v-72.704c0-22.784 8.875-44.203 24.96-60.331 32.256-32.299 88.533-32.256 120.704-0.043l268.288 264.661c8.149 8.021 12.715 18.901 12.715 30.379s-4.565 22.357-12.715 30.379l-268.501 264.832c-31.829 31.829-88.192 32.043-120.448-0.213-16.128-16.128-25.003-37.547-25.003-60.331v-61.312c-106.453 8.576-192.981 42.027-262.997 148.651-8.107 12.288-21.547 19.328-35.669 19.328zM512 597.76c11.179 0 42.667-0.427 42.667-0.427v149.291l237.909-234.667-237.909-234.496v149.205c0 0-16.384-0.171-38.016 2.219-145.749 16.128-261.333 122.197-294.059 259.413 90.496-73.728 194.176-88.149 289.408-90.539z" /></g></svg>