<?xml version="1.0" encoding="utf-8"?><!DOCTYPE svg PUBLIC "-//W3C//DTD SVG 1.1//EN" "http://www.w3.org/Graphics/SVG/1.1/DTD/svg11.dtd"><svg version="1.1" xmlns="http://www.w3.org/2000/svg" xmlns:xlink="http://www.w3.org/1999/xlink" width="24" height="24" viewBox="0 0 24 24" data-tags="arrow-down-outline"><g fill="#444" transform="scale(0.0234375 0.0234375)"><path d="M512 909.312l-303.829-303.829c-49.92-49.92-49.92-131.115 0-180.992 46.677-46.677 127.061-48.555 175.829-4.907v-206.251c0-70.571 57.429-128 128-128s128 57.429 128 128v206.251c48.768-43.648 129.152-41.771 175.829 4.907 49.92 49.877 49.92 131.072 0 180.992l-303.829 303.829zM298.667 472.32c-11.435 0-22.101 4.437-30.165 12.501-16.683 16.64-16.683 43.648 0 60.331l243.499 243.499 243.499-243.499c16.683-16.683 16.683-43.691 0-60.331-16.171-16.171-44.16-16.171-60.331 0l-140.501 140.501v-411.989c0-23.509-19.115-42.667-42.667-42.667s-42.667 19.157-42.667 42.667v411.989l-140.501-140.501c-8.064-8.064-18.731-12.501-30.165-12.501z" /></g></svg>