<?xml version="1.0" encoding="utf-8"?><!DOCTYPE svg PUBLIC "-//W3C//DTD SVG 1.1//EN" "http://www.w3.org/Graphics/SVG/1.1/DTD/svg11.dtd"><svg version="1.1" xmlns="http://www.w3.org/2000/svg" xmlns:xlink="http://www.w3.org/1999/xlink" width="24" height="24" viewBox="0 0 24 24" data-tags="arrow-back-outline"><g fill="#444" transform="scale(0.0234375 0.0234375)"><path d="M817.664 834.005c-70.016-106.667-156.544-140.16-262.997-148.651v61.312c0 22.784-8.875 44.203-25.003 60.331-32.256 32.256-88.619 32.043-120.448 0.213l-268.501-264.832c-8.149-8.064-12.715-18.944-12.715-30.421s4.565-22.357 12.715-30.379l268.288-264.661c32.171-32.213 88.448-32.256 120.704 0.043 16.085 16.128 24.96 37.547 24.96 60.331v72.704c197.077 39.808 341.333 213.205 341.333 417.963v42.667c0 18.859-12.373 35.499-30.464 40.875-4.053 1.152-8.107 1.792-12.203 1.792-14.123 0-27.563-7.040-35.669-19.285zM512.981 597.803c94.165 2.389 197.888 16.811 288.341 90.496-32.768-137.216-148.352-243.285-294.101-259.413-21.504-2.389-37.888-2.219-37.888-2.219v-149.205l-237.909 234.496 237.909 234.667v-149.291c0 0 31.488 0.427 43.648 0.469z" /></g></svg>