<?xml version="1.0" encoding="utf-8"?><!DOCTYPE svg PUBLIC "-//W3C//DTD SVG 1.1//EN" "http://www.w3.org/Graphics/SVG/1.1/DTD/svg11.dtd"><svg version="1.1" xmlns="http://www.w3.org/2000/svg" xmlns:xlink="http://www.w3.org/1999/xlink" width="20" height="20" viewBox="0 0 20 20" data-tags="arrow-outline-down"><g fill="#444" transform="scale(0.01953125 0.01953125)"><path d="M512 1024c-282.77 0-512-229.23-512-512s229.23-512 512-512v0c282.77 0 512 229.23 512 512s-229.23 512-512 512v0zM512 921.6c226.216 0 409.6-183.384 409.6-409.6s-183.384-409.6-409.6-409.6v0c-226.216 0-409.6 183.384-409.6 409.6s183.384 409.6 409.6 409.6v0zM409.6 512v-256h204.8v256h153.6l-256 256-256-256h153.6z" /></g></svg>