<?xml version="1.0" encoding="utf-8"?><!DOCTYPE svg PUBLIC "-//W3C//DTD SVG 1.1//EN" "http://www.w3.org/Graphics/SVG/1.1/DTD/svg11.dtd"><svg version="1.1" xmlns="http://www.w3.org/2000/svg" xmlns:xlink="http://www.w3.org/1999/xlink" width="24" height="24" viewBox="0 0 24 24" data-tags="arrow-move-outline"><g fill="#444" transform="scale(0.0234375 0.0234375)"><path d="M973.995 451.669l-401.664-401.664c-16.683-16.683-38.485-25.003-60.331-25.003s-43.648 8.32-60.331 25.003l-401.664 401.664c-33.323 33.237-33.323 87.339 0 120.661l401.664 401.664c16.683 16.683 38.485 25.003 60.331 25.003s43.648-8.32 60.331-25.003l401.664-401.664c33.323-33.323 33.323-87.424 0-120.661zM725.333 682.667c-10.923 0-21.845-4.181-30.165-12.501-16.683-16.683-16.683-43.648 0-60.331l55.168-55.168h-195.669v195.669l55.168-55.168c8.32-8.32 19.243-12.501 30.165-12.501s21.845 4.181 30.165 12.501c16.683 16.683 16.683 43.648 0 60.331l-158.165 158.165-158.165-158.165c-16.683-16.683-16.683-43.648 0-60.331 8.32-8.32 19.243-12.501 30.165-12.501s21.845 4.181 30.165 12.501l55.168 55.168v-195.669h-195.669l55.168 55.168c16.683 16.683 16.683 43.648 0 60.331-8.32 8.32-19.243 12.501-30.165 12.501s-21.845-4.181-30.165-12.501l-158.165-158.165 158.165-158.165c8.32-8.32 19.243-12.501 30.165-12.501s21.845 4.181 30.165 12.501c16.683 16.683 16.683 43.648 0 60.331l-55.168 55.168h195.669v-195.669l-55.168 55.168c-8.32 8.32-19.243 12.501-30.165 12.501s-21.845-4.181-30.165-12.501c-16.683-16.683-16.683-43.648 0-60.331l158.165-158.165 158.165 158.165c16.683 16.683 16.683 43.648 0 60.331-8.32 8.32-19.243 12.501-30.165 12.501s-21.845-4.181-30.165-12.501l-55.168-55.168v195.669h195.669l-55.168-55.168c-16.683-16.683-16.683-43.648 0-60.331 8.32-8.32 19.243-12.501 30.165-12.501s21.845 4.181 30.165 12.501l158.165 158.165-158.165 158.165c-8.32 8.32-19.243 12.501-30.165 12.501zM651.435 597.333c-7.467 12.843-11.435 27.435-11.435 42.667-15.232 0-29.824 3.968-42.667 11.435v-54.101h54.101zM372.565 597.333h54.101v54.101c-12.843-7.467-27.435-11.435-42.667-11.435 0-15.232-3.968-29.824-11.435-42.667zM372.565 426.667c7.467-12.843 11.435-27.435 11.435-42.667 15.232 0 29.824-3.968 42.667-11.435v54.101h-54.101zM651.435 426.667h-54.101v-54.101c12.843 7.467 27.435 11.435 42.667 11.435 0 15.232 3.968 29.824 11.435 42.667z" /></g></svg>