<?xml version="1.0" encoding="utf-8"?><!DOCTYPE svg PUBLIC "-//W3C//DTD SVG 1.1//EN" "http://www.w3.org/Graphics/SVG/1.1/DTD/svg11.dtd"><svg version="1.1" xmlns="http://www.w3.org/2000/svg" xmlns:xlink="http://www.w3.org/1999/xlink" width="24" height="24" viewBox="0 0 24 24" data-tags="arrow-down-right"><g fill="#444" transform="scale(0.0234375 0.0234375)"><path d="M682.667 298.667v323.669l-353.835-353.835c-16.683-16.683-43.691-16.683-60.331 0s-16.683 43.691 0 60.331l353.835 353.835h-323.669c-23.552 0-42.667 19.115-42.667 42.667s19.115 42.667 42.667 42.667h426.667c5.803 0 11.307-1.152 16.341-3.243s9.728-5.163 13.824-9.259c3.925-3.925 7.083-8.619 9.259-13.824 2.091-5.035 3.243-10.539 3.243-16.341v-426.667c0-23.552-19.115-42.667-42.667-42.667s-42.667 19.115-42.667 42.667z" /></g></svg>