<?xml version="1.0" encoding="utf-8"?><!DOCTYPE svg PUBLIC "-//W3C//DTD SVG 1.1//EN" "http://www.w3.org/Graphics/SVG/1.1/DTD/svg11.dtd"><svg version="1.1" xmlns="http://www.w3.org/2000/svg" xmlns:xlink="http://www.w3.org/1999/xlink" width="24" height="24" viewBox="0 0 24 24" data-tags="arrow-left"><g fill="#444" transform="scale(0.0234375 0.0234375)"><path d="M542.165 780.501l-225.835-225.835h494.336c23.552 0 42.667-19.115 42.667-42.667s-19.115-42.667-42.667-42.667h-494.336l225.835-225.835c16.683-16.683 16.683-43.691 0-60.331s-43.691-16.683-60.331 0l-298.667 298.667c-4.096 4.096-7.168 8.789-9.259 13.824-2.176 5.205-3.243 10.795-3.243 16.341 0 10.923 4.181 21.845 12.501 30.165l298.667 298.667c16.683 16.683 43.691 16.683 60.331 0s16.683-43.691 0-60.331z" /></g></svg>