<?xml version="1.0" encoding="utf-8"?><!DOCTYPE svg PUBLIC "-//W3C//DTD SVG 1.1//EN" "http://www.w3.org/Graphics/SVG/1.1/DTD/svg11.dtd"><svg version="1.1" xmlns="http://www.w3.org/2000/svg" xmlns:xlink="http://www.w3.org/1999/xlink" width="20" height="20" viewBox="0 0 20 20" data-tags="arrow-outline-right"><g fill="#444" transform="scale(0.01953125 0.01953125)"><path d="M1024 512c0 282.77-229.23 512-512 512s-512-229.23-512-512v0c0-282.77 229.23-512 512-512s512 229.23 512 512v0zM921.6 512c0-226.216-183.384-409.6-409.6-409.6s-409.6 183.384-409.6 409.6v0c0 226.216 183.384 409.6 409.6 409.6s409.6-183.384 409.6-409.6v0zM512 614.4h-256v-204.8h256v-153.6l256 256-256 256v-153.6z" /></g></svg>