<?xml version="1.0" encoding="utf-8"?><!DOCTYPE svg PUBLIC "-//W3C//DTD SVG 1.1//EN" "http://www.w3.org/Graphics/SVG/1.1/DTD/svg11.dtd"><svg version="1.1" xmlns="http://www.w3.org/2000/svg" xmlns:xlink="http://www.w3.org/1999/xlink" width="24" height="28" viewBox="0 0 24 28" data-code="61609" data-tags="arrow-circle-right"><g fill="#444" transform="scale(0.02734375 0.02734375)"><path d="M734.286 512c0-9.714-3.429-18.857-10.286-25.714l-258.857-258.857c-6.857-6.857-16-10.286-25.714-10.286s-18.857 3.429-25.714 10.286l-52 52c-6.857 6.857-10.286 16-10.286 25.714s3.429 18.857 10.286 25.714l108 108h-286.857c-20 0-36.571 16.571-36.571 36.571v73.143c0 20 16.571 36.571 36.571 36.571h286.857l-108 108c-6.857 6.857-10.857 16-10.857 25.714s4 18.857 10.857 25.714l52 52c6.857 6.857 16 10.286 25.714 10.286s18.857-3.429 25.714-10.286l258.857-258.857c6.857-6.857 10.286-16 10.286-25.714zM877.714 512c0 242.286-196.571 438.857-438.857 438.857s-438.857-196.571-438.857-438.857 196.571-438.857 438.857-438.857 438.857 196.571 438.857 438.857z" /></g></svg>