<?xml version="1.0" encoding="utf-8"?><!DOCTYPE svg PUBLIC "-//W3C//DTD SVG 1.1//EN" "http://www.w3.org/Graphics/SVG/1.1/DTD/svg11.dtd"><svg version="1.1" xmlns="http://www.w3.org/2000/svg" xmlns:xlink="http://www.w3.org/1999/xlink" width="24" height="28" viewBox="0 0 24 28" data-code="61618" data-tags="arrows-alt"><g fill="#444" transform="scale(0.02734375 0.02734375)"><path d="M733.143 309.143l-202.857 202.857 202.857 202.857 82.286-82.286c10.286-10.857 26.286-13.714 40-8 13.143 5.714 22.286 18.857 22.286 33.714v256c0 20-16.571 36.571-36.571 36.571h-256c-14.857 0-28-9.143-33.714-22.857-5.714-13.143-2.857-29.143 8-39.429l82.286-82.286-202.857-202.857-202.857 202.857 82.286 82.286c10.857 10.286 13.714 26.286 8 39.429-5.714 13.714-18.857 22.857-33.714 22.857h-256c-20 0-36.571-16.571-36.571-36.571v-256c0-14.857 9.143-28 22.857-33.714 13.143-5.714 29.143-2.857 39.429 8l82.286 82.286 202.857-202.857-202.857-202.857-82.286 82.286c-6.857 6.857-16 10.857-25.714 10.857-4.571 0-9.714-1.143-13.714-2.857-13.714-5.714-22.857-18.857-22.857-33.714v-256c0-20 16.571-36.571 36.571-36.571h256c14.857 0 28 9.143 33.714 22.857 5.714 13.143 2.857 29.143-8 39.429l-82.286 82.286 202.857 202.857 202.857-202.857-82.286-82.286c-10.857-10.286-13.714-26.286-8-39.429 5.714-13.714 18.857-22.857 33.714-22.857h256c20 0 36.571 16.571 36.571 36.571v256c0 14.857-9.143 28-22.286 33.714-4.571 1.714-9.714 2.857-14.286 2.857-9.714 0-18.857-4-25.714-10.857z" /></g></svg>