<?xml version="1.0" encoding="utf-8"?><!DOCTYPE svg PUBLIC "-//W3C//DTD SVG 1.1//EN" "http://www.w3.org/Graphics/SVG/1.1/DTD/svg11.dtd"><svg version="1.1" xmlns="http://www.w3.org/2000/svg" xmlns:xlink="http://www.w3.org/1999/xlink" width="20" height="20" viewBox="0 0 20 20" data-tags="arrow-outline-up"><g fill="#444" transform="scale(0.01953125 0.01953125)"><path d="M512 0c282.77 0 512 229.23 512 512s-229.23 512-512 512v0c-282.77 0-512-229.23-512-512s229.23-512 512-512v0zM512 102.4c-226.216 0-409.6 183.384-409.6 409.6s183.384 409.6 409.6 409.6v0c226.216 0 409.6-183.384 409.6-409.6s-183.384-409.6-409.6-409.6v0zM614.4 512v256h-204.8v-256h-153.6l256-256 256 256h-153.6z" /></g></svg>