<?xml version="1.0" encoding="utf-8"?><!DOCTYPE svg PUBLIC "-//W3C//DTD SVG 1.1//EN" "http://www.w3.org/Graphics/SVG/1.1/DTD/svg11.dtd"><svg version="1.1" xmlns="http://www.w3.org/2000/svg" xmlns:xlink="http://www.w3.org/1999/xlink" width="24" height="24" viewBox="0 0 24 24" data-tags="arrow-up"><g fill="#444" transform="scale(0.0234375 0.0234375)"><path d="M243.499 542.165l225.835-225.835v494.336c0 23.552 19.115 42.667 42.667 42.667s42.667-19.115 42.667-42.667v-494.336l225.835 225.835c16.683 16.683 43.691 16.683 60.331 0s16.683-43.691 0-60.331l-298.667-298.667c-3.925-3.925-8.619-7.083-13.824-9.259s-10.795-3.243-16.341-3.243c-10.923 0-21.845 4.181-30.165 12.501l-298.667 298.667c-16.683 16.683-16.683 43.691 0 60.331s43.691 16.683 60.331 0z" /></g></svg>