<?xml version="1.0" encoding="utf-8"?><!DOCTYPE svg PUBLIC "-//W3C//DTD SVG 1.1//EN" "http://www.w3.org/Graphics/SVG/1.1/DTD/svg11.dtd"><svg version="1.1" xmlns="http://www.w3.org/2000/svg" xmlns:xlink="http://www.w3.org/1999/xlink" width="24" height="24" viewBox="0 0 24 24" data-tags="arrow-up-circle"><g fill="#444" transform="scale(0.0234375 0.0234375)"><path d="M981.333 512c0-129.579-52.565-246.997-137.472-331.861s-202.283-137.472-331.861-137.472-246.997 52.565-331.861 137.472-137.472 202.283-137.472 331.861 52.565 246.997 137.472 331.861 202.283 137.472 331.861 137.472 246.997-52.565 331.861-137.472 137.472-202.283 137.472-331.861zM896 512c0 106.069-42.923 201.984-112.469 271.531s-165.461 112.469-271.531 112.469-201.984-42.923-271.531-112.469-112.469-165.461-112.469-271.531 42.923-201.984 112.469-271.531 165.461-112.469 271.531-112.469 201.984 42.923 271.531 112.469 112.469 165.461 112.469 271.531zM554.667 682.667v-238.336l97.835 97.835c16.683 16.683 43.691 16.683 60.331 0s16.683-43.691 0-60.331l-170.667-170.667c-4.096-4.096-8.789-7.168-13.824-9.259-5.205-2.176-10.795-3.243-16.341-3.243-10.923 0-21.845 4.181-30.165 12.501l-170.667 170.667c-16.683 16.683-16.683 43.691 0 60.331s43.691 16.683 60.331 0l97.835-97.835v238.336c0 23.552 19.115 42.667 42.667 42.667s42.667-19.115 42.667-42.667z" /></g></svg>