<?xml version="1.0" encoding="utf-8"?><!DOCTYPE svg PUBLIC "-//W3C//DTD SVG 1.1//EN" "http://www.w3.org/Graphics/SVG/1.1/DTD/svg11.dtd"><svg version="1.1" xmlns="http://www.w3.org/2000/svg" xmlns:xlink="http://www.w3.org/1999/xlink" width="24" height="24" viewBox="0 0 24 24" data-tags="arrow-sync-outline"><g fill="#444" transform="scale(0.0234375 0.0234375)"><path d="M917.333 532.181c0-106.453-34.901-188.843-113.195-267.051-13.184-13.184-28.843-22.741-45.781-29.099l-198.528-198.528c-24.149-24.192-56.32-37.504-90.496-37.504s-66.347 13.312-90.496 37.504c-24.192 24.149-37.504 56.32-37.504 90.496 0 11.819 1.579 23.424 4.693 34.517-43.904 19.669-84.224 47.787-120.619 84.224-76.587 76.501-118.741 178.261-118.741 286.592 0 106.453 34.901 188.843 113.195 267.051 12.757 12.715 27.819 22.229 44.117 28.544l42.027 42.069 158.165 158.165c24.149 24.192 56.32 37.504 90.496 37.504s66.347-13.312 90.496-37.504c24.192-24.149 37.504-56.32 37.504-90.496 0-12.203-1.707-24.149-4.992-35.584 43.989-19.669 84.395-47.829 120.875-84.267 76.629-76.544 118.784-178.347 118.784-286.635zM527.787 851.499l57.045 57.003c16.683 16.683 16.683 43.648 0 60.331-8.32 8.32-19.243 12.501-30.165 12.501s-21.845-4.181-30.165-12.501l-158.165-158.165 158.165-158.165c8.32-8.32 19.243-12.501 30.165-12.501s21.845 4.181 30.165 12.501c16.683 16.683 16.683 43.648 0 60.331l-53.205 53.205c57.643-3.883 103.467-25.173 146.261-67.968 44.331-44.288 68.736-103.211 68.736-165.888 0-60.672-17.109-100.309-63.147-146.304-16.683-16.683-16.683-43.648 0-60.373 8.32-8.32 19.243-12.501 30.208-12.501 10.923 0 21.845 4.181 30.165 12.459 61.781 61.739 88.149 123.563 88.149 206.677 0 85.504-33.28 165.845-93.739 226.261-59.307 59.307-128.427 89.6-210.475 93.099zM495.104 214.101l-55.936-55.936c-16.683-16.683-16.683-43.648 0-60.331 8.32-8.32 19.243-12.501 30.165-12.501s21.845 4.181 30.165 12.501l158.165 158.165-158.165 158.165c-8.32 8.32-19.243 12.501-30.165 12.501s-21.845-4.181-30.165-12.501c-16.683-16.683-16.683-43.648 0-60.331l54.4-54.4c-58.24 3.669-104.448 24.917-147.456 67.968-44.373 44.331-68.779 103.253-68.779 165.931 0 60.672 17.109 100.309 63.147 146.304 16.683 16.683 16.683 43.648 0 60.373-8.32 8.32-19.285 12.501-30.208 12.501s-21.845-4.181-30.165-12.459c-61.739-61.781-88.107-123.605-88.107-206.72 0-85.504 33.28-165.845 93.739-226.261 58.965-59.008 127.701-89.301 209.365-92.971zM370.688 649.472c-37.888-37.845-50.688-67.157-50.688-116.139 0-51.285 19.968-99.499 56.235-135.723 2.688-2.645 5.291-5.205 7.979-7.637 1.408 20.523 10.069 39.68 24.789 54.357 16.128 16.128 37.547 25.003 60.331 25.003s44.203-8.875 60.331-25.003l99.797-99.797c-3.328 25.429 4.437 52.011 23.893 71.467 37.888 37.845 50.688 67.157 50.688 116.139 0 51.285-19.968 99.499-56.235 135.723-2.645 2.645-5.333 5.248-8.021 7.723-1.664-20.139-10.283-38.827-24.704-53.248-16.213-16.128-37.632-25.003-60.416-25.003s-44.203 8.875-60.331 25.003l-99.925 99.925c3.797-25.813-3.968-52.992-23.723-72.789z" /></g></svg>