<?xml version="1.0" encoding="utf-8"?><!DOCTYPE svg PUBLIC "-//W3C//DTD SVG 1.1//EN" "http://www.w3.org/Graphics/SVG/1.1/DTD/svg11.dtd"><svg version="1.1" xmlns="http://www.w3.org/2000/svg" xmlns:xlink="http://www.w3.org/1999/xlink" width="24" height="24" viewBox="0 0 24 24" data-tags="arrow-repeat-outline"><g fill="#444" transform="scale(0.0234375 0.0234375)"><path d="M810.411 306.645c0.171-2.645 0.256-5.333 0.256-7.979 0-34.176-13.312-66.347-37.504-90.496-24.149-24.192-56.32-37.504-90.496-37.504s-66.347 13.312-90.496 37.504l-123.392 123.349c-22.613-20.181-52.096-32.853-84.779-32.853h-42.667c-164.651 0-298.667 133.973-298.667 298.667 0 141.056 91.307 259.584 213.589 290.688-0.171 2.645-0.256 5.333-0.256 7.979 0 34.176 13.312 66.347 37.504 90.496 24.149 24.192 56.32 37.504 90.496 37.504s66.347-13.312 90.496-37.504l123.392-123.349c22.613 20.181 52.096 32.853 84.779 32.853h42.667c164.651 0 298.667-133.973 298.667-298.667 0-141.056-91.307-259.584-213.589-290.688zM725.333 810.667h-42.667c-23.595 0-42.667-19.115-42.667-42.667s19.072-42.667 42.667-42.667h42.667c70.571 0 128-57.429 128-128s-47.829-128-106.667-128h-89.003l55.168 55.168c16.683 16.683 16.683 43.648 0 60.331-8.32 8.32-19.243 12.501-30.165 12.501s-21.845-4.181-30.165-12.501l-158.165-158.165 158.165-158.165c8.32-8.32 19.243-12.501 30.165-12.501s21.845 4.181 30.165 12.501c16.683 16.683 16.683 43.648 0 60.331l-55.168 55.168h89.003c105.856 0 192 95.701 192 213.333s-95.701 213.333-213.333 213.333zM757.291 513.237c29.867 6.997 53.376 42.667 53.376 84.096 0 47.061-38.272 85.333-85.333 85.333h-42.667c-36.565 0-67.584 23.211-79.701 55.637-0.469-0.469-158.635-158.635-158.635-158.635-16.128-16.128-37.547-25.003-60.331-25.003s-44.203 8.875-60.331 25.003-25.003 37.547-25.003 60.331c0 14.72 3.712 28.885 10.709 41.429-29.867-6.997-53.376-42.667-53.376-84.096 0-47.061 38.272-85.333 85.333-85.333h42.667c36.565 0 67.584-23.211 79.701-55.637 0.469 0.469 158.635 158.635 158.635 158.635 16.128 16.128 37.547 25.003 60.331 25.003s44.203-8.875 60.331-25.003 25.003-37.547 25.003-60.331c0-14.72-3.712-28.885-10.709-41.429zM426.667 426.667c0 23.552-19.072 42.667-42.667 42.667h-42.667c-70.571 0-128 57.429-128 128s47.829 128 106.667 128h89.003l-55.168-55.168c-16.683-16.683-16.683-43.648 0-60.331 8.32-8.32 19.243-12.501 30.165-12.501s21.845 4.181 30.165 12.501l158.165 158.165-158.165 158.165c-8.32 8.32-19.243 12.501-30.165 12.501s-21.845-4.181-30.165-12.501c-16.683-16.683-16.683-43.648 0-60.331l55.168-55.168h-89.003c-105.856 0-192-95.701-192-213.333s95.701-213.333 213.333-213.333h42.667c23.595 0 42.667 19.115 42.667 42.667z" /></g></svg>