<?xml version="1.0" encoding="utf-8"?><!DOCTYPE svg PUBLIC "-//W3C//DTD SVG 1.1//EN" "http://www.w3.org/Graphics/SVG/1.1/DTD/svg11.dtd"><svg version="1.1" xmlns="http://www.w3.org/2000/svg" xmlns:xlink="http://www.w3.org/1999/xlink" width="24" height="24" viewBox="0 0 24 24" data-tags="arrow-up-right"><g fill="#444" transform="scale(0.0234375 0.0234375)"><path d="M298.667 341.333h323.669l-353.835 353.835c-16.683 16.683-16.683 43.691 0 60.331s43.691 16.683 60.331 0l353.835-353.835v323.669c0 23.552 19.115 42.667 42.667 42.667s42.667-19.115 42.667-42.667v-426.667c0-5.803-1.152-11.307-3.243-16.341s-5.163-9.728-9.216-13.781c-0.043-0.043-0.043-0.043-0.085-0.085-3.925-3.925-8.619-7.083-13.781-9.216-5.035-2.091-10.539-3.243-16.341-3.243h-426.667c-23.552 0-42.667 19.115-42.667 42.667s19.115 42.667 42.667 42.667z" /></g></svg>