<?xml version="1.0" encoding="utf-8"?><!DOCTYPE svg PUBLIC "-//W3C//DTD SVG 1.1//EN" "http://www.w3.org/Graphics/SVG/1.1/DTD/svg11.dtd"><svg version="1.1" xmlns="http://www.w3.org/2000/svg" xmlns:xlink="http://www.w3.org/1999/xlink" width="24" height="24" viewBox="0 0 24 24" data-tags="arrow-minimise-outline"><g fill="#444" transform="scale(0.0234375 0.0234375)"><path d="M938.667 256c0-34.176-13.312-66.347-37.504-90.496-24.149-24.192-56.32-37.504-90.496-37.504s-66.347 13.312-90.496 37.504l-37.675 37.675c-22.656-20.224-52.48-32.512-85.163-32.512-39.211 0-73.899 18.091-97.408 45.952-9.045-2.005-18.389-3.285-27.989-3.285h-173.269-85.333v85.333 173.227c0 10.88 1.792 21.291 4.352 31.403-25.515 23.424-41.813 56.747-41.813 94.037 0 31.36 11.349 60.117 30.080 82.389l-40.405 40.448c-24.235 24.149-37.547 56.32-37.547 90.496s13.312 66.347 37.504 90.496c24.149 24.192 56.32 37.504 90.496 37.504 22.997 0 56.917-6.485 87.936-37.504l38.528-39.211c22.827 21.12 53.376 34.048 86.869 34.048 39.851 0 75.008-18.645 98.517-47.232 10.283 2.688 20.907 4.565 32.085 4.565h168.064 85.333v-85.333-173.269c0-9.643-1.237-18.944-3.285-27.989 27.861-23.467 45.952-58.197 45.952-97.408 0-32.683-12.288-62.507-32.512-85.163l37.675-37.675c24.192-24.149 37.504-56.32 37.504-90.496zM298.667 298.667h170.667c23.595 0 42.667 19.115 42.667 42.667s-19.072 42.667-42.667 42.667h-85.333v85.333c0 23.552-19.115 42.667-42.667 42.667-23.595 0-42.667-19.115-42.667-42.667v-170.667zM840.832 286.165l-140.501 140.501h67.669c23.595 0 42.667 19.115 42.667 42.667s-19.115 42.667-42.667 42.667h-213.333v-213.333c0-23.552 19.072-42.667 42.667-42.667s42.667 19.115 42.667 42.667v67.669l140.501-140.501c8.32-8.32 19.243-12.501 30.165-12.501s21.845 4.181 30.165 12.501c16.683 16.683 16.683 43.648 0 60.331zM512 768c0 23.552-19.072 42.667-42.667 42.667s-42.667-19.115-42.667-42.667v-72.832l-143.104 145.664c-8.32 8.32-16.64 12.501-27.563 12.501s-21.845-4.181-30.165-12.501c-16.683-16.683-16.683-43.648 0-60.331l140.501-140.501h-62.507c-23.595 0-42.667-19.115-42.667-42.667s19.072-42.667 42.667-42.667h208.171v213.333zM512 512h-97.195c7.381-12.587 11.861-27.051 11.861-42.667v-42.667h45.269c14.592 0 28.075-4.011 40.064-10.453v95.787zM554.667 554.667h115.755c-18.475 4.011-30.421 14.080-30.421 40.064v45.269h-40.064c-16.683 0-32.085 4.992-45.269 13.269v-98.603zM557.269 725.333c0-23.552 19.072-42.667 42.667-42.667h82.731v-85.333c0-23.552 19.072-42.667 42.667-42.667s42.667 19.115 42.667 42.667v170.667h-168.064c-23.595 0-42.667-19.115-42.667-42.667z" /></g></svg>