<?xml version="1.0" encoding="utf-8"?><!DOCTYPE svg PUBLIC "-//W3C//DTD SVG 1.1//EN" "http://www.w3.org/Graphics/SVG/1.1/DTD/svg11.dtd"><svg version="1.1" xmlns="http://www.w3.org/2000/svg" xmlns:xlink="http://www.w3.org/1999/xlink" width="24" height="24" viewBox="0 0 24 24" data-tags="arrow-maximise-outline"><g fill="#444" transform="scale(0.0234375 0.0234375)"><path d="M810.667 128h-223.701c-55.552 0-102.443 35.755-120.107 85.333h-296.192v301.269c0 1.749 0.469 3.371 0.512 5.12-49.792 17.493-85.845 64.512-85.845 120.277v213.333 85.333h298.667c55.936 0 110.635-35.243 128-85.333h298.667v-301.269c0-1.749-0.469-3.371-0.512-5.12 49.792-17.493 85.845-64.512 85.845-120.277v-213.333-85.333h-85.333zM725.333 768h-213.333c-23.595 0-42.667-19.115-42.667-42.667s19.072-42.667 42.667-42.667h128v-130.603c0-23.552 19.072-42.667 42.667-42.667s42.667 19.115 42.667 42.667v215.936zM256 298.667h215.936c23.595 0 42.667 19.115 42.667 42.667s-19.072 42.667-42.667 42.667h-130.603v130.603c0 23.552-19.115 42.667-42.667 42.667-23.595 0-42.667-19.115-42.667-42.667v-215.936zM810.667 426.667c0 23.552-19.072 42.667-42.667 42.667s-42.667-19.115-42.667-42.667v-67.669l-140.501 140.501c-8.32 8.32-19.243 12.501-30.165 12.501s-21.845-4.181-30.165-12.501c-16.683-16.683-16.683-43.648 0-60.331l140.501-140.501h-67.669c-23.595 0-42.667-19.115-42.667-42.667s19.072-42.667 42.667-42.667h213.333v213.333zM384 853.333h-170.496c-0.341 0-42.837 0-42.837 0v-213.333c0-23.552 19.072-42.667 42.667-42.667s42.667 19.115 42.667 42.667v67.669l140.501-140.501c8.32-8.32 19.243-12.501 30.165-12.501s21.845 4.181 30.165 12.501c16.683 16.683 16.683 43.648 0 60.331l-140.501 140.501h67.669c23.595 0 42.667 19.115 42.667 42.667s-19.115 42.667-42.667 42.667zM486.997 537.003c-16.128-16.128-37.547-25.003-60.331-25.003-15.659 0-30.549 4.48-43.648 12.331 0.341-3.243 0.981-6.4 0.981-9.728v-87.936h87.936c3.328 0 6.485-0.597 9.771-0.981-7.936 13.099-12.373 27.989-12.373 43.648 0 22.784 8.875 44.203 25.003 60.331s37.547 25.003 60.331 25.003c15.659 0 30.549-4.48 43.648-12.331-0.341 3.243-0.981 6.4-0.981 9.728v87.936h-82.731c-5.205 0-10.24 0.64-15.189 1.536 8.064-13.227 12.587-28.331 12.587-44.203 0-22.784-8.875-44.203-25.003-60.331z" /></g></svg>