<?xml version="1.0" encoding="utf-8"?><!DOCTYPE svg PUBLIC "-//W3C//DTD SVG 1.1//EN" "http://www.w3.org/Graphics/SVG/1.1/DTD/svg11.dtd"><svg version="1.1" xmlns="http://www.w3.org/2000/svg" xmlns:xlink="http://www.w3.org/1999/xlink" width="32" height="32" viewBox="0 0 32 32" data-tags="rotate,cw,reload,refresh,loop,arrow"><g fill="#444" transform="scale(0.03125 0.03125)"><path d="M833.088 536.544l-130.88-130.88h76.672c-0.704-1.92-1.44-3.808-2.176-5.696-45.472-115.264-157.856-196.8-289.28-196.8-171.68 0-310.88 139.2-310.88 310.88 0 171.712 139.2 310.912 310.88 310.912 126.304 0 235.008-75.328 283.648-183.456 0.48-0.992 0.768-2.112 1.216-3.168l83.36 82.848c-0.544 0.96-0.928 2.048-1.504 3.072-0.128 0.224-0.256 0.448-0.384 0.64-73.568 127.104-211.008 212.576-368.416 212.576-234.88-0.064-425.344-190.528-425.344-425.472s190.464-425.408 425.408-425.408c196.416 0 361.696 133.056 410.656 313.984 0.48 1.664 0.608 3.424 1.024 5.088h66.912l-130.912 130.88z" /></g></svg>