<?xml version="1.0" encoding="utf-8"?><!DOCTYPE svg PUBLIC "-//W3C//DTD SVG 1.1//EN" "http://www.w3.org/Graphics/SVG/1.1/DTD/svg11.dtd"><svg version="1.1" xmlns="http://www.w3.org/2000/svg" xmlns:xlink="http://www.w3.org/1999/xlink" width="20" height="20" viewBox="0 0 20 20" data-tags="arrow-with-circle-left"><g fill="#444" transform="scale(0.01953125 0.01953125)"><path d="M512 20.48c-271.514 0-491.571 220.058-491.571 491.52 0 271.514 220.058 491.571 491.571 491.571 271.411 0 491.52-220.058 491.52-491.571 0-271.462-220.109-491.52-491.52-491.52zM511.949 901.12c-214.886 0-389.12-174.182-389.12-389.12s174.182-389.12 389.12-389.12 389.171 174.234 389.171 389.12-174.285 389.12-389.171 389.12zM512 281.6l-230.4 230.4 230.4 230.4v-128h204.8v-204.8h-204.8v-128z" /></g></svg>