<?xml version="1.0" encoding="utf-8"?><!DOCTYPE svg PUBLIC "-//W3C//DTD SVG 1.1//EN" "http://www.w3.org/Graphics/SVG/1.1/DTD/svg11.dtd"><svg version="1.1" xmlns="http://www.w3.org/2000/svg" xmlns:xlink="http://www.w3.org/1999/xlink" width="24" height="28" viewBox="0 0 24 28" data-code="61466" data-tags="arrow-circle-o-down"><g fill="#444" transform="scale(0.02734375 0.02734375)"><path d="M640 530.286c0 5.143-2.286 9.714-5.714 13.714l-182.286 182.286c-4 3.429-8.571 5.143-13.143 5.143s-9.143-1.714-13.143-5.143l-182.857-182.857c-5.143-5.714-6.857-13.143-4-20s9.714-11.429 17.143-11.429h109.714v-201.143c0-10.286 8-18.286 18.286-18.286h109.714c10.286 0 18.286 8 18.286 18.286v201.143h109.714c10.286 0 18.286 8 18.286 18.286zM438.857 201.143c-171.429 0-310.857 139.429-310.857 310.857s139.429 310.857 310.857 310.857 310.857-139.429 310.857-310.857-139.429-310.857-310.857-310.857zM877.714 512c0 242.286-196.571 438.857-438.857 438.857s-438.857-196.571-438.857-438.857 196.571-438.857 438.857-438.857v0c242.286 0 438.857 196.571 438.857 438.857z" /></g></svg>