<?xml version="1.0" encoding="utf-8"?><!DOCTYPE svg PUBLIC "-//W3C//DTD SVG 1.1//EN" "http://www.w3.org/Graphics/SVG/1.1/DTD/svg11.dtd"><svg version="1.1" xmlns="http://www.w3.org/2000/svg" xmlns:xlink="http://www.w3.org/1999/xlink" width="24" height="28" viewBox="0 0 24 28" data-code="61467" data-tags="arrow-circle-o-up"><g fill="#444" transform="scale(0.02734375 0.02734375)"><path d="M638.857 500.571c-2.857 6.857-9.714 11.429-17.143 11.429h-109.714v201.143c0 10.286-8 18.286-18.286 18.286h-109.714c-10.286 0-18.286-8-18.286-18.286v-201.143h-109.714c-10.286 0-18.286-8-18.286-18.286 0-5.143 2.286-9.714 5.714-13.714l182.286-182.286c4-3.429 8.571-5.143 13.143-5.143s9.143 1.714 13.143 5.143l182.857 182.857c5.143 5.714 6.857 13.143 4 20zM438.857 201.143c-171.429 0-310.857 139.429-310.857 310.857s139.429 310.857 310.857 310.857 310.857-139.429 310.857-310.857-139.429-310.857-310.857-310.857zM877.714 512c0 242.286-196.571 438.857-438.857 438.857s-438.857-196.571-438.857-438.857 196.571-438.857 438.857-438.857v0c242.286 0 438.857 196.571 438.857 438.857z" /></g></svg>