<?xml version="1.0" encoding="utf-8"?><!DOCTYPE svg PUBLIC "-//W3C//DTD SVG 1.1//EN" "http://www.w3.org/Graphics/SVG/1.1/DTD/svg11.dtd"><svg version="1.1" xmlns="http://www.w3.org/2000/svg" xmlns:xlink="http://www.w3.org/1999/xlink" width="12" height="28" viewBox="0 0 12 28" data-code="61813" data-tags="long-arrow-down"><g fill="#444" transform="scale(0.02734375 0.02734375)"><path d="M437.143 742.286c2.857 6.857 1.714 14.286-2.857 20l-200 219.429c-3.429 3.429-8 5.714-13.143 5.714v0c-5.143 0-10.286-2.286-13.714-5.714l-202.857-219.429c-4.571-5.714-5.714-13.143-2.857-20 2.857-6.286 9.143-10.857 16.571-10.857h128v-713.143c0-10.286 8-18.286 18.286-18.286h109.714c10.286 0 18.286 8 18.286 18.286v713.143h128c7.429 0 13.714 4 16.571 10.857z" /></g></svg>