<?xml version="1.0" encoding="utf-8"?><!DOCTYPE svg PUBLIC "-//W3C//DTD SVG 1.1//EN" "http://www.w3.org/Graphics/SVG/1.1/DTD/svg11.dtd"><svg version="1.1" xmlns="http://www.w3.org/2000/svg" xmlns:xlink="http://www.w3.org/1999/xlink" width="12" height="28" viewBox="0 0 12 28" data-code="61814" data-tags="long-arrow-up"><g fill="#444" transform="scale(0.02734375 0.02734375)"><path d="M437.143 281.714c-2.857 6.286-9.143 10.857-16.571 10.857h-128v713.143c0 10.286-8 18.286-18.286 18.286h-109.714c-10.286 0-18.286-8-18.286-18.286v-713.143h-128c-7.429 0-13.714-4-16.571-10.857s-1.714-14.286 2.857-20l200-219.429c3.429-3.429 8-5.714 13.143-5.714v0c5.143 0 10.286 2.286 13.714 5.714l202.857 219.429c4.571 5.714 5.714 13.143 2.857 20z" /></g></svg>