<?xml version="1.0" encoding="utf-8"?><!DOCTYPE svg PUBLIC "-//W3C//DTD SVG 1.1//EN" "http://www.w3.org/Graphics/SVG/1.1/DTD/svg11.dtd"><svg version="1.1" xmlns="http://www.w3.org/2000/svg" xmlns:xlink="http://www.w3.org/1999/xlink" width="24" height="28" viewBox="0 0 24 28" data-code="61840" data-tags="arrow-circle-o-left"><g fill="#444" transform="scale(0.02734375 0.02734375)"><path d="M658.286 457.143v109.714c0 9.714-8.571 18.286-18.286 18.286h-201.143v109.714c0 10.286-8 18.286-18.286 18.286-5.143 0-9.714-2.286-13.714-5.714l-182.286-182.286c-3.429-3.429-5.143-8.571-5.143-13.143s1.714-9.714 5.143-13.143l182.857-182.857c3.429-3.429 8.571-5.143 13.143-5.143 9.714 0 18.286 8.571 18.286 18.286v109.714h201.143c9.714 0 18.286 8.571 18.286 18.286zM749.714 512c0-171.429-139.429-310.857-310.857-310.857s-310.857 139.429-310.857 310.857 139.429 310.857 310.857 310.857 310.857-139.429 310.857-310.857zM877.714 512c0 242.286-196.571 438.857-438.857 438.857s-438.857-196.571-438.857-438.857 196.571-438.857 438.857-438.857 438.857 196.571 438.857 438.857z" /></g></svg>