<?xml version="1.0" encoding="utf-8"?><!DOCTYPE svg PUBLIC "-//W3C//DTD SVG 1.1//EN" "http://www.w3.org/Graphics/SVG/1.1/DTD/svg11.dtd"><svg version="1.1" xmlns="http://www.w3.org/2000/svg" xmlns:xlink="http://www.w3.org/1999/xlink" width="24" height="24" viewBox="0 0 24 24" data-tags="arrow-move"><g fill="#444" transform="scale(0.0234375 0.0234375)"><path d="M755.499 353.835c-16.683-16.683-43.648-16.683-60.331 0s-16.683 43.648 0 60.331l55.168 55.168h-195.669v-195.669l55.168 55.168c8.32 8.32 19.243 12.501 30.165 12.501s21.845-4.181 30.165-12.501c16.683-16.683 16.683-43.648 0-60.331l-158.165-158.165-158.165 158.165c-16.683 16.683-16.683 43.648 0 60.331s43.648 16.683 60.331 0l55.168-55.168v195.669h-195.669l55.168-55.168c16.683-16.683 16.683-43.648 0-60.331s-43.648-16.683-60.331 0l-158.165 158.165 158.165 158.165c8.32 8.32 19.243 12.501 30.165 12.501s21.845-4.181 30.165-12.501c16.683-16.683 16.683-43.648 0-60.331l-55.168-55.168h195.669v195.669l-55.168-55.168c-16.683-16.683-43.648-16.683-60.331 0s-16.683 43.648 0 60.331l158.165 158.165 158.165-158.165c16.683-16.683 16.683-43.648 0-60.331s-43.648-16.683-60.331 0l-55.168 55.168v-195.669h195.669l-55.168 55.168c-16.683 16.683-16.683 43.648 0 60.331 8.32 8.32 19.243 12.501 30.165 12.501s21.845-4.181 30.165-12.501l158.165-158.165-158.165-158.165z" /></g></svg>