<?xml version="1.0" encoding="utf-8"?><!DOCTYPE svg PUBLIC "-//W3C//DTD SVG 1.1//EN" "http://www.w3.org/Graphics/SVG/1.1/DTD/svg11.dtd"><svg version="1.1" xmlns="http://www.w3.org/2000/svg" xmlns:xlink="http://www.w3.org/1999/xlink" width="32" height="32" viewBox="0 0 32 32" data-tags="target-arrow"><g fill="#444" transform="scale(0.03125 0.03125)"><path d="M288 760.674l-32 32v7.326 0 96h-32v-71.326l-41.373 41.373-22.627-22.627 43.419-43.419h-75.419v-32h107.419l32-32h-75.419v-32h107.419l170.29-170.29-21.71-21.71 96-32-32 96-19.663-19.663-172.337 172.337v103.326h-32v-71.326zM248.926 672c-36.003-55.218-56.926-121.166-56.926-192 0-194.404 157.596-352 352-352s352 157.596 352 352c0 194.404-157.596 352-352 352-70.834 0-136.782-20.923-192-56.926v-34.298l2.727-2.727c53.007 38.945 118.454 61.951 189.273 61.951 176.731 0 320-143.269 320-320s-143.269-320-320-320c-176.731 0-320 143.269-320 320 0 71.278 23.304 137.113 62.71 190.302l-1.698 1.698h-36.085zM448.106 484.541c-0.070-1.505-0.106-3.019-0.106-4.541 0-53.019 42.981-96 96-96s96 42.981 96 96c0 53.019-42.981 96-96 96-1.522 0-3.036-0.035-4.541-0.106l9.031-31.608 0.476-0.476c33.026-2.534 59.034-30.135 59.034-63.81 0-35.346-28.654-64-64-64-33.793 0-61.469 26.191-63.836 59.382l-32.059 9.16zM355.676 601.335c-22.574-34.965-35.676-76.62-35.676-121.335 0-123.712 100.288-224 224-224s224 100.288 224 224c0 123.712-100.288 224-224 224-44.252 0-85.507-12.832-120.246-34.978l23.275-23.275c28.459 16.686 61.598 26.252 96.972 26.252 106.039 0 192-85.961 192-192s-85.961-192-192-192c-106.039 0-192 85.961-192 192 0 35.84 9.82 69.386 26.916 98.095l-23.24 23.24z" /></g></svg>