<?xml version="1.0" encoding="utf-8"?><!DOCTYPE svg PUBLIC "-//W3C//DTD SVG 1.1//EN" "http://www.w3.org/Graphics/SVG/1.1/DTD/svg11.dtd"><svg version="1.1" xmlns="http://www.w3.org/2000/svg" xmlns:xlink="http://www.w3.org/1999/xlink" width="25.999999999999996" height="28" viewBox="0 0 25.999999999999996 28" data-code="61976" data-tags="cart-arrow-down"><g fill="#444" transform="scale(0.02734375 0.02734375)"><path d="M731.429 402.286c0-20-16.571-36.571-36.571-36.571-9.714 0-18.857 4-25.714 10.857l-84 83.429v-167.429c0-20-16.571-36.571-36.571-36.571s-36.571 16.571-36.571 36.571v167.429l-84-83.429c-6.857-6.857-16-10.857-25.714-10.857-20 0-36.571 16.571-36.571 36.571 0 9.714 4 18.857 10.857 25.714l146.286 146.286c6.857 6.857 16 10.857 25.714 10.857s18.857-4 25.714-10.857l146.286-146.286c6.857-6.857 10.857-16 10.857-25.714zM365.714 877.714c0 40.571-32.571 73.143-73.143 73.143s-73.143-32.571-73.143-73.143 32.571-73.143 73.143-73.143 73.143 32.571 73.143 73.143zM877.714 877.714c0 40.571-32.571 73.143-73.143 73.143s-73.143-32.571-73.143-73.143 32.571-73.143 73.143-73.143 73.143 32.571 73.143 73.143zM950.857 256v292.571c0 18.286-13.714 34.286-32.571 36.571l-596.571 69.714c2.286 12.571 7.429 26.857 7.429 40s-8 25.143-13.714 36.571h525.714c20 0 36.571 16.571 36.571 36.571s-16.571 36.571-36.571 36.571h-585.143c-20 0-36.571-16.571-36.571-36.571 0-17.714 26.857-61.714 34.857-78.286l-101.143-470.286h-116.571c-20 0-36.571-16.571-36.571-36.571s16.571-36.571 36.571-36.571h146.286c38.857 0 39.429 45.714 45.143 73.143h686.286c20 0 36.571 16.571 36.571 36.571z" /></g></svg>