<?xml version="1.0" encoding="utf-8"?><!DOCTYPE svg PUBLIC "-//W3C//DTD SVG 1.1//EN" "http://www.w3.org/Graphics/SVG/1.1/DTD/svg11.dtd"><svg version="1.1" xmlns="http://www.w3.org/2000/svg" xmlns:xlink="http://www.w3.org/1999/xlink" width="31.9375" height="32" viewBox="0 0 31.9375 32" data-tags="undo,arrow"><g fill="#444" transform="scale(0.03125 0.03125)"><path d="M900.936 119.032c-158.614-158.582-435.332-158.71-593.85 0l-179.094 179.222v-170.23h-127.992v383.976h383.976v-127.992l-160.726 0.096 174.486-174.486c110.234-110.362 302.478-110.362 412.71 0.128 55.132 55.134 85.498 128.376 85.498 206.356 0 78.076-30.366 151.35-85.498 206.644l-96.506 96.474 90.49 90.458 96.506-96.25c79.258-79.516 123-185.046 123-297.326 0-112.216-43.742-217.714-123-297.070zM590.332 1024l-90.492-90.618 90.556-90.458 90.49 90.618z" /></g></svg>