<?xml version="1.0" encoding="utf-8"?><!DOCTYPE svg PUBLIC "-//W3C//DTD SVG 1.1//EN" "http://www.w3.org/Graphics/SVG/1.1/DTD/svg11.dtd"><svg version="1.1" xmlns="http://www.w3.org/2000/svg" xmlns:xlink="http://www.w3.org/1999/xlink" width="32" height="32" viewBox="0 0 32 32" data-tags="loop,refresh,reload,reset,arrows"><g fill="#444" transform="scale(0.03125 0.03125)"><path d="M640 512v128h151.616l-171.872 171.872c-108.448 108.672-297.888 108.672-406.432 0l-90.56 90.368c78.432 78.528 182.88 121.76 293.888 121.76 111.072 0 215.264-43.264 293.6-121.76l185.76-185.6v179.36h128v-384h-384zM384 384h-151.616l171.872-171.872c108.448-108.672 297.888-108.672 406.432 0l90.56-90.368c-78.432-78.496-182.88-121.76-293.92-121.76-111.072 0-215.264 43.264-293.6 121.76l-185.728 185.6v-179.36h-128v384h384v-128z" /></g></svg>