<?xml version="1.0" encoding="utf-8"?><!DOCTYPE svg PUBLIC "-//W3C//DTD SVG 1.1//EN" "http://www.w3.org/Graphics/SVG/1.1/DTD/svg11.dtd"><svg version="1.1" xmlns="http://www.w3.org/2000/svg" xmlns:xlink="http://www.w3.org/1999/xlink" width="32" height="32" viewBox="0 0 32 32" data-code="57406" data-tags="recycle,arrows"><g fill="#444" transform="scale(0.03125 0.03125)"><path d="M388.736 85.312l-98.016 145.76c-4.928 7.328-2.976 17.28 4.352 22.208s17.28 2.976 22.208-4.352l98.592-146.656c26.24-45.344 60.416-70.272 96.128-70.272s69.888 24.928 96.096 70.208l176.448 307.2-125.44-25.088c-8.736-1.824-17.12 3.872-18.816 12.576-1.728 8.672 3.904 17.088 12.544 18.816l160 32c1.088 0.192 2.144 0.288 3.168 0.288 2.528 0 4.896-0.8 7.072-1.888 0.288-0.128 0.608-0.064 0.896-0.224 0.32-0.192 0.512-0.512 0.832-0.736 1.056-0.704 1.984-1.536 2.848-2.496 0.512-0.544 1.024-1.024 1.44-1.632 0.672-0.992 1.12-2.080 1.568-3.2 0.288-0.736 0.672-1.408 0.832-2.176 0.032-0.192 0.16-0.32 0.192-0.512l32-160c1.728-8.672-3.904-17.088-12.544-18.816-8.736-1.824-17.12 3.872-18.816 12.576l-23.648 118.24-172.832-300.928c-32.256-55.584-76.224-86.208-123.84-86.208s-91.584 30.624-123.264 85.312zM320 912.608c0-8.832-7.168-16-16-16h-143.968c-49.504-0.096-89.088-19.488-108.544-53.248-20.736-35.936-17.248-83.328 9.6-130.016l176.384-308.608 51.68 129.248c2.496 6.208 8.512 10.016 14.848 10.016 1.984 0 4-0.384 5.952-1.152 8.192-3.296 12.192-12.608 8.928-20.768l-64-160c-0.32-0.832-0.896-1.44-1.344-2.176-0.416-0.672-0.704-1.344-1.216-1.984-1.12-1.344-2.4-2.4-3.808-3.296-0.224-0.16-0.352-0.384-0.576-0.512-0.032-0.032-0.064 0-0.096-0.032-1.792-1.024-3.744-1.632-5.824-1.888-0.352-0.032-0.672 0.064-1.024 0.032-1.376-0.096-2.72-0.192-4.128 0.128l-160 32c-8.672 1.728-14.272 10.144-12.544 18.816s10.016 14.304 18.816 12.576l125.504-25.088-175.36 306.816c-32.672 56.8-36.128 115.84-9.536 161.952 25.344 43.872 74.976 69.12 136.224 69.248h144c8.864-0.064 16.032-7.232 16.032-16.064zM1000.448 859.072c26.336-45.632 22.784-104.256-8.992-159.36l-64.8-146.176c-3.584-8.064-13.024-11.776-21.12-8.128-8.064 3.584-11.712 13.024-8.128 21.12l65.568 147.648c26.688 46.464 30.272 93.44 9.792 128.896-19.36 33.568-59.008 52.832-108.768 52.928l-329.92 0.544 69.216-69.216c6.24-6.24 6.24-16.384 0-22.624s-16.384-6.24-22.624 0l-96 96c-3.2 3.2-4.704 7.424-4.64 11.616 0 0.096-0.064 0.192-0.064 0.32 0 5.184 2.656 9.6 6.528 12.512l94.176 94.176c3.136 3.104 7.232 4.672 11.328 4.672s8.192-1.568 11.328-4.672c6.24-6.24 6.24-16.384 0-22.624l-68.16-68.16 328.864-0.544c61.44-0.128 111.168-25.248 136.416-68.928z" /></g></svg>