<?xml version="1.0" encoding="utf-8"?><!DOCTYPE svg PUBLIC "-//W3C//DTD SVG 1.1//EN" "http://www.w3.org/Graphics/SVG/1.1/DTD/svg11.dtd"><svg version="1.1" xmlns="http://www.w3.org/2000/svg" xmlns:xlink="http://www.w3.org/1999/xlink" width="32" height="32" viewBox="0 0 32 32" data-tags="loop-alt2,synchronize,arrows,reload,refresh"><g fill="#444" transform="scale(0.03125 0.03125)"><path d="M384 320h-128v-64c0-35.264 28.736-64 64-64h384c35.264 0 64 28.736 64 64v64h128v-64c0-105.888-86.112-192-192-192h-384c-105.888 0-192 86.112-192 192v64h-128l192 256 192-256zM832 448l-192 256h128v64c0 35.264-28.736 64-64 64h-384c-35.264 0-64-28.736-64-64v-64h-128v64c0 105.888 86.112 192 192 192h384c105.888 0 192-86.112 192-192v-64h128l-192-256z" /></g></svg>