<?xml version="1.0" encoding="utf-8"?><!DOCTYPE svg PUBLIC "-//W3C//DTD SVG 1.1//EN" "http://www.w3.org/Graphics/SVG/1.1/DTD/svg11.dtd"><svg version="1.1" xmlns="http://www.w3.org/2000/svg" xmlns:xlink="http://www.w3.org/1999/xlink" width="24" height="24" viewBox="0 0 24 24" data-tags="arrow-sync"><g fill="#444" transform="scale(0.0234375 0.0234375)"><path d="M832 532.181c0-83.115-26.368-144.939-88.149-206.677-16.683-16.64-43.648-16.64-60.331 0-16.683 16.683-16.683 43.691 0 60.373 46.037 45.995 63.147 85.632 63.147 146.304 0 62.677-24.405 121.6-68.736 165.888-42.837 42.795-88.661 64.085-146.261 67.968l53.163-53.205c16.683-16.683 16.683-43.648 0-60.331s-43.648-16.683-60.331 0l-158.165 158.165 158.165 158.165c8.32 8.32 19.243 12.501 30.165 12.501s21.845-4.181 30.165-12.501c16.683-16.683 16.683-43.648 0-60.331l-57.045-57.003c82.048-3.499 151.125-33.792 210.475-93.056 60.459-60.416 93.739-140.757 93.739-226.261z" /><path d="M277.333 533.333c0-62.677 24.405-121.6 68.736-165.931 43.051-43.051 89.259-64.341 147.499-68.011l-54.4 54.4c-16.683 16.683-16.683 43.648 0 60.331 8.32 8.363 19.243 12.544 30.165 12.544s21.845-4.181 30.165-12.501l158.165-158.165-158.165-158.165c-16.683-16.683-43.648-16.683-60.331 0s-16.683 43.648 0 60.331l55.936 55.936c-81.664 3.669-150.4 33.963-209.365 92.971-60.459 60.416-93.739 140.757-93.739 226.261 0 83.115 26.368 144.939 88.149 206.677 8.32 8.32 19.243 12.459 30.165 12.459s21.845-4.181 30.165-12.501c16.683-16.683 16.683-43.691 0-60.373-46.037-45.952-63.147-85.589-63.147-146.261z" /></g></svg>