<?xml version="1.0" encoding="utf-8"?><!DOCTYPE svg PUBLIC "-//W3C//DTD SVG 1.1//EN" "http://www.w3.org/Graphics/SVG/1.1/DTD/svg11.dtd"><svg version="1.1" xmlns="http://www.w3.org/2000/svg" xmlns:xlink="http://www.w3.org/1999/xlink" width="24" height="24" viewBox="0 0 24 24" data-tags="arrow-shuffle"><g fill="#444" transform="scale(0.0234375 0.0234375)"><path d="M170.667 384h149.333c31.403 0 59.435 16.683 78.976 42.709 13.867-25.771 31.104-49.621 50.816-70.912-34.261-35.115-79.616-57.131-129.792-57.131h-149.333c-23.595 0-42.667 19.115-42.667 42.667s19.072 42.667 42.667 42.667z" /><path d="M498.56 516.736c23.509-70.699 96.256-132.736 155.691-132.736h78.421l-55.168 55.168c-16.683 16.683-16.683 43.648 0 60.331 8.32 8.32 19.243 12.501 30.165 12.501s21.845-4.181 30.165-12.501l158.165-158.165-158.165-158.165c-16.683-16.683-43.648-16.683-60.331 0s-16.683 43.648 0 60.331l55.168 55.168h-78.421c-97.024 0-201.003 83.925-236.672 191.104l-20.139 60.203c-27.349 82.176-88.405 132.693-120.107 132.693h-106.667c-23.595 0-42.667 19.115-42.667 42.667s19.072 42.667 42.667 42.667h106.667c78.379 0 164.821-82.133 201.088-191.104l20.139-60.16z" /><path d="M677.504 567.168c-16.683 16.683-16.683 43.648 0 60.331l55.168 55.168h-99.755c-54.101 0-99.413-38.016-114.816-89.941-10.923 32-26.752 63.957-46.507 93.227 37.803 49.579 95.701 82.048 161.323 82.048h99.755l-55.168 55.168c-16.683 16.683-16.683 43.648 0 60.331 8.32 8.32 19.243 12.501 30.165 12.501s21.845-4.181 30.165-12.501l158.165-158.165-158.165-158.165c-16.683-16.683-43.648-16.683-60.331 0z" /></g></svg>