<?xml version="1.0" encoding="utf-8"?><!DOCTYPE svg PUBLIC "-//W3C//DTD SVG 1.1//EN" "http://www.w3.org/Graphics/SVG/1.1/DTD/svg11.dtd"><svg version="1.1" xmlns="http://www.w3.org/2000/svg" xmlns:xlink="http://www.w3.org/1999/xlink" width="24" height="24" viewBox="0 0 24 24" data-tags="arrow-minimise"><g fill="#444" transform="scale(0.0234375 0.0234375)"><path d="M261.163 554.667c-23.595 0-42.667 19.115-42.667 42.667s19.072 42.667 42.667 42.667h62.507l-140.501 140.501c-16.683 16.683-16.683 43.648 0 60.331 8.32 8.32 19.243 12.501 30.165 12.501s21.845-4.181 30.165-12.501l145.664-145.664v72.832c0 23.552 19.072 42.667 42.667 42.667s37.504-19.115 37.504-42.667v-213.333h-208.171z" /><path d="M298.667 469.333c23.552 0 42.667-19.115 42.667-42.667v-85.333h85.333c23.595 0 42.667-19.115 42.667-42.667s-19.072-42.667-42.667-42.667h-170.624l-0.043 170.667c0 23.552 19.072 42.667 42.667 42.667z" /><path d="M725.333 554.667c-23.595 0-42.667 19.115-42.667 42.667v85.333h-85.333c-23.595 0-42.667 19.115-42.667 42.667s19.072 42.667 42.667 42.667h170.667v-170.667c0-23.552-19.072-42.667-42.667-42.667z" /><path d="M780.501 183.168l-140.501 140.501v-67.669c0-23.552-19.072-42.667-42.667-42.667s-42.667 19.115-42.667 42.667v213.333h213.333c23.552 0 42.667-19.115 42.667-42.667s-19.072-42.667-42.667-42.667h-67.669l140.501-140.459c16.683-16.683 16.683-43.648 0-60.331s-43.648-16.725-60.331-0.043z" /></g></svg>