<?xml version="1.0" encoding="utf-8"?><!DOCTYPE svg PUBLIC "-//W3C//DTD SVG 1.1//EN" "http://www.w3.org/Graphics/SVG/1.1/DTD/svg11.dtd"><svg version="1.1" xmlns="http://www.w3.org/2000/svg" xmlns:xlink="http://www.w3.org/1999/xlink" width="24" height="24" viewBox="0 0 24 24" data-tags="arrow-loop"><g fill="#444" transform="scale(0.0234375 0.0234375)"><path d="M704 341.333h-89.003l55.168-55.168c16.683-16.683 16.683-43.648 0-60.331s-43.648-16.683-60.331 0l-158.165 158.165 158.165 158.165c8.32 8.32 19.243 12.501 30.165 12.501s21.845-4.181 30.165-12.501c16.683-16.683 16.683-43.648 0-60.331l-55.168-55.168h89.003c58.837 0 106.667 57.429 106.667 128s-57.429 128-128 128h-341.333c-70.571 0-128-57.429-128-128s57.429-128 128-128v0c23.595 0 42.667-19.115 42.667-42.667s-19.072-42.667-42.667-42.667v0c-117.632 0-213.333 95.701-213.333 213.333s95.701 213.333 213.333 213.333h341.333c117.632 0 213.333-95.701 213.333-213.333s-86.144-213.333-192-213.333z" /></g></svg>