<?xml version="1.0" encoding="utf-8"?><!DOCTYPE svg PUBLIC "-//W3C//DTD SVG 1.1//EN" "http://www.w3.org/Graphics/SVG/1.1/DTD/svg11.dtd"><svg version="1.1" xmlns="http://www.w3.org/2000/svg" xmlns:xlink="http://www.w3.org/1999/xlink" width="16" height="16" viewBox="0 0 16 16" data-tags="maximize,resize,arrows,expand"><g fill="#444" transform="scale(0.015625 0.015625)"><path d="M960 320l-82.188-82.156-210.562 210.532-91.624-91.624 210.562-210.564-82.188-82.188c0-35.344 28.624-64 64-64h192c35.376 0 64 28.656 64 64v192c0 35.376-28.624 64-64 64zM320 960c0 35.376-28.624 64-64 64h-192c-35.376 0-64-28.624-64-64v-192c0-35.376 28.624-64 64-64l82.188 82.188 210.562-210.562 91.624 91.624-210.562 210.626 82.188 82.124z" /></g></svg>