<?xml version="1.0" encoding="utf-8"?><!DOCTYPE svg PUBLIC "-//W3C//DTD SVG 1.1//EN" "http://www.w3.org/Graphics/SVG/1.1/DTD/svg11.dtd"><svg version="1.1" xmlns="http://www.w3.org/2000/svg" xmlns:xlink="http://www.w3.org/1999/xlink" width="25" height="28" viewBox="0 0 25 28" data-code="61536" data-tags="arrow-left"><g fill="#444" transform="scale(0.02734375 0.02734375)"><path d="M877.714 512v73.143c0 38.857-25.714 73.143-66.857 73.143h-402.286l167.429 168c13.714 13.143 21.714 32 21.714 51.429s-8 38.286-21.714 51.429l-42.857 43.429c-13.143 13.143-32 21.143-51.429 21.143s-38.286-8-52-21.143l-372-372.571c-13.143-13.143-21.143-32-21.143-51.429s8-38.286 21.143-52l372-371.429c13.714-13.714 32.571-21.714 52-21.714s37.714 8 51.429 21.714l42.857 42.286c13.714 13.714 21.714 32.571 21.714 52s-8 38.286-21.714 52l-167.429 167.429h402.286c41.143 0 66.857 34.286 66.857 73.143z" /></g></svg>