<?xml version="1.0" encoding="utf-8"?><!DOCTYPE svg PUBLIC "-//W3C//DTD SVG 1.1//EN" "http://www.w3.org/Graphics/SVG/1.1/DTD/svg11.dtd"><svg version="1.1" xmlns="http://www.w3.org/2000/svg" xmlns:xlink="http://www.w3.org/1999/xlink" width="23" height="28" viewBox="0 0 23 28" data-code="61537" data-tags="arrow-right"><g fill="#444" transform="scale(0.02734375 0.02734375)"><path d="M841.143 548.571c0 19.429-7.429 38.286-21.143 52l-372 372c-13.714 13.143-32.571 21.143-52 21.143s-37.714-8-51.429-21.143l-42.857-42.857c-13.714-13.714-21.714-32.571-21.714-52s8-38.286 21.714-52l167.429-167.429h-402.286c-41.143 0-66.857-34.286-66.857-73.143v-73.143c0-38.857 25.714-73.143 66.857-73.143h402.286l-167.429-168c-13.714-13.143-21.714-32-21.714-51.429s8-38.286 21.714-51.429l42.857-42.857c13.714-13.714 32-21.714 51.429-21.714s38.286 8 52 21.714l372 372c13.714 13.143 21.143 32 21.143 51.429z" /></g></svg>