<!-- Generated by IcoMoon.io -->
<svg version="1.1" xmlns="http://www.w3.org/2000/svg" width="32" height="32" viewBox="0 0 32 32">
<title>materialdesign</title>
<path fill="#757575" d="M16 0c-8.831 0-16 7.169-16 16s7.169 16 16 16 16-7.169 16-16-7.169-16-16-16zM16 1c3.828 0 7.309 1.443 9.959 3.8h-19.919c2.629-2.358 6.122-3.8 9.951-3.8 0.003 0 0.006 0 0.009 0h-0.001zM6.419 5.8h19.163l-9.581 19.164zM4.8 6.040v19.92c-2.358-2.629-3.8-6.122-3.8-9.951 0-0.003 0-0.006 0-0.009v0c0-3.827 1.443-7.308 3.8-9.96zM27.2 6.040c2.358 2.629 3.8 6.122 3.8 9.951 0 0.003 0 0.006 0 0.009v-0.001c0 3.828-1.443 7.309-3.8 9.959zM5.8 6.8l9.7 19.4h-9.7zM26.2 6.8v19.4h-9.7zM6.044 27.2h19.915c-2.629 2.358-6.122 3.8-9.951 3.8-0.003 0-0.005 0-0.008 0h0c-0.001 0-0.003 0-0.005 0-3.83 0-7.322-1.442-9.965-3.812l0.014 0.012z"></path>
</svg>
