<svg enable-background="new 0 0 24 24" height="512" viewBox="0 0 24 24" width="512" xmlns="http://www.w3.org/2000/svg"><path d="m22.128 3.901c-1.21-1.226-2.819-1.901-4.532-1.901s-3.321.675-4.531 1.9l-1.065 1.08-1.065-1.079c-1.21-1.226-2.819-1.901-4.531-1.901-1.713 0-3.322.675-4.532 1.901-2.491 2.524-2.491 6.631 0 9.153l9.594 9.722c.141.144.333.224.534.224s.393-.08.534-.224l9.594-9.721c2.491-2.523 2.491-6.629 0-9.154z" fill="#f44336"/><path d="m12 23c-.201 0-.393-.08-.534-.224l-9.594-9.722c-2.491-2.522-2.491-6.629 0-9.153 1.21-1.226 2.819-1.901 4.531-1.901s3.321.675 4.531 1.901l1.066 1.079 1.065-1.08c1.21-1.225 2.819-1.9 4.531-1.9s3.322.675 4.532 1.901c2.491 2.524 2.491 6.631 0 9.154l-9.594 9.721c-.141.144-.333.224-.534.224zm-5.597-19.5c-1.308 0-2.538.517-3.464 1.454-1.917 1.943-1.917 5.104 0 7.047l9.061 9.182 9.061-9.181c1.917-1.943 1.917-5.104 0-7.048-.927-.937-2.157-1.454-3.465-1.454s-2.538.517-3.463 1.454l-1.599 1.621c-.281.285-.786.285-1.067 0l-1.599-1.62c-.927-.938-2.157-1.455-3.465-1.455.001 0 .001 0 0 0z"/></svg>