<?xml version="1.0"?>
<svg xmlns="http://www.w3.org/2000/svg" xmlns:xlink="http://www.w3.org/1999/xlink" version="1.1" id="Capa_1" x="0px" y="0px" viewBox="0 0 480 480" style="enable-background:new 0 0 480 480;" xml:space="preserve" width="512px" height="512px" class=""><g><g>
	<g>
		<path d="M364.001,48c-32.223,0.054-59.392,24.033-63.448,56h-20.096l25.552-88h25.992V0h-32c-3.558,0.001-6.687,2.352-7.68,5.768    L263.801,104h-203.8c-4.418-0.001-8.001,3.58-8.002,7.998c0,1.804,0.609,3.555,1.73,4.97l150.272,189.816V464h-64v16h144v-16h-64    V306.784l110.976-140.176c9.918,6.147,21.356,9.4,33.024,9.392c35.346,0,64-28.654,64-64C428.001,76.654,399.347,48,364.001,48z     M76.537,120h182.616l-16.256,56H120.873L76.537,120z M212.001,291.112L133.537,192h104.72l-17.936,61.768l15.36,4.464    L254.913,192h35.552L212.001,291.112z M303.129,176h-43.576l16.264-56h71.648L303.129,176z M364.001,160    c-8.083,0.042-16.04-1.999-23.104-5.928l29.376-37.104c2.744-3.463,2.161-8.495-1.302-11.239c-1.414-1.12-3.165-1.73-4.97-1.729    h-47.336c4.418-26.139,29.19-43.747,55.329-39.329c26.139,4.418,43.747,29.19,39.329,55.329    C407.419,143.092,387.421,159.996,364.001,160z" data-original="#000000" class="active-path" data-old_color="#00FFAD" fill="#FFFFFF"/>
	</g>
</g></g> </svg>
