<!-- Generated by IcoMoon.io -->
<svg version="1.1" xmlns="http://www.w3.org/2000/svg" width="512" height="512" viewBox="0 0 512 512">
<title></title>
<g id="icomoon-ignore">
</g>
<path d="M444.581 89.885c3.784-4.816 4.486-11.371 1.81-16.879-2.678-5.509-8.266-9.006-14.391-9.006h-352c-6.125 0-11.713 3.497-14.39 9.006s-1.975 12.063 1.809 16.879l156.581 199.285v190.83h-48c-8.836 0-16 7.163-16 16s7.164 16 16 16h160c8.837 0 16-7.163 16-16s-7.163-16-16-16h-48v-190.83l156.581-199.285zM399.081 96l-50.286 64h-185.59l-50.285-64h286.161z"></path>
</svg>
