<?xml version="1.0" encoding="utf-8"?>
<!-- Generator: Adobe Illustrator 22.0.1, SVG Export Plug-In . SVG Version: 6.00 Build 0)  -->
<svg version="1.1" id="Capa_1" xmlns="http://www.w3.org/2000/svg" xmlns:xlink="http://www.w3.org/1999/xlink" x="0px" y="0px"
	 viewBox="0 0 512 512" style="enable-background:new 0 0 512 512;" xml:space="preserve">
<style type="text/css">
	.st0{fill:#FFFFFF;}
</style>
<title></title>
<g id="icomoon-ignore">
</g>
<path class="st0" d="M444.6,89.9c3.8-4.8,4.5-11.4,1.8-16.9c-2.7-5.5-8.3-9-14.4-9H80c-6.1,0-11.7,3.5-14.4,9s-2,12.1,1.8,16.9
	L224,289.2V480h-48c-8.8,0-16,7.2-16,16s7.2,16,16,16h160c8.8,0,16-7.2,16-16s-7.2-16-16-16h-48V289.2L444.6,89.9L444.6,89.9z
	 M399.1,96l-50.3,64H163.2l-50.3-64H399.1z"/>
</svg>
