<?xml version="1.0" ?><svg id="Layer_1" style="enable-background:new 0 0 512 512;" version="1.1" viewBox="0 0 512 512" xml:space="preserve" xmlns="http://www.w3.org/2000/svg" xmlns:xlink="http://www.w3.org/1999/xlink"><style type="text/css">
	.st0{fill:none;stroke:#000000;stroke-width:2;stroke-linecap:round;stroke-linejoin:round;stroke-miterlimit:10;}
	.st1{stroke:#000000;stroke-width:2;stroke-linecap:round;stroke-linejoin:round;stroke-miterlimit:10;}
	.st2{fill:#FFFFFF;}
</style><g><g><g><path d="M232.82,401.1c-1.89,0-3.73-0.7-5.15-1.97l-76.31-68.27c-3.1-2.77-3.44-7.5-0.78-10.7L378.26,46.48     c10.32-12.4,24.86-19.88,40.95-21.07c16.11-1.19,31.57,4.09,43.59,14.84c23.74,21.24,26.38,57.06,6,81.56L238.76,398.32     c-1.34,1.61-3.28,2.61-5.37,2.76C233.2,401.1,233.01,401.1,232.82,401.1z M167.21,324.32L232,382.28l224.91-270.35     c15.03-18.06,13.09-44.48-4.43-60.15c-8.87-7.93-20.22-11.85-32.15-10.95c-11.86,0.87-22.59,6.39-30.2,15.54L167.21,324.32z"/></g><g><path d="M129.28,445.98c-1.78,0-3.55-0.62-4.97-1.81c-2.24-1.88-3.23-4.87-2.55-7.72l27.01-112.9c0.63-2.64,2.61-4.76,5.2-5.57     c2.59-0.8,5.42-0.21,7.45,1.6l76.52,68.03c1.98,1.75,2.91,4.39,2.5,7c-0.42,2.61-2.14,4.82-4.56,5.87l-103.54,44.87     C131.37,445.77,130.32,445.98,129.28,445.98z M160.81,339.7l-20.41,85.31l78.24-33.9L160.81,339.7z"/></g></g><g><path d="M503.27,486.75H8.73c-4.27,0-7.73-3.46-7.73-7.73V86.66c0-4.27,3.46-7.73,7.73-7.73h346.15c4.27,0,7.73,3.46,7.73,7.73    c0,4.27-3.46,7.73-7.73,7.73H16.45v376.9h486.82c4.27,0,7.73,3.46,7.73,7.73S507.54,486.75,503.27,486.75z"/></g><g><path d="M503.27,486.75c-4.27,0-7.73-3.46-7.73-7.73V94.39h-20.92c-4.27,0-7.73-3.46-7.73-7.73c0-4.27,3.46-7.73,7.73-7.73h28.65    c4.27,0,7.73,3.46,7.73,7.73v392.36C511,483.29,507.54,486.75,503.27,486.75z"/></g><g><path d="M503.27,202.21H398.29c-4.27,0-7.73-3.46-7.73-7.73c0-4.27,3.46-7.73,7.73-7.73h104.98c4.27,0,7.73,3.46,7.73,7.73    C511,198.75,507.54,202.21,503.27,202.21z"/></g><g><path d="M265.17,202.21H8.73c-4.27,0-7.73-3.46-7.73-7.73c0-4.27,3.46-7.73,7.73-7.73h256.44c4.27,0,7.73,3.46,7.73,7.73    C272.9,198.75,269.44,202.21,265.17,202.21z"/></g><g><path d="M70.37,174.05c-18.47,0-33.49-15.02-33.49-33.49s15.02-33.49,33.49-33.49c18.46,0,33.48,15.02,33.48,33.49    S88.83,174.05,70.37,174.05z M70.37,122.53c-9.94,0-18.03,8.09-18.03,18.03s8.09,18.03,18.03,18.03s18.03-8.09,18.03-18.03    S80.31,122.53,70.37,122.53z"/></g><g><path d="M152.79,174.05c-18.47,0-33.49-15.02-33.49-33.49s15.02-33.49,33.49-33.49s33.49,15.02,33.49,33.49    S171.26,174.05,152.79,174.05z M152.79,122.53c-9.94,0-18.03,8.09-18.03,18.03s8.09,18.03,18.03,18.03    c9.94,0,18.03-8.09,18.03-18.03S162.73,122.53,152.79,122.53z"/></g><g><path d="M235.22,174.05c-18.47,0-33.49-15.02-33.49-33.49s15.02-33.49,33.49-33.49s33.48,15.02,33.48,33.49    S253.68,174.05,235.22,174.05z M235.22,122.53c-9.95,0-18.03,8.09-18.03,18.03s8.09,18.03,18.03,18.03    c9.94,0,18.03-8.09,18.03-18.03S245.16,122.53,235.22,122.53z"/></g><g><path d="M402.67,196.94c-1.83,0-3.61-0.65-5.01-1.85l-77.9-66.34c-3.22-2.74-3.64-7.57-0.93-10.82l37.15-44.68    c1.32-1.59,3.22-2.58,5.29-2.76c1.96-0.18,4.11,0.48,5.67,1.83l77.73,66.56c3.21,2.75,3.61,7.57,0.91,10.81l-36.98,44.45    c-1.32,1.58-3.22,2.58-5.27,2.75C403.11,196.93,402.89,196.94,402.67,196.94z M335.6,121.94l66.13,56.32l27.11-32.59l-65.99-56.51    L335.6,121.94z"/></g></g></svg>