<?xml version="1.0" encoding="utf-8"?>
<!-- Generator: Adobe Illustrator 24.0.3, SVG Export Plug-In . SVG Version: 6.00 Build 0)  -->
<svg version="1.1" id="Capa_1" xmlns="http://www.w3.org/2000/svg" xmlns:xlink="http://www.w3.org/1999/xlink" x="0px" y="0px"
	 viewBox="0 0 971.6 971.6" style="enable-background:new 0 0 971.6 971.6;" xml:space="preserve">
<style type="text/css">
	.st0{fill:#FFFFFF;}
	.st1{fill:none;stroke:#FFFFFF;stroke-width:15;stroke-miterlimit:10;}
</style>
<g>
	<g>
		<g>
			<path class="st0" d="M486.2,364.2c-61.2,0-111.2,50-111.2,111.2c0,32,14,62.8,37.6,83.6c17.6,17.6,16,55.2,15.6,55.6
				c0,2,0.4,3.6,2,5.2c1.2,1.2,3.2,2,4.8,2h102c2,0,3.6-0.8,4.8-2c1.2-1.2,2-3.2,2-5.2c0-0.4-2-38,15.6-55.6
				c0.4-0.4,0.8-0.8,1.2-1.2c23.2-21.2,36.8-51.2,36.8-82.4C597.4,414.2,547.4,364.2,486.2,364.2z M550.2,548.6
				c-0.4,0.4-1.2,1.2-1.2,1.6c-15.6,16.8-18.4,44.4-18.8,57.6h-88.4c-0.4-13.2-3.2-42-20-59.2c-21.2-18.4-33.6-45.2-33.6-73.6
				c0-54,43.6-97.6,97.6-97.6s97.6,43.6,97.6,97.6C583.4,503.4,571.4,530.2,550.2,548.6z"/>
			<path class="st0" d="M485.8,392.6c-3.6,0-6.8,3.2-6.8,6.8s3.2,6.8,6.8,6.8c40.4,0,72.8,32.8,72.8,72.8c0,3.6,3.2,6.8,6.8,6.8
				c3.6,0,6.8-3.2,6.8-6.8C572.6,431.4,533.8,392.6,485.8,392.6z"/>
			<path class="st0" d="M530.2,629.4h-88.8c-9.2,0-16.8,7.6-16.8,16.8c0,9.2,7.6,16.8,16.8,16.8h88.4c9.6-0.4,17.2-7.6,17.2-16.8
				C547,637,539.4,629.4,530.2,629.4z M530.2,649h-88.8c-1.6,0-3.2-1.2-3.2-3.2s1.2-3.2,3.2-3.2h88.4c1.6,0,3.2,1.2,3.2,3.2
				S531.8,649,530.2,649z"/>
			<path class="st0" d="M517,669.8h-62.4c-9.2,0-16.8,7.6-16.8,16.8c0,9.2,7.6,16.8,16.8,16.8H517c9.2,0,16.8-7.6,16.8-16.8
				C533.8,677,526.2,669.8,517,669.8z M517,689.4h-62.4c-1.6,0-3.2-1.2-3.2-3.2s1.2-3.2,3.2-3.2H517c1.6,0,3.2,1.2,3.2,3.2
				S518.6,689.4,517,689.4z"/>
			<path class="st0" d="M485.8,331c4,0,6.8-3.2,6.8-6.8v-46.4c0-3.6-3.2-6.8-6.8-6.8s-6.8,3.2-6.8,6.8v46.4
				C479,327.8,482.2,331,485.8,331z"/>
			<path class="st0" d="M599,305.4c-3.2-2.4-7.2-1.2-9.2,1.6l-25.6,38.4c-2.4,3.2-1.6,7.6,1.6,9.6c1.2,0.8,2.4,1.2,3.6,1.2
				c2.4,0,4.4-1.2,5.6-3.2l25.6-38.4C603,311.8,602.2,307.4,599,305.4z"/>
			<path class="st0" d="M404.6,354.6c1.2,0,2.4-0.4,3.6-1.2c3.2-2,4-6.4,2-9.6L385.4,305c-2-3.2-6.4-4-9.6-2c-3.2,2-4,6.4-2,9.6
				l24.8,38.8C400.2,353.8,402.2,354.6,404.6,354.6z"/>
			<path class="st0" d="M356.2,397l-40.4-22c-3.2-1.6-7.6-0.4-9.2,2.8c-2,3.2-0.8,7.6,2.8,9.2l40.4,22c1.2,0.4,2,0.8,3.2,0.8
				c2.4,0,4.8-1.2,6-3.6C360.6,403,359.4,398.6,356.2,397z"/>
			<path class="st0" d="M665.4,377.8c-1.6-3.2-6-4.4-9.2-2.8l-40.8,22c-3.2,1.6-4.4,6-2.8,9.2c1.2,2.4,3.6,3.6,6,3.6
				c1.2,0,2.4-0.4,3.2-0.8l40.8-22C665.8,385.4,667,381,665.4,377.8z"/>
		</g>
	</g>
</g>
<circle class="st1" cx="485.8" cy="485.8" r="478.3"/>
</svg>
