<svg width="1791.9999999999998" height="1791.9999999999998" xmlns="http://www.w3.org/2000/svg">

 <g>
  <title>background</title>
  <rect fill="none" id="canvas_background" height="402" width="582" y="-1" x="-1"/>
 </g>
 <g>
  <title>Layer 1</title>
  <path fill="#ffffff" id="svg_1" d="m1699,186q0,35 -43,78l-632,632l0,768l320,0q26,0 45,19t19,45t-19,45t-45,19l-896,0q-26,0 -45,-19t-19,-45t19,-45t45,-19l320,0l0,-768l-632,-632q-43,-43 -43,-78q0,-23 18,-36.5t38,-17.5t43,-4l1408,0q23,0 43,4t38,17.5t18,36.5z"/>
 </g>
</svg>