<svg width="141.732" height="141.732" xmlns="http://www.w3.org/2000/svg">

 <g>
  <title>background</title>
  <rect fill="none" id="canvas_background" height="402" width="582" y="-1" x="-1"/>
 </g>
 <g>
  <title>Layer 1</title>
  <path fill="#ffffff" id="svg_1" d="m141.076982,51.642011c0,-20.796 -16.912,-37.654 -37.777,-37.654c-13.744,0 -25.77,7.317 -32.379,18.255c-6.609,-10.938 -18.637,-18.255 -32.381,-18.255c-20.865,0 -37.777,16.858 -37.777,37.654c0,10.821 4.588,20.57 11.922,27.438l-0.01,0l54.084,51.584c0.992,1.188 2.48,1.945 4.148,1.945c1.545,0 2.936,-0.653 3.92,-1.696l54.346,-51.833l-0.016,0c7.335,-6.867 11.92,-16.616 11.92,-27.438"/>
 </g>
</svg>