<?xml version="1.0" encoding="iso-8859-1"?>
<!-- Generator: Adobe Illustrator 18.0.0, SVG Export Plug-In . SVG Version: 6.00 Build 0)  -->
<!DOCTYPE svg PUBLIC "-//W3C//DTD SVG 1.1//EN" "http://www.w3.org/Graphics/SVG/1.1/DTD/svg11.dtd">
<svg xmlns="http://www.w3.org/2000/svg" xmlns:xlink="http://www.w3.org/1999/xlink" version="1.1" id="Capa_1" x="0px" y="0px" viewBox="0 0 197.723 197.723" style="enable-background:new 0 0 197.723 197.723;" xml:space="preserve" width="512px" height="512px">
<path d="M183.71,12.337c1.883-2.231,2.3-5.351,1.07-7.997C183.551,1.693,180.897,0,177.979,0H19.744  c-2.918,0-5.572,1.693-6.802,4.34c-1.23,2.647-0.812,5.767,1.07,7.998l77.349,91.65v78.735h-25.69c-4.142,0-7.5,3.358-7.5,7.5  c0,4.142,3.358,7.5,7.5,7.5h66.377c4.143,0,7.5-3.358,7.5-7.5c0-4.142-3.357-7.5-7.5-7.5h-25.687v-78.74L183.71,12.337z M161.834,15  L98.859,89.615L35.888,15H161.834z" fill="#FFFFFF"/>
<g>
</g>
<g>
</g>
<g>
</g>
<g>
</g>
<g>
</g>
<g>
</g>
<g>
</g>
<g>
</g>
<g>
</g>
<g>
</g>
<g>
</g>
<g>
</g>
<g>
</g>
<g>
</g>
<g>
</g>
</svg>
